<?xml version="1.0" standalone="no"?>
<!DOCTYPE svg PUBLIC "-//W3C//DTD SVG 20010904//EN"
 "http://www.w3.org/TR/2001/REC-SVG-20010904/DTD/svg10.dtd">
<svg version="1.0" xmlns="http://www.w3.org/2000/svg"
 width="1000.000000pt" height="750.000000pt" viewBox="0 0 1000.000000 750.000000"
 preserveAspectRatio="xMidYMid meet">

<g transform="translate(0.000000,750.000000) scale(0.100000,-0.100000)"
fill="#000000" stroke="none">
<path d="M1893 6838 c4 -128 7 -299 7 -380 0 -127 2 -147 15 -142 8 4 13 10
10 14 -3 5 1 11 7 14 10 5 10 7 1 12 -7 3 -13 10 -13 15 0 6 5 7 10 4 6 -3 10
-1 10 4 0 6 5 11 10 11 6 0 10 -11 10 -25 0 -14 5 -25 11 -25 10 0 9 14 -6 67
-3 10 2 3 11 -14 10 -18 21 -33 24 -33 4 0 5 -31 2 -70 -2 -41 0 -70 6 -70 13
0 22 51 16 81 -5 19 -4 21 5 9 9 -12 11 -9 12 15 1 17 0 40 -1 53 -1 12 2 22
7 22 5 0 8 -38 8 -85 0 -47 -4 -85 -8 -85 -4 0 -2 -6 5 -14 9 -10 15 -11 20
-2 4 6 8 -27 9 -74 l2 -85 8 90 c4 50 5 109 2 133 -3 23 -2 63 2 90 7 42 8 45
17 23 5 -14 6 -37 3 -53 -4 -15 -3 -28 2 -28 4 0 9 -19 10 -43 1 -23 7 -53 12
-67 10 -23 11 -22 6 10 -5 32 -4 33 6 10 5 -14 7 -41 4 -60 -4 -19 -3 -32 1
-28 4 5 18 -33 30 -83 26 -101 41 -130 30 -59 -8 55 10 35 19 -22 4 -21 12
-41 19 -45 7 -5 17 -28 23 -53 l11 -45 2 75 c1 41 2 98 2 125 l-1 50 10 -40
c6 -22 12 -65 14 -95 7 -85 7 -85 22 -64 7 10 13 13 13 7 0 -7 9 -11 20 -10
11 1 20 8 20 15 0 12 -3 12 -15 2 -13 -10 -15 -9 -16 11 0 13 -3 18 -6 12 -2
-7 -9 -13 -14 -13 -14 0 -10 44 6 68 13 18 15 41 10 127 -3 58 -3 105 2 105 4
0 9 -12 9 -27 2 -35 11 -116 14 -123 1 -3 1 -20 0 -37 -1 -20 3 -33 10 -33 7
0 9 -7 6 -16 -8 -20 4 -94 15 -94 5 0 8 45 8 101 0 55 4 106 9 112 6 7 12 23
15 37 4 21 4 20 6 -7 0 -18 -3 -33 -9 -33 -5 0 -7 -25 -3 -62 3 -35 5 -98 5
-142 0 -51 6 -99 19 -138 15 -47 19 -92 20 -207 1 -162 15 -151 19 14 1 55 8
123 15 150 12 43 13 45 12 15 -1 -24 4 -40 18 -53 15 -13 16 -16 4 -11 -10 3
-20 1 -24 -5 -3 -6 1 -11 10 -11 8 0 20 -10 25 -22 5 -14 9 186 9 520 l1 543
1103 -1 c606 -1 1117 -4 1135 -7 l32 -5 0 -1614 0 -1614 -1126 0 -1126 0 43
-40 c45 -42 72 -47 103 -21 13 11 16 11 16 1 0 -7 9 -3 20 10 19 21 20 22 27
4 11 -31 20 -33 135 -24 4 0 9 10 11 23 4 18 4 17 6 -6 1 -34 21 -27 21 7 0
25 27 31 42 11 5 -6 8 -5 8 4 0 11 3 11 15 1 8 -6 19 -9 25 -5 10 6 13 -24 12
-107 -1 -40 17 -65 19 -26 1 13 2 28 4 33 1 6 3 26 4 45 1 21 4 30 9 23 10
-15 52 -13 52 3 0 7 -5 14 -12 16 -7 3 -6 7 5 11 13 5 17 1 17 -18 0 -31 17
-33 23 -2 3 15 5 12 6 -13 2 -19 5 -29 8 -22 7 17 21 15 26 -5 3 -10 5 2 6 27
1 28 4 40 10 32 10 -16 16 -106 16 -240 0 -56 4 -102 9 -102 4 0 7 57 6 128
-4 181 -1 233 10 205 12 -29 27 -29 33 0 l4 22 2 -22 c1 -28 21 -31 21 -3 0
12 7 20 16 20 9 0 18 -9 21 -20 7 -27 31 -25 36 3 l4 22 2 -22 c1 -16 7 -23
21 -23 11 0 20 -6 20 -12 0 -24 20 16 20 42 1 22 2 23 13 9 7 -9 18 -14 25
-12 6 3 12 -2 12 -11 0 -23 37 -20 43 4 6 24 39 27 35 4 -2 -10 3 -19 10 -21
7 -3 12 4 12 16 0 12 5 21 11 21 6 0 9 -7 6 -15 -10 -24 13 -30 113 -30 l95 0
5 -35 c4 -19 15 -48 25 -63 15 -24 20 -26 27 -13 8 14 -5 56 -18 56 -2 0 0 -9
6 -20 6 -11 7 -20 1 -20 -11 0 -22 26 -27 63 -3 23 0 27 19 27 18 0 23 -5 22
-22 -3 -29 13 -60 26 -52 6 3 3 12 -8 20 -16 13 -16 14 -1 8 12 -4 28 4 48 26
l30 32 1 -33 c2 -31 2 -32 6 -6 3 19 10 27 21 25 9 -2 18 7 23 22 4 14 7 18 8
10 1 -23 39 -22 51 0 18 34 45 42 69 19 12 -11 19 -24 16 -28 -2 -5 6 -8 19
-8 18 0 25 6 30 28 7 38 23 37 35 -3 7 -26 9 -28 10 -10 1 13 5 21 10 18 5 -4
11 0 14 6 2 7 8 1 12 -14 9 -33 22 -36 27 -6 2 13 12 22 26 24 18 3 22 -1 22
-21 0 -31 20 -33 21 -2 1 13 6 3 13 -23 11 -41 13 -43 24 -25 12 20 12 20 31
-2 11 -13 22 -23 25 -23 3 0 7 10 7 23 1 18 3 16 9 -8 l8 -30 1 33 c1 22 5 31
13 26 6 -4 17 1 24 11 12 16 14 14 23 -16 7 -27 9 -29 10 -10 1 16 5 21 16 17
11 -4 15 2 15 23 0 23 4 27 23 25 12 -1 28 -3 35 -3 6 -1 12 -10 12 -21 0 -26
16 -26 23 0 10 39 25 19 32 -41 7 -63 23 -65 26 -4 1 29 1 29 9 5 4 -14 6 -36
4 -50 -4 -24 -4 -25 5 -2 14 30 20 28 19 -5 -4 -106 5 -363 13 -363 6 0 7 20
3 50 -6 42 -4 50 10 50 8 0 18 -11 22 -25 7 -27 31 -51 41 -42 3 4 14 30 24
59 10 29 18 44 19 34 0 -19 1 -19 13 -2 11 15 13 10 10 -39 -1 -32 2 -65 7
-74 7 -12 10 -4 10 29 1 33 4 40 9 25 8 -19 9 -18 13 5 3 14 5 -22 4 -78 0
-89 2 -105 17 -114 11 -6 16 -16 12 -28 -3 -10 -1 -21 5 -25 11 -7 12 -57 0
-95 -7 -24 -7 -24 -18 10 l-10 35 -1 -37 c-1 -32 2 -38 20 -38 15 0 19 -5 15
-17 -3 -10 -8 -40 -11 -68 -5 -36 -4 -46 4 -35 6 8 11 35 11 60 1 35 3 41 10
28 13 -21 16 -95 6 -125 -5 -17 -3 -22 11 -20 14 1 18 9 17 41 0 23 -3 48 -6
56 -4 8 -9 27 -12 42 -3 14 -9 33 -12 42 -4 11 -1 16 10 16 9 0 16 7 16 15 0
9 -6 12 -15 9 -11 -5 -15 1 -15 22 1 28 1 28 15 10 15 -19 15 -19 15 2 0 12
-11 32 -25 45 l-25 23 25 22 c14 13 22 28 19 37 -4 8 -1 16 5 16 6 1 16 3 21
4 6 1 15 3 20 4 6 0 10 7 8 14 -4 22 12 55 31 60 14 3 17 0 13 -19 -2 -13 -8
-21 -13 -18 -5 3 -9 0 -9 -5 0 -18 20 -13 28 7 5 12 9 6 13 -23 7 -43 9 103
14 995 4 611 3 601 12 670 4 35 7 40 13 25 7 -18 9 -18 19 8 6 16 9 33 5 38
-3 5 0 9 5 9 6 0 11 -4 11 -9 0 -5 7 -12 16 -15 15 -6 15 -4 3 11 -8 10 -19
21 -25 25 -12 8 -7 55 7 64 6 3 7 -8 4 -25 -5 -29 9 -44 17 -19 6 18 -3 58
-13 58 -12 0 -11 47 1 88 9 35 10 61 11 462 0 286 6 511 14 518 3 3 5 -33 5
-79 0 -46 5 -115 10 -154 8 -70 24 -306 23 -357 0 -15 3 -25 7 -23 8 5 5 225
-6 475 -3 80 -5 165 -4 190 4 72 4 80 -10 188 -6 56 -10 109 -6 117 3 8 2 15
-2 15 -4 0 -7 10 -8 23 0 12 -3 51 -7 87 -5 54 -5 59 4 30 6 -19 15 -39 21
-45 7 -7 9 -6 5 1 -8 15 -40 314 -34 320 2 3 10 -36 16 -86 8 -56 17 -88 23
-84 6 4 8 -2 3 -16 -5 -16 -4 -21 6 -18 14 5 14 58 1 68 -4 3 -8 28 -9 55 -7
181 -12 256 -18 286 -5 24 -4 31 4 24 9 -9 18 -38 20 -69 1 -5 8 -3 16 4 10 8
15 9 15 2 0 -6 -7 -15 -16 -20 -13 -7 -15 -17 -10 -46 4 -21 11 -34 17 -30 7
4 8 -6 5 -28 -3 -18 -2 -49 3 -68 10 -37 10 -36 16 352 l3 176 -37 5 c-20 2
-821 5 -1780 6 l-1744 2 6 -233z m2387 12 l-7 -165 -1 185 c0 107 3 176 8 165
4 -12 5 -95 0 -185z m402 3 c1 -51 -1 -95 -5 -99 -4 -4 -7 39 -7 96 0 126 8
128 12 3z m591 7 c3 -11 1 -18 -4 -14 -5 3 -9 12 -9 20 0 20 7 17 13 -6z
m-486 -117 c-3 -10 -5 -2 -5 17 0 19 2 27 5 18 2 -10 2 -26 0 -35z m489 0 c1
-10 5 -34 8 -53 11 -51 9 -114 -3 -118 -6 -2 -11 -11 -10 -20 0 -11 2 -12 6
-4 9 23 21 12 21 -20 1 -74 13 -277 20 -328 4 -30 5 -66 1 -80 l-6 -25 -7 30
c-4 17 -12 40 -18 52 -6 13 -11 54 -11 93 0 41 -4 66 -8 58 -5 -7 -9 45 -9
119 0 95 3 133 13 137 10 5 10 7 0 12 -7 3 -13 20 -13 37 0 24 3 28 10 17 6
-9 10 -10 10 -3 0 6 -4 14 -8 17 -11 6 -13 96 -3 96 4 0 7 -8 7 -17z m101 -85
c-3 -7 -5 -2 -5 12 0 14 2 19 5 13 2 -7 2 -19 0 -25z m53 -6 c0 -15 -2 -15
-10 -2 -13 20 -13 33 0 25 6 -3 10 -14 10 -23z m-2956 -297 c4 -67 3 -114 -2
-107 -8 12 -17 241 -9 232 2 -3 7 -59 11 -125z m2885 -15 c0 -10 -3 -8 -9 5
-12 27 -12 43 0 25 5 -8 9 -22 9 -30z m-2932 -30 c0 -19 -4 -27 -10 -21 -5 5
-6 18 -2 30 9 29 12 26 12 -9z m-290 -42 c-3 -8 -6 -5 -6 6 -1 11 2 17 5 13 3
-3 4 -12 1 -19z m-60 -10 c-3 -8 -6 -5 -6 6 -1 11 2 17 5 13 3 -3 4 -12 1 -19z
m3190 -50 c-3 -8 -6 -5 -6 6 -1 11 2 17 5 13 3 -3 4 -12 1 -19z m-2850 -25
c-3 -10 -5 -4 -5 12 0 17 2 24 5 18 2 -7 2 -21 0 -30z m30 -25 c-3 -7 -5 -2
-5 12 0 14 2 19 5 13 2 -7 2 -19 0 -25z m-108 -133 c0 -23 -2 -26 -9 -15 -5 8
-9 33 -9 55 1 35 2 37 9 15 4 -14 8 -38 9 -55z m2898 -26 c1 -21 -1 -39 -5
-39 -4 0 -8 21 -10 47 -2 26 0 44 5 40 4 -5 9 -26 10 -48z m-2777 6 c0 -19 -2
-35 -4 -35 -2 0 -6 16 -8 35 -2 19 0 35 4 35 4 0 8 -16 8 -35z m77 -92 c-2
-16 -4 -5 -4 22 0 28 2 40 4 28 2 -13 2 -35 0 -50z m2699 -21 c-11 -10 -14 3
-8 33 l7 30 3 -28 c2 -16 1 -31 -2 -35z m-156 -28 c0 -10 -3 -56 -6 -102 -5
-64 -3 -87 8 -100 14 -17 14 -29 3 -132 -4 -30 -10 -158 -14 -285 -7 -210 -7
-191 -8 213 -1 278 3 440 9 434 5 -5 9 -18 8 -28z m137 -31 c-3 -10 -5 -4 -5
12 0 17 2 24 5 18 2 -7 2 -21 0 -30z m0 -65 c-3 -8 -6 -5 -6 6 -1 11 2 17 5
13 3 -3 4 -12 1 -19z m26 -33 c-3 -9 -8 -14 -10 -11 -3 3 -2 9 2 15 9 16 15
13 8 -4z m-26 -57 c-3 -8 -6 -5 -6 6 -1 11 2 17 5 13 3 -3 4 -12 1 -19z m0
-50 c-3 -8 -6 -5 -6 6 -1 11 2 17 5 13 3 -3 4 -12 1 -19z m-67 -223 c-5 -73
-6 -77 -14 -42 -5 21 -6 58 -3 82 3 31 0 48 -9 56 -12 10 -14 0 -14 -54 0 -36
-5 -69 -11 -72 -7 -5 -9 8 -5 41 2 27 5 63 5 81 1 25 5 31 16 27 11 -5 14 -1
10 12 -4 11 2 3 12 -16 16 -29 18 -49 13 -115z m27 -27 c-2 -13 -4 -5 -4 17
-1 22 1 32 4 23 2 -10 2 -28 0 -40z m-80 -175 c-2 -32 -3 -8 -3 52 0 61 1 87
3 58 2 -29 2 -78 0 -110z m140 -450 c-3 -10 -5 -4 -5 12 0 17 2 24 5 18 2 -7
2 -21 0 -30z m-202 -680 c2 -32 6 -71 9 -88 5 -23 4 -25 -3 -10 -8 19 -9 18
-16 -8 -4 -16 -3 -33 4 -41 11 -13 9 -111 -2 -122 -5 -5 -23 97 -29 167 -2 20
2 41 9 48 8 7 10 23 7 41 -7 31 3 86 13 77 3 -3 7 -32 8 -64z m-52 -263 c-3
-12 -8 -19 -11 -16 -5 6 5 36 12 36 2 0 2 -9 -1 -20z m168 -13 c-6 -6 -7 -15
-2 -21 5 -6 3 -29 -4 -51 l-13 -40 3 50 c4 58 16 106 23 86 2 -7 -1 -18 -7
-24z m-129 -49 c-8 -8 -9 -4 -5 13 4 13 8 18 11 10 2 -7 -1 -18 -6 -23z m-43
-40 c0 -35 -2 -39 -9 -21 -8 19 -3 63 6 63 2 0 4 -19 3 -42z m55 -95 c3 -38 4
-79 1 -93 -2 -14 -4 -28 -4 -32 -1 -5 -8 -8 -17 -8 -12 0 -14 5 -8 18 4 9 8
54 9 99 0 46 3 83 6 83 4 0 10 -30 13 -67z m-37 5 c-3 -7 -5 -2 -5 12 0 14 2
19 5 13 2 -7 2 -19 0 -25z m240 -60 c-3 -8 -6 -5 -6 6 -1 11 2 17 5 13 3 -3 4
-12 1 -19z m-261 -24 c-4 -9 -9 -15 -11 -12 -3 3 -3 13 1 22 4 9 9 15 11 12 3
-3 3 -13 -1 -22z m24 -19 c0 -8 -4 -15 -10 -15 -5 0 -7 7 -4 15 4 8 8 15 10
15 2 0 4 -7 4 -15z m227 -57 c-2 -13 -4 -5 -4 17 -1 22 1 32 4 23 2 -10 2 -28
0 -40z m-1262 -117 c3 -5 1 -12 -4 -15 -5 -3 -11 1 -15 9 -6 16 9 21 19 6z
m1068 -62 c-5 -5 -8 3 -7 19 3 37 6 41 11 13 3 -13 1 -27 -4 -32z m-6 -101
c-3 -8 -6 -5 -6 6 -1 11 2 17 5 13 3 -3 4 -12 1 -19z m96 -128 c4 -56 3 -65
-3 -35 -9 40 -13 122 -6 114 2 -2 6 -38 9 -79z m33 33 c-10 -26 -18 -8 -9 23
5 21 8 24 11 11 2 -10 1 -25 -2 -34z m-89 -35 c-2 -13 -4 -3 -4 22 0 25 2 35
4 23 2 -13 2 -33 0 -45z m-147 21 c6 -10 7 -19 2 -19 -5 0 -14 12 -20 26 -14
29 2 24 18 -7z m235 -19 c3 -5 1 -10 -4 -10 -6 0 -11 5 -11 10 0 6 2 10 4 10
3 0 8 -4 11 -10z m0 -146 c-4 -43 -15 -58 -15 -21 0 24 9 57 15 57 2 0 2 -16
0 -36z m-35 -88 c0 -2 -7 -6 -15 -10 -8 -3 -15 -1 -15 4 0 6 7 10 15 10 8 0
15 -2 15 -4z"/>
<path d="M5272 6450 c0 -14 2 -19 5 -12 2 6 2 18 0 25 -3 6 -5 1 -5 -13z"/>
<path d="M5677 7064 c-4 -4 -4 -892 0 -1973 l6 -1966 24 -18 c23 -18 23 -19
23 -250 0 -128 3 -451 7 -719 5 -397 9 -488 20 -488 8 0 13 12 13 30 l0 30
1629 0 1629 0 67 -30 c37 -17 73 -30 81 -30 12 0 14 105 12 718 l-3 717 -157
3 -158 3 0 1981 c0 1090 -3 1984 -6 1987 -8 9 -3178 14 -3187 5z m2903 -79
l205 -5 6 -287 c4 -159 5 -502 4 -763 -2 -261 -3 -1007 -4 -1657 l-2 -1183
-133 0 c-73 0 -136 3 -139 7 -4 3 -1 13 6 22 8 9 17 25 21 36 7 18 5 18 -17
-3 -18 -17 -43 -25 -108 -32 -92 -11 -369 -12 -464 -1 l-60 6 -48 99 c-38 77
-45 101 -35 107 7 5 54 9 105 9 95 0 123 5 123 22 0 7 -5 6 -13 -1 -9 -6 -83
-12 -198 -13 -177 -3 -184 -4 -182 -23 2 -11 4 -38 6 -60 2 -22 6 -45 9 -51 4
-5 4 -29 1 -52 -8 -56 -36 -55 -41 0 -3 38 -3 38 -45 34 -25 -2 -41 -7 -40
-14 2 -8 -12 -12 -38 -12 -24 0 -38 4 -34 10 3 6 -1 10 -9 10 -12 0 -16 -11
-16 -50 l0 -50 -34 0 c-34 0 -34 0 -26 33 10 36 9 77 -2 77 -4 0 -8 -17 -10
-37 -3 -38 -4 -38 -47 -39 -29 0 -48 -6 -56 -17 -10 -14 -28 -17 -91 -16 -59
0 -72 3 -51 9 15 5 43 7 62 4 25 -3 33 -1 30 8 -3 8 -24 13 -54 13 -27 0 -51
2 -54 5 -3 3 -7 53 -9 112 -4 92 -2 108 11 111 9 3 1 5 -16 6 -27 1 -33 -3
-33 -19 0 -15 -7 -20 -28 -20 -28 0 -29 -1 -32 -67 -2 -38 -4 -89 -5 -115 l0
-48 -62 0 c-34 0 -64 4 -68 9 -3 5 3 24 14 43 10 18 22 44 25 58 4 14 -3 7
-14 -16 -12 -23 -33 -47 -48 -54 -31 -15 -454 -27 -545 -16 l-53 7 -49 100
c-42 84 -47 101 -35 109 8 5 75 10 148 11 72 1 137 3 142 4 6 1 13 3 16 4 3 0
2 6 -2 12 -4 8 -9 8 -17 0 -7 -7 -63 -11 -148 -11 -163 0 -170 -4 -145 -77 35
-102 25 -107 -229 -100 l-190 5 0 743 0 744 115 6 115 5 -117 2 -118 2 0 1155
0 1155 1008 2 c1089 3 1523 2 1842 -7z m-850 -3815 c0 -5 7 -10 15 -10 22 0
18 -31 -5 -37 -19 -5 -20 -6 -3 -19 16 -12 14 -13 -19 -14 -21 0 -38 5 -38 10
0 6 6 10 13 10 9 0 8 3 -2 9 -21 13 -6 61 19 61 11 0 20 -4 20 -10z m-1680
-20 c0 -5 -12 -10 -27 -9 l-28 1 25 8 c14 4 26 8 28 9 1 1 2 -3 2 -9z m68 -40
c12 -20 10 -20 -185 -18 l-198 2 160 6 c99 3 168 10 180 17 27 16 28 16 43 -7z
m1478 6 c10 -8 29 -12 42 -9 13 3 22 1 22 -6 0 -7 -20 -11 -50 -11 -43 0 -50
3 -50 20 0 24 9 25 36 6z m-241 -16 c4 -6 -10 -10 -34 -10 -23 0 -41 5 -41 10
0 6 15 10 34 10 19 0 38 -4 41 -10z m1704 -69 c11 -11 22 -17 25 -14 6 7 10
-223 9 -512 -1 -99 -2 -300 -2 -447 l-1 -268 -1660 0 -1660 0 0 623 c0 343 3
627 7 630 4 4 739 7 1635 7 1581 -1 1629 -1 1647 -19z"/>
<path d="M8418 5049 c17 -5 32 -15 32 -22 0 -8 4 -7 10 3 16 26 11 30 -32 29
l-43 -1 33 -9z"/>
<path d="M6400 4680 l-285 -5 249 -3 c163 -1 261 -6 283 -14 34 -12 47 -8 41
14 -2 11 -56 12 -288 8z"/>
<path d="M8093 3599 c-16 -16 -17 -49 -2 -49 5 0 8 4 5 9 -4 5 -1 11 5 13 6 2
10 12 8 21 -3 15 -6 16 -16 6z"/>
<path d="M6470 3585 c0 -8 5 -15 10 -15 6 0 10 7 10 15 0 8 -4 15 -10 15 -5 0
-10 -7 -10 -15z"/>
<path d="M8130 3590 c0 -5 5 -10 11 -10 5 0 7 5 4 10 -3 6 -8 10 -11 10 -2 0
-4 -4 -4 -10z"/>
<path d="M6420 3564 c0 -8 5 -12 10 -9 6 3 10 10 10 16 0 5 -4 9 -10 9 -5 0
-10 -7 -10 -16z"/>
<path d="M7970 3570 c0 -5 7 -10 15 -10 8 0 15 5 15 10 0 6 -7 10 -15 10 -8 0
-15 -4 -15 -10z"/>
<path d="M7242 3396 c4 -22 1 -25 -41 -32 -43 -7 -44 -8 -16 -13 21 -4 30 -12
30 -26 0 -11 5 -26 12 -32 25 -27 33 -13 33 57 0 45 -4 70 -11 70 -7 0 -9 -10
-7 -24z"/>
<path d="M7360 3375 c0 -14 3 -25 8 -25 4 0 7 11 7 25 0 14 -3 25 -7 25 -5 0
-8 -11 -8 -25z"/>
<path d="M6558 3343 c39 -2 105 -2 145 0 39 1 7 3 -73 3 -80 0 -112 -2 -72 -3z"/>
<path d="M8058 3343 c7 -3 16 -2 19 1 4 3 -2 6 -13 5 -11 0 -14 -3 -6 -6z"/>
<path d="M8138 3343 c23 -2 59 -2 80 0 20 2 1 4 -43 4 -44 0 -61 -2 -37 -4z"/>
<path d="M7260 3255 c0 -8 5 -15 10 -15 6 0 10 7 10 15 0 8 -4 15 -10 15 -5 0
-10 -7 -10 -15z"/>
<path d="M7511 3251 c-14 -25 -14 -48 0 -56 14 -9 20 -2 24 34 5 36 -10 50
-24 22z"/>
<path d="M5392 6610 c0 -14 2 -19 5 -12 2 6 2 18 0 25 -3 6 -5 1 -5 -13z"/>
<path d="M5432 6390 c0 -19 2 -27 5 -17 2 9 2 25 0 35 -3 9 -5 1 -5 -18z"/>
<path d="M5386 6333 c-3 -3 2 -22 10 -41 8 -20 17 -52 19 -72 3 -19 9 -48 14
-65 7 -24 9 -12 9 55 1 47 -3 94 -7 104 -7 19 -34 30 -45 19z"/>
<path d="M1961 6284 c0 -11 3 -14 6 -6 3 7 2 16 -1 19 -3 4 -6 -2 -5 -13z"/>
<path d="M5382 6205 c0 -11 4 -33 8 -50 7 -27 8 -27 8 -5 0 14 -4 36 -8 50 -6
20 -8 21 -8 5z"/>
<path d="M5402 6080 c0 -19 2 -27 5 -17 2 9 2 25 0 35 -3 9 -5 1 -5 -18z"/>
<path d="M5432 6050 c0 -14 2 -19 5 -12 2 6 2 18 0 25 -3 6 -5 1 -5 -13z"/>
<path d="M2350 5850 c0 -13 12 -19 26 -13 21 8 17 22 -6 20 -11 -1 -20 -4 -20
-7z"/>
<path d="M2284 5425 c-3 -8 -4 -20 -2 -27 3 -7 7 -1 10 15 6 29 1 36 -8 12z"/>
<path d="M2280 5361 c0 -5 5 -13 10 -16 6 -3 10 -2 10 4 0 5 -4 13 -10 16 -5
3 -10 2 -10 -4z"/>
<path d="M2293 5075 c0 -38 2 -53 4 -32 2 20 2 52 0 70 -2 17 -4 1 -4 -38z"/>
<path d="M5404 5118 c-4 -7 -7 -190 -7 -407 2 -467 2 -456 8 -449 5 5 19 367
16 413 -1 11 -2 118 -3 238 -1 119 -3 217 -4 217 -2 0 -6 -5 -10 -12z"/>
<path d="M2050 5070 c0 -5 5 -10 11 -10 5 0 7 5 4 10 -3 6 -8 10 -11 10 -2 0
-4 -4 -4 -10z"/>
<path d="M1985 5050 c3 -5 11 -10 16 -10 6 0 7 5 4 10 -3 6 -11 10 -16 10 -6
0 -7 -4 -4 -10z"/>
<path d="M2046 5023 c-14 -4 -16 -7 -6 -13 10 -6 8 -15 -11 -38 -13 -17 -30
-31 -36 -31 -14 -1 -19 -81 -5 -81 12 0 54 70 49 83 -2 7 3 17 11 23 8 6 16
23 17 37 2 15 3 26 2 26 -1 -1 -11 -4 -21 -6z"/>
<path d="M2060 4950 c-25 -54 -32 -90 -18 -90 5 0 14 12 21 27 l12 27 6 -30
c4 -19 7 -4 8 44 0 39 0 72 -2 72 -2 0 -14 -23 -27 -50z"/>
<path d="M2000 4846 c0 -2 8 -10 18 -17 15 -13 16 -12 3 4 -13 16 -21 21 -21
13z"/>
<path d="M2280 4831 c0 -5 5 -13 10 -16 6 -3 10 -2 10 4 0 5 -4 13 -10 16 -5
3 -10 2 -10 -4z"/>
<path d="M1901 4638 c0 -106 3 -187 6 -180 4 10 9 9 19 -5 13 -17 14 -17 8 2
-5 18 -3 17 15 -4 l21 -23 0 25 c0 19 -6 27 -22 30 -22 4 -22 4 -2 6 17 1 22
9 28 47 12 87 7 142 -13 161 -28 27 -51 77 -45 100 3 12 1 24 -5 27 -8 5 -11
-49 -10 -186z"/>
<path d="M2280 4779 c0 -11 4 -18 10 -14 5 3 7 12 3 20 -7 21 -13 19 -13 -6z"/>
<path d="M2082 4670 c0 -19 2 -27 5 -17 2 9 2 25 0 35 -3 9 -5 1 -5 -18z"/>
<path d="M2280 4674 c0 -8 5 -12 10 -9 6 4 8 11 5 16 -9 14 -15 11 -15 -7z"/>
<path d="M5307 4553 c-3 -16 0 -31 6 -35 9 -6 9 -8 0 -8 -7 0 -13 -5 -13 -11
0 -8 5 -8 15 1 12 10 13 16 4 26 -8 10 -8 14 0 14 6 0 11 9 11 20 0 30 -17 24
-23 -7z"/>
<path d="M2083 4480 c-1 -46 3 -78 8 -74 11 7 12 124 1 142 -5 7 -9 -23 -9
-68z"/>
<path d="M2280 4455 c0 -8 2 -15 4 -15 2 0 6 7 10 15 3 8 1 15 -4 15 -6 0 -10
-7 -10 -15z"/>
<path d="M5291 4451 c-8 -14 -7 -22 6 -32 14 -12 16 -12 11 2 -4 9 -2 21 4 27
6 6 6 12 -1 16 -5 4 -15 -2 -20 -13z"/>
<path d="M2141 4394 c0 -11 3 -14 6 -6 3 7 2 16 -1 19 -3 4 -6 -2 -5 -13z"/>
<path d="M5279 4408 c-1 -2 -3 -22 -5 -45 -3 -34 0 -45 15 -53 14 -7 20 -6 24
4 4 10 0 12 -14 9 -22 -6 -23 -1 -10 44 6 20 6 35 0 38 -5 4 -9 5 -10 3z"/>
<path d="M2080 4333 c0 -23 5 -45 10 -48 13 -8 13 55 0 75 -7 11 -10 4 -10
-27z"/>
<path d="M2132 4340 c0 -14 2 -19 5 -12 2 6 2 18 0 25 -3 6 -5 1 -5 -13z"/>
<path d="M1902 4320 c2 -20 8 -34 14 -33 7 1 10 -5 7 -16 -5 -19 22 -48 31
-33 9 14 -24 73 -36 66 -7 -4 -8 -2 -4 4 4 7 2 20 -4 29 -8 15 -10 12 -8 -17z"/>
<path d="M2256 4269 c-4 -26 -8 -64 -9 -85 0 -22 -7 -45 -15 -53 -7 -8 -11
-23 -8 -34 6 -25 -10 -57 -29 -57 -8 0 -15 -4 -15 -10 0 -12 -2 -12 38 -1 28
8 32 7 32 -8 0 -10 6 -24 13 -30 10 -8 19 -4 35 19 12 16 22 35 21 42 0 7 -5
2 -12 -12 l-11 -25 -4 33 c-2 18 1 39 6 45 17 20 52 122 44 125 -5 1 -6 17 -4
35 6 41 -2 34 -22 -23 -10 -25 -14 -32 -11 -15 17 83 17 95 2 95 -10 0 -13 -6
-10 -20 4 -15 2 -19 -10 -14 -9 3 -18 13 -20 22 -2 10 -7 -4 -11 -29z m24 -19
c0 -11 -4 -20 -9 -20 -5 0 -7 9 -4 20 3 11 7 20 9 20 2 0 4 -9 4 -20z m30
-100 c0 -5 -4 -10 -10 -10 -5 0 -10 5 -10 10 0 6 5 10 10 10 6 0 10 -4 10 -10z
m-30 -140 c0 -5 -5 -10 -11 -10 -5 0 -7 5 -4 10 3 6 8 10 11 10 2 0 4 -4 4
-10z"/>
<path d="M5290 4274 c0 -8 5 -12 10 -9 6 4 8 11 5 16 -9 14 -15 11 -15 -7z"/>
<path d="M5432 4270 c0 -14 2 -19 5 -12 2 6 2 18 0 25 -3 6 -5 1 -5 -13z"/>
<path d="M2122 4250 c0 -14 2 -19 5 -12 2 6 2 18 0 25 -3 6 -5 1 -5 -13z"/>
<path d="M1900 4086 c0 -106 4 -175 9 -171 5 3 11 -3 14 -12 2 -11 7 -3 11 20
6 26 4 42 -5 54 -11 13 -11 15 -1 9 10 -6 11 -1 6 20 -5 19 -4 25 4 20 8 -5
10 -2 6 8 -3 9 -2 16 4 16 6 0 12 -6 14 -12 3 -7 5 10 5 37 1 42 0 45 -7 20
-6 -26 -8 -23 -8 20 0 35 -8 65 -26 99 l-26 49 0 -177z m40 82 c0 -6 -7 -5
-15 2 -8 7 -15 17 -15 22 0 6 7 5 15 -2 8 -7 15 -17 15 -22z"/>
<path d="M2148 4244 c-3 -5 -8 -22 -12 -38 -6 -26 -5 -28 8 -17 14 12 16 10
16 -16 0 -39 -9 -47 -31 -27 -16 15 -17 14 -12 -5 3 -12 9 -21 14 -21 5 0 6
-6 3 -14 -3 -8 -1 -17 4 -20 10 -6 33 37 37 71 4 25 -20 100 -27 87z"/>
<path d="M5284 4239 c-3 -6 -2 -15 4 -21 6 -6 11 -2 15 11 5 22 -7 29 -19 10z"/>
<path d="M5385 4208 c-4 -18 -12 -39 -18 -46 -12 -16 -2 -150 15 -187 10 -22
9 -31 -6 -56 -15 -25 -17 -44 -12 -102 3 -40 6 -96 6 -125 0 -29 4 -51 9 -48
5 3 7 16 4 29 -3 12 -3 19 0 16 11 -10 14 -53 6 -77 -5 -14 -5 -21 0 -17 5 3
12 -3 14 -12 5 -18 0 349 -7 522 -2 49 0 100 5 112 5 13 5 23 0 23 -5 0 -13
-15 -16 -32z"/>
<path d="M1956 4195 c4 -8 8 -15 10 -15 2 0 4 7 4 15 0 8 -4 15 -10 15 -5 0
-7 -7 -4 -15z"/>
<path d="M2202 4190 c-25 -24 -27 -30 -9 -30 8 0 19 11 25 25 14 30 12 31 -16
5z"/>
<path d="M2401 4184 c0 -11 3 -14 6 -6 3 7 2 16 -1 19 -3 4 -6 -2 -5 -13z"/>
<path d="M5431 4154 c0 -11 3 -14 6 -6 3 7 2 16 -1 19 -3 4 -6 -2 -5 -13z"/>
<path d="M2483 4070 c0 -25 2 -35 4 -22 2 12 2 32 0 45 -2 12 -4 2 -4 -23z"/>
<path d="M5431 4094 c0 -11 3 -14 6 -6 3 7 2 16 -1 19 -3 4 -6 -2 -5 -13z"/>
<path d="M2392 4070 c0 -14 2 -19 5 -12 2 6 2 18 0 25 -3 6 -5 1 -5 -13z"/>
<path d="M2482 4000 c0 -14 2 -19 5 -12 2 6 2 18 0 25 -3 6 -5 1 -5 -13z"/>
<path d="M2552 3988 c-7 -7 -12 -21 -12 -32 0 -17 2 -18 10 -6 6 10 9 5 8 -19
-1 -31 -2 -32 -15 -16 -11 16 -13 16 -13 3 0 -9 7 -18 14 -21 10 -4 16 -25 19
-64 2 -32 4 -9 5 55 1 61 1 112 -1 112 -2 0 -8 -5 -15 -12z"/>
<path d="M2130 3971 c-13 -25 -13 -62 1 -81 8 -12 9 -9 5 11 -3 14 -1 40 4 57
10 36 6 41 -10 13z"/>
<path d="M1955 3961 c-3 -5 -1 -12 5 -16 5 -3 10 1 10 9 0 18 -6 21 -15 7z"/>
<path d="M2195 3960 c3 -5 8 -10 11 -10 2 0 4 5 4 10 0 6 -5 10 -11 10 -5 0
-7 -4 -4 -10z"/>
<path d="M2270 3913 c0 -13 5 -23 10 -23 13 0 13 11 0 30 -8 12 -10 11 -10 -7z"/>
<path d="M5338 3839 c-2 -45 0 -86 4 -93 4 -6 8 31 8 82 0 50 -2 92 -4 92 -3
0 -6 -36 -8 -81z"/>
<path d="M2272 3855 c0 -16 2 -22 5 -12 2 9 2 23 0 30 -3 6 -5 -1 -5 -18z"/>
<path d="M2532 3860 c0 -14 2 -19 5 -12 2 6 2 18 0 25 -3 6 -5 1 -5 -13z"/>
<path d="M1904 3846 c-3 -8 -4 -31 -2 -52 3 -36 4 -35 8 14 5 53 4 63 -6 38z"/>
<path d="M2123 3837 c0 -15 3 -24 8 -21 5 3 9 -4 9 -15 0 -31 14 -25 28 11 12
34 7 52 -8 28 -8 -13 -11 -12 -23 4 -14 19 -14 19 -14 -7z"/>
<path d="M2091 3804 c0 -11 3 -14 6 -6 3 7 2 16 -1 19 -3 4 -6 -2 -5 -13z"/>
<path d="M2237 3813 c-11 -10 -8 -25 3 -18 6 4 5 -5 -2 -20 -6 -15 -23 -33
-37 -41 -24 -14 -24 -15 -3 -11 14 3 25 -1 31 -11 9 -15 10 -15 16 3 4 11 11
29 16 40 6 15 7 12 2 -10 -8 -40 -23 -59 -37 -45 -5 5 -14 10 -20 10 -5 0 -1
-7 10 -15 18 -14 17 -16 -8 -19 -6 0 -13 -7 -16 -14 -5 -15 25 -6 49 15 9 7
24 11 34 7 14 -6 16 -3 10 14 -3 12 -2 22 3 22 14 0 1 54 -14 63 -8 4 -14 15
-14 22 0 16 -12 20 -23 8z"/>
<path d="M1930 3800 c0 -5 5 -10 11 -10 5 0 7 5 4 10 -3 6 -8 10 -11 10 -2 0
-4 -4 -4 -10z"/>
<path d="M2161 3714 c0 -11 3 -14 6 -6 3 7 2 16 -1 19 -3 4 -6 -2 -5 -13z"/>
<path d="M2136 3675 c-3 -9 -5 -38 -5 -63 2 -47 2 -47 9 13 8 62 7 78 -4 50z"/>
<path d="M2249 3642 c-12 -11 -24 -29 -26 -42 -3 -22 -2 -23 15 -7 10 9 23 17
29 17 9 0 9 -12 -1 -103 -1 -15 3 -35 10 -45 11 -14 13 -8 11 45 -2 35 0 64 3
65 9 4 -1 88 -10 88 -4 0 -18 -8 -31 -18z m21 -9 c-8 -3 -22 -11 -30 -17 -13
-10 -13 -9 -1 7 7 9 21 17 30 16 13 0 14 -1 1 -6z"/>
<path d="M5335 3640 c-3 -5 -1 -10 4 -10 6 0 11 5 11 10 0 6 -2 10 -4 10 -3 0
-8 -4 -11 -10z"/>
<path d="M1907 3603 c-4 -3 -7 -13 -7 -22 1 -13 3 -13 11 2 11 19 8 33 -4 20z"/>
<path d="M2245 3579 c-11 -17 1 -21 15 -4 8 9 8 15 2 15 -6 0 -14 -5 -17 -11z"/>
<path d="M5431 3574 c0 -11 3 -14 6 -6 3 7 2 16 -1 19 -3 4 -6 -2 -5 -13z"/>
<path d="M5341 3570 c-1 -3 -4 -27 -6 -54 -2 -32 0 -45 6 -39 6 6 9 30 6 54
-2 24 -5 42 -6 39z"/>
<path d="M5382 3545 c0 -16 2 -22 5 -12 2 9 2 23 0 30 -3 6 -5 -1 -5 -18z"/>
<path d="M1902 3470 c0 -14 2 -19 5 -12 2 6 2 18 0 25 -3 6 -5 1 -5 -13z"/>
<path d="M2480 3473 c0 -9 10 -28 23 -42 19 -22 19 -23 1 -8 l-20 17 -2 -226
c-2 -194 0 -228 14 -241 13 -14 17 -14 25 -2 13 21 11 143 -3 157 -10 10 -10
14 -1 20 19 12 15 143 -5 158 -9 6 -12 16 -7 24 6 10 9 9 16 -1 6 -10 9 -10 9
-2 0 6 -4 15 -10 18 -5 3 -10 11 -10 16 0 6 5 7 11 4 6 -5 9 9 8 39 -2 24 -6
43 -10 41 -4 -3 -10 6 -13 20 -7 28 -26 34 -26 8z"/>
<path d="M5333 3430 c1 -11 5 -20 9 -20 3 0 6 9 5 20 -1 11 -5 20 -9 20 -3 0
-6 -9 -5 -20z"/>
<path d="M5341 3384 c0 -11 3 -14 6 -6 3 7 2 16 -1 19 -3 4 -6 -2 -5 -13z"/>
<path d="M5422 3360 c0 -14 4 -36 8 -50 8 -24 8 -24 8 5 0 17 -3 39 -8 50 -8
18 -9 18 -8 -5z"/>
<path d="M2802 3323 c-15 -28 -15 -44 0 -40 7 1 17 -8 23 -20 5 -13 13 -23 18
-23 9 0 3 23 -18 75 -11 30 -12 30 -23 8z"/>
<path d="M3137 3327 c-11 -29 -9 -43 4 -30 6 6 9 19 7 29 -3 18 -4 18 -11 1z"/>
<path d="M5331 3333 c0 -4 4 -17 9 -28 8 -19 9 -19 9 2 1 12 -3 25 -9 28 -5 3
-10 3 -9 -2z"/>
<path d="M4050 3310 c0 -5 5 -10 11 -10 5 0 7 5 4 10 -3 6 -8 10 -11 10 -2 0
-4 -4 -4 -10z"/>
<path d="M3222 3290 c0 -14 2 -19 5 -12 2 6 2 18 0 25 -3 6 -5 1 -5 -13z"/>
<path d="M4461 3294 c0 -11 3 -14 6 -6 3 7 2 16 -1 19 -3 4 -6 -2 -5 -13z"/>
<path d="M4476 3278 c-12 -38 -13 -200 -2 -180 6 9 10 26 11 37 1 11 2 43 4
70 2 37 5 45 10 30 5 -11 6 -34 4 -51 -3 -18 0 -48 7 -68 13 -41 6 -63 -16
-45 -8 6 -14 10 -14 8 -1 -2 -3 -22 -6 -44 l-4 -40 17 24 c55 73 60 89 46 168
-18 104 -42 142 -57 91z"/>
<path d="M2682 3265 c0 -16 2 -22 5 -12 2 9 2 23 0 30 -3 6 -5 -1 -5 -18z"/>
<path d="M3134 3249 c3 -17 6 -43 7 -58 l0 -26 10 25 c12 29 3 90 -13 90 -6 0
-8 -12 -4 -31z"/>
<path d="M3965 3271 c-3 -5 -1 -12 5 -16 5 -3 10 1 10 9 0 18 -6 21 -15 7z"/>
<path d="M4024 3246 c-5 -11 -15 -20 -22 -19 -8 2 -10 -10 -5 -44 5 -37 3 -44
-7 -38 -9 5 -11 4 -6 -3 4 -7 11 -12 16 -12 13 0 49 81 43 98 -4 10 -2 13 5 8
7 -4 12 -1 12 7 0 24 -25 26 -36 3z"/>
<path d="M3214 3246 c-3 -8 -4 -25 -2 -38 3 -17 5 -13 9 15 5 38 2 47 -7 23z"/>
<path d="M3930 3224 c0 -14 -4 -23 -10 -19 -6 3 -10 -5 -10 -19 0 -13 -4 -26
-9 -28 -11 -4 5 -48 19 -48 5 0 11 8 11 18 2 23 2 24 -6 45 -5 13 -2 17 13 17
27 0 32 9 21 38 -11 30 -29 28 -29 -4z"/>
<path d="M3865 3219 c-4 -6 -5 -12 -2 -15 2 -3 7 2 10 11 7 17 1 20 -8 4z"/>
<path d="M5342 3151 c-1 -47 2 -81 6 -75 5 5 5 43 2 84 l-7 75 -1 -84z"/>
<path d="M3241 3202 c0 -13 -5 -31 -10 -41 -6 -10 -6 -23 -1 -31 11 -19 23 26
17 66 -3 23 -4 24 -6 6z"/>
<path d="M4551 3204 c0 -11 3 -14 6 -6 3 7 2 16 -1 19 -3 4 -6 -2 -5 -13z"/>
<path d="M3185 3167 c-4 -10 -5 -21 -1 -24 10 -10 18 4 13 24 -4 17 -4 17 -12
0z"/>
<path d="M3347 3161 c-4 -17 -3 -21 5 -13 5 5 8 16 6 23 -3 8 -7 3 -11 -10z"/>
<path d="M5431 3164 c0 -11 3 -14 6 -6 3 7 2 16 -1 19 -3 4 -6 -2 -5 -13z"/>
<path d="M2681 3105 c0 -48 3 -64 9 -50 12 27 12 87 0 105 -7 10 -10 -6 -9
-55z"/>
<path d="M2789 3102 c-3 -45 -1 -62 9 -62 14 0 15 26 3 85 -8 39 -8 39 -12
-23z"/>
<path d="M3385 3140 c-4 -7 -2 -17 4 -23 8 -8 11 -8 11 2 0 7 5 9 11 5 7 -4
10 -1 7 6 -6 18 -25 24 -33 10z"/>
<path d="M4658 3113 c5 -21 7 -23 10 -9 2 10 0 22 -6 28 -6 6 -7 0 -4 -19z"/>
<path d="M2241 3124 c-1 -6 8 -40 19 -75 14 -44 17 -65 9 -69 -6 -4 -10 -10
-10 -14 1 -3 1 -8 0 -11 0 -3 -1 -18 -1 -35 0 -56 2 -66 16 -86 24 -33 14 176
-12 246 -11 30 -21 50 -21 44z"/>
<path d="M2846 2980 c3 -85 8 -157 10 -160 8 -8 2 246 -6 281 -5 20 -7 -30 -4
-121z"/>
<path d="M3360 3112 c0 -18 -4 -22 -19 -17 -17 5 -21 0 -26 -38 -8 -53 -3 -99
10 -95 6 2 11 21 11 43 3 79 4 81 13 66 10 -15 6 -87 -8 -144 -8 -32 -7 -38 6
-33 8 3 17 6 19 6 2 0 4 9 4 21 0 11 5 17 10 14 6 -4 8 -11 4 -16 -3 -6 -3
-17 1 -27 5 -14 7 -14 16 -2 8 13 10 13 19 0 8 -11 9 10 7 72 -3 55 -10 94
-20 108 -10 14 -16 17 -19 9 -3 -8 -9 -9 -17 -5 -10 7 -10 10 -1 16 9 6 10 12
1 26 -10 18 -10 17 -11 -4z m47 -114 c-3 -7 -5 -2 -5 12 0 14 2 19 5 13 2 -7
2 -19 0 -25z m0 -60 c-3 -7 -5 -2 -5 12 0 14 2 19 5 13 2 -7 2 -19 0 -25z"/>
<path d="M3292 3085 c0 -16 2 -22 5 -12 2 9 2 23 0 30 -3 6 -5 -1 -5 -18z"/>
<path d="M3184 3086 c-3 -8 -4 -29 -2 -48 3 -29 4 -27 8 15 5 48 3 58 -6 33z"/>
<path d="M3464 3087 c-7 -18 2 -476 10 -484 3 -3 6 9 6 28 1 19 1 86 1 150 1
92 4 116 15 116 11 0 14 -27 14 -141 0 -95 3 -136 10 -126 8 13 10 12 10 -4 0
-15 3 -16 15 -6 13 11 15 8 15 -13 0 -29 20 -48 21 -20 0 10 8 1 19 -22 15
-31 19 -35 19 -17 1 31 17 28 27 -5 10 -36 11 -43 13 -76 2 -57 21 -14 21 48
0 60 12 91 23 63 4 -10 6 -10 6 0 1 7 6 10 13 6 8 -5 9 -2 5 10 -4 10 -7 27
-7 39 0 16 -3 18 -9 8 -20 -32 -29 46 -16 142 6 43 5 61 -4 66 -8 5 -10 18 -5
37 l7 29 13 -30 c12 -28 18 -76 28 -201 2 -28 8 -60 14 -71 8 -15 8 -23 -1
-33 -10 -10 -9 -12 5 -7 17 6 28 -10 28 -43 0 -10 9 -37 20 -61 11 -24 19 -57
19 -74 l0 -30 -13 36 c-7 19 -20 46 -29 60 -9 13 -17 33 -17 44 0 16 -2 17
-10 5 -5 -8 -10 -10 -11 -5 -1 6 -3 15 -4 20 -2 6 -3 19 -4 30 -2 18 -4 17
-12 -5 -6 -14 -7 -40 -4 -58 4 -23 3 -32 -4 -27 -6 3 -11 1 -11 -4 0 -6 4 -11
10 -11 5 0 7 -6 4 -13 -3 -8 2 -19 10 -26 20 -17 29 2 22 47 l-5 37 13 -30 c8
-18 11 -36 6 -45 -5 -9 -4 -37 1 -64 9 -47 19 -73 19 -48 0 7 5 12 10 12 6 0
8 -12 5 -27 -4 -21 -3 -23 3 -9 6 14 11 16 16 8 4 -7 10 -10 14 -8 4 2 8 -12
10 -32 1 -21 7 -38 12 -40 6 -2 10 -50 10 -112 0 -92 -3 -114 -22 -149 -12
-22 -23 -39 -26 -37 -2 2 1 13 7 24 6 12 11 29 11 39 0 10 -11 -2 -24 -27 -27
-51 -54 -69 -34 -23 7 15 18 37 24 48 7 11 10 32 7 48 -8 39 -20 33 -15 -8 3
-21 0 -35 -7 -35 -6 0 -11 -9 -11 -20 0 -33 -16 -23 -27 18 -11 36 -11 36 -6
-14 6 -56 -11 -83 -26 -42 -4 13 -12 22 -17 20 -5 -1 -10 6 -12 18 -2 11 -8
20 -14 20 -6 0 -8 -10 -4 -25 4 -14 2 -25 -3 -25 -5 0 -12 -11 -15 -25 -4 -14
-11 -23 -16 -20 -6 3 -10 2 -10 -2 0 -5 -9 -9 -20 -10 -11 -1 -20 3 -20 10 0
8 -3 8 -12 -1 -16 -16 -28 -15 -24 1 1 6 1 9 -1 5 -11 -20 -25 -5 -20 20 3 15
2 43 -3 62 -6 28 -8 17 -9 -52 -1 -89 -14 -122 -25 -67 -3 18 -6 99 -6 182 0
83 -3 148 -6 144 -4 -3 -6 -79 -5 -169 1 -90 -3 -169 -8 -176 -14 -22 -20 8
-15 79 2 47 1 60 -7 49 -8 -11 -9 -5 -6 25 3 22 8 48 12 58 4 9 3 17 -2 17 -7
0 -53 -212 -53 -245 0 -6 78 -9 203 -8 471 4 453 3 436 16 -9 7 -14 19 -12 27
3 11 1 10 -10 -2 -18 -23 -30 -23 -49 0 -12 14 -14 28 -7 77 5 33 9 68 10 79
0 17 1 17 13 1 10 -14 12 -1 11 72 0 48 3 96 7 105 5 9 4 19 -2 23 -5 3 -10
-3 -10 -14 0 -12 -5 -21 -11 -21 -6 0 -8 7 -5 16 5 12 2 15 -11 9 -14 -5 -13
-2 4 14 21 20 21 22 6 52 -12 24 -13 33 -3 39 9 5 9 13 1 27 -8 15 -7 25 4 39
13 17 14 18 15 2 0 -10 -6 -18 -12 -19 -7 0 -4 -4 7 -9 29 -12 36 -12 34 3 -3
23 1 37 11 37 6 0 10 -14 10 -31 0 -28 -3 -31 -25 -26 -25 4 -26 3 -23 -49 3
-51 16 -75 20 -36 0 9 2 22 3 27 2 6 3 19 4 30 1 14 4 16 9 7 5 -7 7 -28 6
-47 -2 -19 1 -35 6 -35 6 0 10 41 10 95 0 82 -3 98 -20 115 -11 11 -20 25 -20
31 0 6 -9 8 -20 4 -11 -4 -20 -3 -19 2 4 21 -3 31 -21 36 -17 4 -20 0 -20 -29
0 -53 -15 -40 -16 14 -2 82 -7 112 -18 112 -7 0 -11 22 -10 60 1 33 -2 60 -7
60 -5 0 -9 -12 -9 -27 l-1 -28 -15 25 -15 25 5 -25 c9 -42 -27 -69 -37 -28 -5
16 -3 18 6 9 6 -6 16 -11 21 -11 20 0 -13 23 -35 24 -20 1 -25 9 -35 66 -24
126 -47 209 -56 204 -5 -3 -15 1 -21 10 -10 13 -13 -9 -15 -106 -2 -68 -8
-127 -13 -133 -12 -12 -12 -55 1 -55 6 0 10 -5 10 -11 0 -5 -4 -8 -10 -4 -5 3
-3 -7 5 -22 17 -32 19 -63 5 -63 -5 0 -10 5 -10 11 0 5 -4 8 -10 4 -5 -3 -13
9 -18 27 -7 26 -11 29 -17 16 -3 -9 -13 -14 -21 -11 -8 3 -11 10 -7 16 3 5 2
7 -4 4 -5 -3 -19 0 -31 9 -21 14 -22 29 -13 172 1 7 6 10 13 6 8 -5 9 -2 3 12
-10 24 -26 144 -20 153 2 4 -6 13 -18 21 -21 12 -21 12 -7 -5 11 -14 12 -19 3
-22 -7 -3 -14 -14 -14 -26 -1 -12 -5 3 -10 33 -5 30 -6 67 -3 83 6 27 -3 38
-12 14z m483 -629 c-3 -7 -5 -2 -5 12 0 14 2 19 5 13 2 -7 2 -19 0 -25z m78
-48 c8 -13 -5 -13 -25 0 -13 8 -13 10 2 10 9 0 20 -4 23 -10z m-104 -50 c12
-41 10 -142 -1 -135 -6 4 -10 14 -9 23 3 31 -1 43 -11 37 -5 -3 -10 -1 -10 4
0 6 5 11 10 11 18 0 11 68 -7 80 -17 10 -16 11 2 8 10 -2 22 -14 26 -28z m-25
-48 c-12 -12 -18 8 -10 35 l8 28 4 -28 c2 -16 1 -31 -2 -35z m34 -106 c0 -3
-4 -8 -10 -11 -5 -3 -10 -1 -10 4 0 6 5 11 10 11 6 0 10 -2 10 -4z m-40 -120
c0 -3 -4 -8 -10 -11 -5 -3 -10 -1 -10 4 0 6 5 11 10 11 6 0 10 -2 10 -4z m31
-209 c-7 -7 -9 8 -7 49 7 103 10 111 13 35 2 -42 0 -78 -6 -84z m-65 47 c-4
-14 -9 -24 -12 -21 -3 2 -2 17 2 31 3 15 9 25 11 22 3 -3 2 -17 -1 -32z m-195
-31 c-12 -20 -14 -14 -5 12 4 9 9 14 11 11 3 -2 0 -13 -6 -23z"/>
<path d="M3892 3058 c-26 -103 -36 -223 -25 -297 5 -27 8 -30 15 -17 5 9 6 26
3 37 -5 16 -4 19 5 14 8 -5 11 -4 6 3 -11 17 -15 163 -6 188 10 25 22 114 16
114 -2 0 -8 -19 -14 -42z"/>
<path d="M4562 3075 c0 -16 2 -22 5 -12 2 9 2 23 0 30 -3 6 -5 -1 -5 -18z"/>
<path d="M4541 3064 c0 -11 3 -14 6 -6 3 7 2 16 -1 19 -3 4 -6 -2 -5 -13z"/>
<path d="M3862 3040 c0 -19 2 -27 5 -17 2 9 2 25 0 35 -3 9 -5 1 -5 -18z"/>
<path d="M3438 2987 c5 -105 10 -114 11 -20 0 45 -3 84 -7 87 -4 2 -6 -28 -4
-67z"/>
<path d="M5335 3051 c-3 -5 0 -13 6 -17 7 -4 9 -3 5 4 -3 5 0 13 6 15 9 4 10
6 1 6 -6 1 -14 -3 -18 -8z"/>
<path d="M4536 3010 c-5 -19 -13 -40 -18 -47 -5 -6 -8 -17 -7 -25 3 -28 -1
-44 -9 -31 -7 10 -11 10 -24 0 -22 -16 -27 -109 -8 -132 8 -9 14 -36 15 -58 0
-40 3 -43 48 -65 26 -12 47 -27 47 -32 0 -6 5 -10 10 -10 6 0 10 7 10 15 0 9
6 12 18 9 13 -4 12 -1 -5 14 -20 18 -21 23 -10 58 6 22 18 44 27 51 13 10 13
12 -2 18 -10 4 -15 11 -13 16 3 5 -10 15 -28 23 -43 18 -51 30 -35 55 10 16
10 23 0 33 -6 6 -12 16 -12 21 0 5 9 -1 20 -14 20 -25 26 -21 11 9 -5 9 -14
42 -18 72 l-9 55 -8 -35z"/>
<path d="M4497 3010 c-9 -13 -17 -30 -17 -38 0 -7 -4 -10 -10 -7 -6 4 -10 -5
-10 -19 0 -14 5 -26 10 -26 6 0 10 5 10 11 0 6 9 24 21 40 11 16 19 37 17 47
-3 14 -6 13 -21 -8z"/>
<path d="M5334 2955 c3 -38 6 -87 6 -107 0 -21 4 -38 10 -38 5 0 8 6 5 13 -2
6 -6 52 -8 100 -3 49 -8 92 -12 95 -5 4 -5 -24 -1 -63z"/>
<path d="M2790 2893 c0 -58 2 -104 4 -102 10 11 16 209 6 209 -6 0 -10 -39
-10 -107z"/>
<path d="M2120 2971 c0 -6 4 -13 10 -16 6 -3 7 1 4 9 -7 18 -14 21 -14 7z"/>
<path d="M2481 2954 c0 -11 3 -14 6 -6 3 7 2 16 -1 19 -3 4 -6 -2 -5 -13z"/>
<path d="M3265 2960 c3 -5 8 -10 11 -10 2 0 4 5 4 10 0 6 -5 10 -11 10 -5 0
-7 -4 -4 -10z"/>
<path d="M3614 2935 c-3 -8 -4 -20 -2 -27 3 -7 7 -1 10 15 6 29 1 36 -8 12z"/>
<path d="M5015 2890 c2 -27 15 -38 15 -12 0 11 -4 23 -8 26 -5 3 -8 -4 -7 -14z"/>
<path d="M2872 2880 c0 -14 2 -19 5 -12 2 6 2 18 0 25 -3 6 -5 1 -5 -13z"/>
<path d="M3605 2878 c-2 -7 -6 -22 -8 -33 -3 -15 -5 -13 -6 8 -1 17 -7 27 -16
27 -12 0 -15 -9 -11 -42 11 -97 19 -138 28 -138 5 0 8 6 5 13 -2 6 2 20 11 30
14 15 13 17 -1 17 -10 0 -17 5 -17 10 0 6 4 10 8 10 5 0 17 7 28 15 14 11 15
14 2 9 -14 -5 -16 1 -11 40 4 43 -2 62 -12 34z"/>
<path d="M2220 2864 c0 -10 5 -26 10 -34 8 -11 9 -7 4 15 -8 37 -14 45 -14 19z"/>
<path d="M3272 2855 c0 -16 2 -22 5 -12 2 9 2 23 0 30 -3 6 -5 -1 -5 -18z"/>
<path d="M4925 2859 c-10 -15 1 -23 20 -15 9 3 13 10 10 16 -8 13 -22 13 -30
-1z"/>
<path d="M2150 2855 c0 -5 5 -17 10 -25 5 -8 10 -10 10 -5 0 6 -5 17 -10 25
-5 8 -10 11 -10 5z"/>
<path d="M2482 2810 c2 -53 15 -63 36 -29 9 14 10 24 3 33 -6 7 -9 15 -6 17 2
3 -5 10 -15 17 -19 12 -20 10 -18 -38z"/>
<path d="M3395 2802 c4 -61 -1 -77 -25 -77 -26 0 -23 -30 4 -31 17 -1 26 5 30
20 10 35 7 146 -4 146 -6 0 -8 -23 -5 -58z"/>
<path d="M4345 2850 c3 -5 8 -10 11 -10 2 0 4 5 4 10 0 6 -5 10 -11 10 -5 0
-7 -4 -4 -10z"/>
<path d="M4380 2847 c0 -15 35 -47 52 -47 5 0 8 12 8 27 0 21 -3 24 -12 15 -9
-9 -16 -8 -30 5 -16 15 -18 15 -18 0z"/>
<path d="M2681 2834 c0 -11 3 -14 6 -6 3 7 2 16 -1 19 -3 4 -6 -2 -5 -13z"/>
<path d="M5021 2830 c0 -28 28 -86 29 -59 0 9 -7 32 -15 50 -13 31 -14 32 -14
9z"/>
<path d="M2932 2820 c0 -14 2 -19 5 -12 2 6 2 18 0 25 -3 6 -5 1 -5 -13z"/>
<path d="M3266 2798 c-3 -13 -7 -45 -9 -73 -4 -42 -3 -47 8 -32 7 10 13 43 14
73 0 56 -5 70 -13 32z"/>
<path d="M2852 2790 c0 -14 2 -19 5 -12 2 6 2 18 0 25 -3 6 -5 1 -5 -13z"/>
<path d="M3541 2784 c0 -11 3 -14 6 -6 3 7 2 16 -1 19 -3 4 -6 -2 -5 -13z"/>
<path d="M4872 2757 c6 -23 15 -46 21 -52 7 -7 8 -3 3 10 -4 11 -10 32 -13 48
-3 15 -9 30 -13 32 -4 3 -3 -14 2 -38z"/>
<path d="M2254 2776 c10 -8 16 -21 13 -28 -2 -8 1 -27 8 -43 l13 -30 -3 40
c-2 22 -4 43 -4 47 -1 4 -11 12 -23 18 -22 10 -22 10 -4 -4z"/>
<path d="M2924 2779 c-6 -8 -11 -21 -12 -29 0 -8 -3 -39 -6 -67 -5 -34 -3 -53
4 -53 5 0 10 13 10 29 0 16 5 31 11 33 6 2 9 24 7 52 -2 38 -5 46 -14 35z"/>
<path d="M4907 2765 c18 -25 33 -32 33 -17 0 10 -33 42 -44 42 -4 0 1 -11 11
-25z"/>
<path d="M2512 2748 c-7 -7 -12 -18 -12 -26 0 -7 -4 -10 -10 -7 -6 4 -10 -12
-10 -39 0 -43 2 -46 26 -46 23 0 24 1 10 16 -17 17 -22 59 -7 68 7 5 23 46 17
46 -1 0 -7 -5 -14 -12z"/>
<path d="M3812 2751 c-10 -6 -10 -10 3 -21 13 -11 14 -10 9 5 -5 13 -4 16 4
11 7 -4 12 -2 12 3 0 13 -10 14 -28 2z"/>
<path d="M3781 2714 c0 -11 3 -14 6 -6 3 7 2 16 -1 19 -3 4 -6 -2 -5 -13z"/>
<path d="M5342 2695 c0 -16 2 -22 5 -12 2 9 2 23 0 30 -3 6 -5 -1 -5 -18z"/>
<path d="M2516 2691 c-4 -7 -5 -15 -2 -18 9 -9 19 4 14 18 -4 11 -6 11 -12 0z"/>
<path d="M3412 2684 c-5 -10 -22 -18 -37 -20 -15 -2 -29 -5 -31 -7 -10 -9 9
-35 29 -41 27 -7 87 -7 70 1 -7 2 -13 9 -13 14 0 6 5 7 10 4 16 -10 12 35 -4
51 -13 12 -16 12 -24 -2z"/>
<path d="M2844 2665 c-3 -8 -4 -20 -2 -27 3 -7 7 -1 10 15 6 29 1 36 -8 12z"/>
<path d="M4754 2655 c4 -24 16 -30 16 -7 0 12 -4 22 -9 22 -5 0 -8 -7 -7 -15z"/>
<path d="M4989 2645 c-1 -14 -2 -31 -3 -37 -1 -7 -5 -17 -11 -21 -5 -5 0 -6
12 -2 27 7 39 -10 16 -24 -16 -9 -16 -10 -1 -11 9 0 24 -10 32 -22 23 -33 19
-5 -5 39 -17 30 -19 41 -9 56 8 14 8 22 -1 33 -17 21 -29 17 -30 -11z"/>
<path d="M5442 2640 c0 -14 2 -19 5 -12 2 6 2 18 0 25 -3 6 -5 1 -5 -13z"/>
<path d="M2276 2635 c-3 -8 -1 -15 4 -15 6 0 10 7 10 15 0 8 -2 15 -4 15 -2 0
-6 -7 -10 -15z"/>
<path d="M3262 2641 c-11 -7 -11 -9 2 -14 10 -4 16 -1 16 8 0 17 -1 17 -18 6z"/>
<path d="M4852 2620 c0 -14 2 -19 5 -12 2 6 2 18 0 25 -3 6 -5 1 -5 -13z"/>
<path d="M5341 2624 c0 -11 3 -14 6 -6 3 7 2 16 -1 19 -3 4 -6 -2 -5 -13z"/>
<path d="M3636 2615 c-3 -8 -1 -15 4 -15 6 0 10 7 10 15 0 8 -2 15 -4 15 -2 0
-6 -7 -10 -15z"/>
<path d="M5040 2590 c0 -11 2 -20 4 -20 2 0 6 9 9 20 3 11 1 20 -4 20 -5 0 -9
-9 -9 -20z"/>
<path d="M5341 2584 c0 -11 3 -14 6 -6 3 7 2 16 -1 19 -3 4 -6 -2 -5 -13z"/>
<path d="M4587 2559 c-12 -80 -13 -79 59 -79 l64 0 0 40 c0 22 -4 40 -10 40
-5 0 -9 -6 -7 -12 1 -9 -14 -14 -45 -16 -38 -2 -48 0 -48 12 0 15 22 21 64 16
16 -1 16 0 5 13 -9 10 -18 12 -25 6 -14 -11 -36 -8 -46 5 -3 5 -9 -6 -11 -25z
m51 -56 c2 -8 -5 -13 -17 -13 -12 0 -21 6 -21 16 0 18 31 15 38 -3z"/>
<path d="M4853 2540 c0 -25 2 -35 4 -22 2 12 2 32 0 45 -2 12 -4 2 -4 -23z"/>
<path d="M5443 2545 c0 -22 2 -30 4 -17 2 12 2 30 0 40 -3 9 -5 -1 -4 -23z"/>
<path d="M4964 2555 c-3 -8 -4 -20 -2 -27 3 -7 7 -1 10 15 6 29 1 36 -8 12z"/>
<path d="M4060 2525 c0 -8 2 -15 4 -15 2 0 6 7 10 15 3 8 1 15 -4 15 -6 0 -10
-7 -10 -15z"/>
<path d="M5002 2480 c-7 -12 -8 -20 -2 -20 5 0 10 5 10 11 0 5 5 7 10 4 6 -3
10 1 10 9 0 22 -13 20 -28 -4z"/>
<path d="M5040 2485 c0 -8 5 -15 10 -15 6 0 10 7 10 15 0 8 -4 15 -10 15 -5 0
-10 -7 -10 -15z"/>
<path d="M5343 2465 c0 -22 2 -30 4 -17 2 12 2 30 0 40 -3 9 -5 -1 -4 -23z"/>
<path d="M5040 2445 c0 -8 -4 -15 -10 -15 -5 0 -10 -7 -10 -16 0 -13 3 -14 14
-5 25 21 6 -35 -20 -60 -13 -12 -24 -33 -24 -45 0 -13 -8 -28 -17 -34 -13 -8
-14 -13 -5 -16 6 -3 12 -13 11 -22 0 -13 -2 -13 -6 -3 -8 21 -36 -47 -36 -86
0 -18 -4 -33 -9 -33 -5 0 -7 -3 -5 -7 3 -5 1 -31 -2 -60 -4 -29 -4 -50 1 -47
4 3 8 0 8 -5 0 -6 5 -11 10 -11 6 0 10 7 10 16 0 8 -4 12 -10 9 -5 -3 -10 1
-10 10 0 12 5 15 16 11 10 -4 14 -2 11 6 -2 7 -9 12 -15 11 -6 -2 -9 4 -6 12
5 12 10 12 27 3 20 -10 21 -10 7 6 -12 16 -12 20 1 30 8 6 13 19 11 30 -3 12
0 16 8 11 9 -5 10 -2 6 13 -4 11 -2 39 4 63 6 24 12 62 13 84 2 52 30 86 40
48 3 -10 5 12 6 50 1 39 -3 67 -9 67 -5 0 -10 -7 -10 -15z"/>
<path d="M5135 2420 c-7 -12 2 -30 16 -30 12 0 12 27 0 35 -5 3 -12 1 -16 -5z"/>
<path d="M5343 2365 c0 -33 2 -45 4 -27 2 18 2 45 0 60 -2 15 -4 0 -4 -33z"/>
<path d="M3496 2401 c-3 -4 -1 -46 4 -92 6 -46 10 -115 10 -153 0 -38 3 -67 6
-64 7 8 8 227 1 234 -3 3 -3 12 -1 19 3 7 1 16 -4 19 -6 3 -8 15 -5 26 5 20
-1 27 -11 11z"/>
<path d="M4058 2363 c-5 -40 -4 -143 1 -241 0 -13 5 -21 11 -17 5 3 8 -7 5
-25 -4 -36 12 -40 21 -4 4 14 12 23 19 20 12 -4 42 107 46 174 3 42 -1 144 -5
139 -4 -4 -14 -88 -15 -132 -1 -10 -5 -16 -10 -12 -6 3 -9 13 -9 23 0 9 -2 37
-6 61 -4 31 -2 47 6 53 8 5 -1 8 -23 8 -36 0 -36 -1 -41 -47z m41 -10 l-1 -48
-8 40 c-7 37 -5 55 6 55 2 0 3 -21 3 -47z"/>
<path d="M4418 2388 c-14 -16 -18 -39 -17 -88 l2 -65 7 67 c9 76 14 86 44 98
20 8 20 9 1 9 -11 1 -28 -9 -37 -21z"/>
<path d="M4505 2400 c3 -5 8 -10 11 -10 2 0 4 5 4 10 0 6 -5 10 -11 10 -5 0
-7 -4 -4 -10z"/>
<path d="M4686 2303 c13 -60 31 -145 41 -190 16 -80 18 -83 45 -83 27 0 28 2
28 54 0 38 -7 66 -22 91 -13 24 -17 39 -11 43 28 17 -14 115 -62 146 -29 19
-32 33 -7 39 11 3 8 5 -9 6 l-26 1 23 -107z m68 -19 c3 -8 2 -12 -4 -9 -6 3
-10 10 -10 16 0 14 7 11 14 -7z"/>
<path d="M4460 2374 c0 -8 5 -12 10 -9 6 4 8 11 5 16 -9 14 -15 11 -15 -7z"/>
<path d="M4987 2363 c-4 -3 -7 -11 -7 -17 0 -6 5 -5 12 2 6 6 9 14 7 17 -3 3
-9 2 -12 -2z"/>
<path d="M5118 2345 c-6 -13 -15 -22 -19 -19 -11 6 -11 1 -3 -20 8 -21 28 -1
38 37 8 34 -1 35 -16 2z"/>
<path d="M4245 2318 c-6 -40 -41 -233 -49 -270 -3 -13 4 -17 35 -16 l40 0 -7
162 c-3 88 -7 162 -9 164 -2 2 -6 -16 -10 -40z"/>
<path d="M3667 2320 c-4 -16 -2 -40 2 -52 7 -18 9 -11 9 30 0 59 -3 65 -11 22z"/>
<path d="M4451 2334 c0 -11 3 -14 6 -6 3 7 2 16 -1 19 -3 4 -6 -2 -5 -13z"/>
<path d="M3475 2273 c-4 -27 -7 -54 -8 -62 -1 -8 3 -16 8 -18 7 -2 11 22 12
62 0 36 -1 65 -3 65 -1 0 -6 -21 -9 -47z"/>
<path d="M5040 2274 c0 -55 -9 -96 -19 -90 -4 3 -8 -4 -8 -15 -3 -41 -25 -89
-36 -82 -7 4 -6 0 1 -10 8 -9 11 -21 7 -28 -4 -6 -9 -28 -12 -48 -2 -20 -7
-43 -10 -51 -3 -8 -5 -22 -4 -30 1 -10 -2 -9 -10 4 -9 14 -8 20 2 27 8 5 9 9
3 9 -15 0 -36 -25 -27 -33 3 -4 1 -7 -6 -7 -8 0 -11 -8 -9 -18 5 -19 -15 -45
-26 -34 -4 3 -11 0 -16 -8 -7 -10 -10 -11 -10 -2 0 6 -5 12 -10 12 -6 0 -9 -6
-8 -12 2 -7 -2 -12 -9 -11 -7 2 -10 -4 -7 -12 4 -8 1 -15 -5 -15 -7 0 -11 23
-12 58 l0 57 -14 -36 c-7 -20 -11 -48 -8 -62 l5 -27 279 0 279 0 -7 48 c-7 59
-22 90 -33 72 -6 -10 -9 -7 -12 9 -1 12 -7 20 -13 19 -5 -2 -15 15 -21 37 -11
35 -13 36 -13 13 -1 -18 -7 -28 -16 -28 -8 0 -18 12 -21 28 -8 32 -25 46 -36
29 -5 -8 -8 -6 -8 7 0 15 -3 16 -15 6 -13 -10 -15 -9 -15 8 0 12 -4 24 -10 27
-5 3 -10 14 -10 24 0 10 -6 23 -13 29 -10 8 -12 0 -11 -39 1 -27 -3 -49 -8
-49 -6 0 -8 -7 -4 -15 3 -8 2 -25 -3 -37 -7 -20 -8 -20 -15 -2 -5 10 -10 86
-12 168 -2 82 -6 151 -9 154 -3 3 -5 -17 -5 -44z"/>
<path d="M4479 2294 c0 -10 -3 -13 -6 -6 -8 20 -22 14 -16 -8 3 -11 9 -20 13
-20 11 0 24 40 16 47 -3 4 -6 -2 -7 -13z"/>
<path d="M3621 2288 c0 -9 -4 -25 -7 -35 -5 -14 -4 -15 5 -7 7 7 11 22 8 35
-2 13 -5 16 -6 7z"/>
<path d="M4852 2280 c0 -14 2 -19 5 -12 2 6 2 18 0 25 -3 6 -5 1 -5 -13z"/>
<path d="M4541 2244 c0 -11 3 -14 6 -6 3 7 2 16 -1 19 -3 4 -6 -2 -5 -13z"/>
<path d="M4451 2224 c0 -11 3 -14 6 -6 3 7 2 16 -1 19 -3 4 -6 -2 -5 -13z"/>
<path d="M4521 2224 c0 -11 3 -14 6 -6 3 7 2 16 -1 19 -3 4 -6 -2 -5 -13z"/>
<path d="M3613 2190 c0 -22 4 -37 8 -34 10 6 8 74 -2 74 -4 0 -6 -18 -6 -40z"/>
<path d="M4911 2193 c1 -38 1 -38 12 -10 6 15 16 27 21 27 12 0 -14 20 -26 20
-5 0 -8 -17 -7 -37z"/>
<path d="M3660 2125 c0 -54 2 -96 5 -93 8 8 9 177 1 185 -3 3 -6 -38 -6 -92z"/>
<path d="M4540 2208 c0 -9 5 -20 10 -23 13 -8 13 5 0 25 -8 13 -10 13 -10 -2z"/>
<path d="M4783 2212 c-8 -5 -8 -12 3 -27 13 -18 14 -18 12 8 -1 15 -3 27 -3
27 0 0 -5 -4 -12 -8z"/>
<path d="M4017 2175 c-17 -84 -17 -104 -1 -98 17 6 18 19 3 29 -8 5 -8 9 1 14
7 4 10 25 8 51 l-3 44 -8 -40z"/>
<path d="M4851 2194 c0 -11 3 -14 6 -6 3 7 2 16 -1 19 -3 4 -6 -2 -5 -13z"/>
<path d="M4516 2148 c-4 -29 -2 -69 3 -88 7 -29 9 -20 10 53 1 48 -1 87 -3 87
-3 0 -7 -24 -10 -52z"/>
<path d="M4286 2110 c2 -19 4 -45 4 -57 0 -17 6 -23 21 -23 17 0 20 4 15 23
-3 12 -6 35 -6 51 0 23 -2 26 -14 17 -12 -10 -15 -8 -19 6 -2 10 -3 2 -1 -17z
m21 -52 c-3 -7 -5 -2 -5 12 0 14 2 19 5 13 2 -7 2 -19 0 -25z"/>
<path d="M4853 2080 c0 -25 2 -35 4 -22 2 12 2 32 0 45 -2 12 -4 2 -4 -23z"/>
<path d="M5252 2095 c0 -16 2 -22 5 -12 2 9 2 23 0 30 -3 6 -5 -1 -5 -18z"/>
<path d="M3608 2104 c-5 -4 -8 -16 -8 -28 0 -14 3 -17 11 -9 6 6 9 19 7 28 -1
9 -6 13 -10 9z"/>
<path d="M3705 2100 c3 -5 8 -10 11 -10 2 0 4 5 4 10 0 6 -5 10 -11 10 -5 0
-7 -4 -4 -10z"/>
<path d="M4460 2097 c0 -7 -9 -19 -20 -27 -11 -8 -20 -19 -20 -24 0 -6 5 -5
12 2 16 16 28 15 28 -3 0 -8 7 -15 16 -15 11 0 14 5 10 16 -3 9 -6 27 -6 40 0
13 -4 24 -10 24 -5 0 -10 -6 -10 -13z"/>
<path d="M4111 2073 c0 -6 -4 -20 -7 -30 -5 -14 -4 -15 5 -7 7 7 11 20 8 30
-3 11 -5 14 -6 7z"/>
<path d="M3511 2043 c0 -25 1 -26 9 -8 12 27 12 35 0 35 -5 0 -10 -12 -9 -27z"/>
<path d="M4650 2050 c0 -11 4 -20 9 -20 5 0 7 9 4 20 -3 11 -7 20 -9 20 -2 0
-4 -9 -4 -20z"/>
<path d="M3690 2050 c0 -8 5 -22 10 -30 9 -13 10 -13 10 0 0 8 -5 22 -10 30
-9 13 -10 13 -10 0z"/>
<path d="M3997 2041 c-3 -11 1 -28 9 -38 12 -16 13 -15 10 15 -3 39 -12 50
-19 23z"/>
<path d="M4060 2003 c0 -22 2 -25 10 -13 13 20 13 40 0 40 -5 0 -10 -12 -10
-27z"/>
<path d="M3582 2000 c0 -14 2 -19 5 -12 2 6 2 18 0 25 -3 6 -5 1 -5 -13z"/>
<path d="M4015 1970 c-3 -5 -1 -10 4 -10 6 0 11 5 11 10 0 6 -2 10 -4 10 -3 0
-8 -4 -11 -10z"/>
<path d="M4852 1960 c0 -14 2 -19 5 -12 2 6 2 18 0 25 -3 6 -5 1 -5 -13z"/>
<path d="M5379 1872 l-4 -62 33 0 c31 0 42 12 22 25 -5 3 -10 0 -10 -7 -1 -24
-21 21 -29 65 l-8 42 -4 -63z"/>
<path d="M4456 1863 c-3 -4 -6 -17 -6 -30 0 -22 2 -23 93 -22 50 0 86 3 80 6
-7 2 -13 13 -13 24 0 15 -7 19 -37 20 -21 0 -54 2 -74 4 -20 2 -40 1 -43 -2z"/>
<path d="M4665 1861 c-11 -3 -21 -16 -23 -28 -3 -20 1 -23 31 -23 31 0 34 2
29 25 -5 30 -11 34 -37 26z"/>
<path d="M4058 1835 c-3 -14 -2 -25 2 -25 4 0 10 11 12 25 3 14 2 25 -2 25 -4
0 -10 -11 -12 -25z"/>
<path d="M4190 1841 c0 -12 -8 -21 -22 -24 -13 -2 -5 -5 17 -5 22 0 34 2 28 5
-7 2 -13 11 -13 18 0 7 6 16 13 18 7 3 5 6 -5 6 -11 1 -18 -6 -18 -18z"/>
<path d="M4238 1853 c7 -3 16 -2 19 1 4 3 -2 6 -13 5 -11 0 -14 -3 -6 -6z"/>
<path d="M4408 1853 c6 -2 18 -2 25 0 6 3 1 5 -13 5 -14 0 -19 -2 -12 -5z"/>
<path d="M4240 1827 c0 -10 8 -17 18 -17 9 0 13 4 7 8 -5 4 -13 11 -17 16 -5
5 -8 2 -8 -7z"/>
<path d="M4418 1813 c7 -3 16 -2 19 1 4 3 -2 6 -13 5 -11 0 -14 -3 -6 -6z"/>
</g>
</svg>
