<?xml version="1.0" standalone="no"?>
<!DOCTYPE svg PUBLIC "-//W3C//DTD SVG 20010904//EN"
 "http://www.w3.org/TR/2001/REC-SVG-20010904/DTD/svg10.dtd">
<svg version="1.0" xmlns="http://www.w3.org/2000/svg"
 width="1000.000000pt" height="750.000000pt" viewBox="0 0 1000.000000 750.000000"
 preserveAspectRatio="xMidYMid meet">

<g transform="translate(0.000000,750.000000) scale(0.100000,-0.100000)"
fill="#000000" stroke="none">
<path d="M0 4216 l0 -3285 43 24 c548 300 1107 603 1476 800 172 93 315 175
318 182 3 7 9 10 14 7 9 -5 137 59 149 75 3 3 11 7 19 9 8 2 104 52 215 111
340 183 326 177 448 185 78 5 113 3 127 -6 15 -9 25 -9 46 0 16 7 42 10 61 6
24 -4 40 -2 52 9 9 8 31 17 47 18 17 2 35 6 40 10 6 3 28 10 49 13 26 5 35 10
27 16 -8 4 -11 13 -7 19 4 6 -4 13 -20 17 -28 7 -54 -14 -54 -43 0 -17 -20
-16 -58 3 -30 15 -32 18 -32 73 0 31 5 62 12 69 9 9 7 12 -9 12 -50 0 -62 131
-46 530 3 80 6 179 7 221 0 42 6 82 11 90 32 45 46 85 48 136 2 53 0 58 -20
61 -24 3 -28 26 -23 105 1 16 -4 29 -14 33 -16 6 -36 56 -35 88 0 21 1 21 10
1 8 -17 8 -16 3 5 -3 14 -8 58 -11 98 -4 55 -9 72 -20 72 -13 0 -14 12 -9 73
3 39 6 115 7 167 1 52 5 109 10 125 5 17 14 50 21 75 7 26 13 38 15 28 6 -23
29 -23 38 0 7 15 9 14 16 -8 7 -22 8 -21 6 10 -1 21 2 34 9 33 6 -1 16 16 23
37 18 61 31 58 33 -7 1 -52 2 -53 5 -13 2 25 6 56 9 69 l5 24 15 -22 c20 -28
34 -27 34 4 0 21 19 41 43 44 4 1 10 2 15 2 4 1 14 1 23 0 8 -1 20 9 26 22 9
19 17 23 37 20 17 -4 26 -12 26 -24 0 -37 18 -27 29 16 6 24 15 47 21 50 6 3
7 -1 4 -9 -3 -9 -2 -16 4 -16 6 0 13 6 15 13 3 6 6 -1 6 -18 1 -31 21 -74 21
-46 0 11 3 11 15 1 11 -9 15 -9 15 -1 0 7 5 9 10 6 6 -3 14 5 20 19 13 35 17
33 12 -6 -4 -32 -3 -32 12 -13 8 11 16 27 16 35 0 8 7 23 14 33 12 16 14 16
20 2 3 -10 2 -14 -5 -9 -7 4 -9 -4 -7 -22 2 -22 10 -30 38 -37 21 -5 36 -5 38
1 1 5 9 18 18 28 14 18 14 17 12 -10 l-3 -29 76 2 76 2 7 -118 c3 -65 9 -212
11 -328 3 -115 8 -272 10 -347 5 -133 5 -138 -15 -138 -11 0 -20 -5 -20 -11 0
-6 9 -9 19 -6 19 5 20 -3 20 -210 1 -118 3 -218 6 -223 3 -5 0 -12 -6 -15 -5
-4 -7 -14 -4 -24 4 -9 9 -79 11 -156 1 -77 4 -142 5 -145 1 -3 0 -13 0 -23 -2
-18 21 -47 37 -47 5 0 9 -7 8 -16 0 -9 4 -19 10 -21 8 -3 11 27 8 104 -27 703
-41 1763 -25 1747 14 -12 23 -291 40 -1144 13 -626 19 -762 34 -772 8 -5 9
-11 2 -15 -6 -5 -9 -70 -7 -170 l3 -163 30 0 31 0 -7 263 c-4 144 -10 372 -14
507 -5 208 -8 245 -21 245 -17 0 -28 56 -29 150 -1 73 7 105 25 105 11 0 12
61 8 353 -5 305 -9 361 -25 417 -26 89 -38 160 -28 160 5 0 9 8 9 18 1 11 6 6
15 -13 l13 -30 2 30 c1 17 2 33 1 38 0 4 4 7 9 7 6 0 10 -8 10 -18 0 -10 6
-19 13 -19 11 0 12 10 6 41 -11 55 -11 58 1 51 5 -3 10 -17 10 -31 0 -15 6
-24 15 -24 8 0 15 5 15 10 0 6 7 10 15 10 8 0 15 -4 15 -10 0 -18 30 -11 31 8
3 36 4 42 14 42 6 1 11 -8 13 -19 2 -11 13 -23 24 -27 26 -8 43 18 41 61 l-2
30 7 -29 c6 -24 9 -26 18 -15 6 8 15 24 18 37 11 33 23 27 34 -15 l9 -38 8 45
8 45 12 -53 c17 -73 25 -76 25 -7 0 70 9 67 19 -7 7 -49 9 -51 19 -28 9 22 11
23 13 5 1 -11 1 -23 0 -27 -3 -18 31 -6 36 12 6 23 14 25 30 9 9 -9 11 3 7 47
l-4 59 14 -48 c17 -59 24 -67 23 -30 0 15 6 29 12 31 6 2 11 11 11 20 0 13 4
12 19 -7 12 -16 20 -20 25 -12 11 18 23 4 31 -35 6 -33 7 -35 20 -18 8 11 15
28 15 39 1 19 1 19 11 1 9 -14 13 -16 20 -5 11 18 22 6 22 -26 0 -14 3 -25 8
-25 4 0 10 -10 12 -22 3 -17 5 -15 6 9 1 34 16 51 25 31 3 -7 3 -3 0 9 -7 29
2 44 21 36 9 -3 15 -19 15 -40 0 -20 9 -48 21 -65 l21 -29 18 29 c10 16 20 40
23 53 3 20 9 13 32 -38 16 -35 32 -63 37 -63 4 0 8 -12 8 -27 0 -14 7 -35 17
-45 9 -10 16 -32 15 -50 0 -17 6 -44 14 -59 8 -15 14 -44 14 -64 0 -19 5 -35
10 -35 6 0 10 -33 10 -80 0 -71 2 -80 19 -80 26 0 32 -79 20 -252 -5 -77 -7
-143 -4 -149 4 -5 3 -43 0 -84 -5 -54 -11 -75 -21 -75 -10 0 -14 -13 -14 -40
0 -22 -4 -40 -10 -40 -13 0 -13 -93 2 -217 l12 -103 38 0 c38 0 38 0 38 -40 0
-22 -4 -40 -10 -40 -6 0 -10 -33 -10 -80 0 -47 4 -80 10 -80 6 0 10 -18 10
-40 0 -22 -4 -40 -10 -40 -6 0 -10 -33 -10 -80 0 -44 4 -80 9 -80 5 0 1 -17
-9 -37 -10 -21 -14 -39 -9 -41 5 -2 9 -21 9 -43 0 -32 3 -39 20 -39 13 0 20 7
20 20 0 15 7 20 29 20 16 0 31 -5 33 -11 3 -8 27 -9 81 -4 l77 7 0 64 0 64
-40 0 -40 0 0 40 0 40 -40 0 -40 0 0 40 0 40 40 0 c29 0 40 4 40 15 0 11 -11
15 -40 15 l-40 0 0 185 0 185 80 0 c60 0 80 3 80 13 0 9 10 12 30 9 17 -2 30
-8 30 -13 0 -5 35 -8 78 -7 l77 2 -70 5 c-59 5 -39 8 129 18 109 7 202 10 206
8 4 -3 112 -1 240 4 176 7 236 13 248 24 10 8 25 17 35 20 43 16 2 52 -52 44
l-38 -5 -7 257 c-15 592 -18 997 -8 1031 10 33 10 30 11 -32 1 -43 5 -68 12
-68 8 0 10 25 7 83 -4 75 -3 79 7 42 l12 -40 7 41 7 41 61 7 c34 3 87 6 119 6
l59 0 0 -35 c0 -19 5 -35 11 -35 6 0 9 6 6 14 -3 7 9 28 28 46 20 19 34 27 37
20 2 -8 45 -13 133 -16 116 -4 131 -6 144 -24 11 -16 25 -20 66 -20 34 0 55 5
58 13 4 9 7 9 18 0 7 -7 22 -13 34 -13 12 0 39 -18 60 -40 21 -22 47 -40 56
-40 9 0 22 -7 30 -16 7 -9 21 -13 32 -10 11 3 28 1 37 -4 10 -5 32 -12 51 -15
18 -3 40 -12 49 -19 20 -17 121 -66 136 -66 6 0 17 -7 24 -15 7 -8 23 -15 35
-15 12 0 28 -6 34 -13 6 -8 28 -19 50 -25 21 -7 51 -22 66 -34 35 -28 99 -66
183 -108 34 -18 62 -37 62 -44 0 -12 6 -15 83 -53 25 -13 74 -50 109 -84 34
-33 82 -69 106 -80 26 -11 46 -28 52 -43 5 -14 18 -31 30 -38 11 -7 20 -21 20
-32 0 -11 7 -28 16 -37 9 -10 17 -30 17 -44 0 -16 10 -34 26 -46 25 -20 26
-23 23 -122 -2 -72 -7 -105 -17 -117 -22 -24 -18 -40 10 -40 23 0 25 -4 25
-40 0 -22 -4 -40 -10 -40 -41 0 -61 -162 -27 -214 10 -14 17 -43 17 -66 0 -22
5 -40 10 -40 6 0 10 -33 10 -80 0 -47 4 -80 10 -80 6 0 10 -18 10 -40 l0 -40
108 -1 c59 -1 114 -2 122 -3 8 -2 23 -3 32 -4 10 -1 15 -8 12 -15 -5 -14 96
-64 181 -90 l50 -15 -60 -3 c-72 -3 -77 -3 -137 5 -38 6 -48 4 -56 -10 -5 -10
-14 -14 -21 -10 -9 6 -9 11 -1 21 17 20 -7 30 -26 11 -8 -9 -19 -16 -24 -16
-5 0 -15 -3 -24 -6 -11 -4 -16 0 -16 12 0 15 -26 30 -115 65 l-114 47 4 -174
4 -174 -70 0 c-92 0 -89 -18 4 -23 64 -3 61 -3 -28 -5 -55 -1 -131 -5 -170
-10 -61 -6 -47 -8 110 -14 227 -8 213 -5 195 -38 -8 -15 1 -25 60 -66 39 -26
70 -50 70 -54 0 -4 -21 -21 -47 -38 -56 -36 -183 -159 -183 -176 0 -7 19 -23
42 -36 23 -13 70 -42 104 -66 83 -57 132 -81 190 -94 43 -10 52 -8 103 17 31
15 59 32 63 37 13 19 130 -2 191 -33 56 -29 117 -41 117 -23 0 4 13 16 30 25
16 10 35 28 41 40 12 21 11 21 -8 4 -23 -20 -40 -23 -24 -3 6 8 11 18 10 22
-2 5 3 29 10 52 9 32 16 42 27 38 9 -3 22 -6 29 -6 24 0 24 -30 0 -75 -14 -24
-25 -49 -25 -54 0 -6 17 -11 38 -11 21 0 63 -9 93 -20 108 -38 280 -53 296
-27 30 50 110 57 188 17 21 -11 45 -20 52 -20 7 0 13 -3 13 -8 0 -12 -40 -84
-56 -99 -8 -8 -14 -23 -14 -34 0 -10 -4 -19 -10 -19 -5 0 -10 -8 -10 -19 0
-14 22 -28 85 -56 47 -21 90 -44 96 -52 6 -7 15 -13 20 -13 5 0 9 265 9 589
l0 588 -77 8 c-43 4 -86 7 -95 7 -10 -1 -18 6 -18 14 0 8 -13 17 -30 21 -41 8
-38 23 5 23 26 0 33 -3 29 -15 -7 -17 11 -21 21 -5 4 7 13 6 26 -1 37 -20 32
0 -12 48 -79 87 -71 81 -103 68 -25 -11 -26 -13 -10 -20 16 -6 12 -10 -21 -20
-22 -7 -32 -13 -22 -14 10 -1 15 -6 12 -11 -4 -6 -11 -7 -17 -4 -6 4 -9 1 -6
-7 5 -16 -32 -49 -56 -49 -8 0 -19 -6 -23 -12 -12 -19 -72 -50 -83 -43 -12 7
-56 -36 -52 -52 2 -7 -5 -13 -15 -14 -10 -1 2 -6 27 -11 41 -10 43 -11 21 -19
-16 -7 -33 -5 -54 6 -16 8 -43 15 -59 15 -15 0 -28 1 -28 3 0 8 47 134 54 146
7 11 5 13 -7 8 -13 -5 -15 -1 -11 22 5 21 1 32 -14 43 -11 7 -24 26 -27 41 -8
31 -29 34 -82 15 -27 -10 -38 -10 -53 0 -11 7 -30 12 -44 12 -27 0 -93 26
-116 45 -8 6 -49 27 -90 46 -41 19 -83 42 -92 52 -10 9 -23 17 -29 17 -5 0 -8
4 -4 9 3 6 25 1 51 -10 25 -12 47 -19 48 -17 2 1 13 22 26 46 27 48 60 56 101
24 47 -37 119 -73 150 -77 18 -3 35 -8 38 -13 3 -5 35 -12 71 -16 36 -3 85
-13 110 -20 43 -13 46 -13 71 11 36 33 90 39 177 19 39 -9 87 -16 106 -16 19
0 37 -4 40 -9 3 -4 29 -11 57 -15 29 -4 65 -10 80 -13 l29 -5 0 433 0 434
-157 -3 c-209 -5 -818 10 -773 19 21 4 26 7 13 8 -23 1 -43 21 -22 21 7 0 10
3 7 6 -3 3 -15 0 -26 -7 -17 -11 -26 -10 -49 1 -15 8 -30 17 -33 20 -6 7 -114
39 -155 47 -16 3 -37 11 -45 18 -8 7 -39 21 -67 31 -29 10 -53 22 -53 26 0 5
-8 8 -19 8 -10 0 -24 6 -30 13 -13 17 -84 40 -128 42 -18 1 -51 15 -74 30 -22
16 -70 39 -106 51 -40 14 -58 24 -47 26 16 3 14 7 -12 21 -17 9 -44 18 -59 21
-15 3 -35 12 -45 21 -9 8 -22 15 -28 15 -7 0 -12 6 -12 13 0 7 -17 19 -37 26
-21 8 -43 20 -51 27 -7 8 -22 14 -32 14 -10 0 -21 6 -24 13 -5 9 -7 10 -12 0
-9 -20 -21 -15 -28 11 -4 17 -17 28 -42 36 -39 13 -132 96 -114 102 6 2 -5 19
-25 38 -31 30 -35 32 -35 13 0 -16 -5 -20 -20 -16 -23 6 -25 14 -8 31 9 9 5
12 -20 12 -23 0 -32 5 -32 16 0 29 -43 64 -77 64 -32 0 -33 2 -33 40 0 29 -4
40 -15 40 -8 0 -15 5 -15 10 0 6 -4 10 -10 10 -5 0 -10 -6 -10 -14 0 -9 -7
-12 -20 -9 -11 3 -20 7 -20 10 0 8 28 33 38 33 4 0 7 14 4 30 -3 21 -10 30
-23 30 -11 0 -19 5 -19 10 0 6 -9 10 -19 10 -13 0 -21 8 -23 23 -3 19 -8 22
-41 20 -31 -2 -36 0 -25 11 7 7 20 15 28 19 12 4 12 6 -1 6 -9 1 -19 8 -23 16
-7 19 4 19 40 0 16 -8 23 -15 17 -15 -7 0 -13 -4 -13 -8 0 -10 50 -35 57 -28
2 2 -5 7 -17 11 -11 4 -19 12 -18 20 2 7 -8 22 -22 33 -21 17 -22 22 -11 36
19 23 1 20 -25 -5 l-22 -21 0 37 c0 31 2 35 20 29 14 -4 18 -2 14 5 -4 6 -14
11 -22 11 -10 0 -14 12 -14 40 l0 40 40 0 c22 0 40 -4 40 -10 0 -13 37 -13 46
1 3 6 14 9 24 6 13 -3 17 0 13 9 -3 8 -9 14 -14 14 -5 0 -9 7 -9 16 0 20 -24
44 -44 44 -12 0 -16 10 -16 40 l0 40 80 0 80 0 0 40 0 40 40 0 c36 0 40 3 40
25 0 23 4 25 40 25 29 0 40 4 40 15 0 13 20 15 120 15 113 0 120 1 120 20 0
17 7 20 40 20 33 0 40 3 40 20 0 17 7 20 40 20 33 0 40 3 40 20 0 17 7 20 40
20 33 0 40 -3 40 -20 0 -17 7 -20 40 -20 33 0 40 3 40 20 0 17 7 20 40 20 33
0 40 -3 40 -20 0 -19 7 -20 160 -20 153 0 160 1 160 20 0 17 7 20 40 20 33 0
40 -3 40 -20 0 -18 7 -20 80 -20 47 0 80 4 80 10 0 6 18 10 40 10 22 0 40 -4
40 -10 0 -5 -18 -10 -40 -10 -28 0 -40 -4 -40 -14 0 -10 22 -16 80 -21 69 -6
80 -10 80 -26 0 -17 8 -19 80 -19 73 0 80 2 80 20 0 17 7 20 40 20 33 0 40 -3
40 -20 0 -17 7 -20 40 -20 29 0 40 -4 40 -15 0 -11 11 -15 40 -15 29 0 40 4
40 15 0 11 11 15 40 15 l40 0 0 -40 0 -40 120 0 c100 0 120 -2 120 -15 0 -11
11 -15 40 -15 36 0 40 -2 40 -25 0 -22 4 -25 40 -25 29 0 40 -4 40 -15 0 -11
11 -15 40 -15 29 0 40 4 40 15 0 11 -11 15 -40 15 l-40 0 0 43 0 43 41 -2 41
-2 -41 25 c-41 24 -72 24 -51 -2 8 -10 2 -14 -26 -19 -20 -4 -39 -5 -42 -2 -3
3 2 6 11 6 9 0 19 5 23 12 5 8 0 9 -14 6 -12 -4 -22 -2 -22 3 0 5 13 12 30 15
16 4 27 11 24 16 -4 5 -17 7 -30 4 -13 -4 -24 -2 -24 2 0 5 -18 16 -40 25 -22
8 -40 20 -40 27 0 6 20 -1 43 -15 24 -14 48 -25 53 -25 5 0 -13 13 -40 29 -49
29 -76 31 -76 6 0 -7 6 -15 13 -18 6 -2 8 -8 4 -13 -4 -5 -12 -2 -17 6 -6 10
-12 11 -22 2 -20 -17 -38 4 -38 44 0 36 -21 50 -50 34 -29 -16 -38 -11 -10 5
38 22 102 -3 79 -31 -15 -19 -1 -38 17 -23 8 6 14 18 14 25 0 19 -91 75 -113
70 -13 -3 -17 0 -13 9 6 16 -17 27 -41 19 -12 -4 -14 -3 -6 3 8 6 -21 29 -92
71 -57 34 -106 62 -109 62 -4 0 -29 15 -56 34 -33 23 -57 33 -72 29 -17 -3
-19 -2 -9 5 9 7 10 12 2 16 -6 4 -11 4 -11 1 0 -4 -7 0 -15 9 -9 8 -76 52
-150 96 -74 45 -135 85 -135 90 0 5 12 17 28 27 184 114 261 166 256 174 -2 4
1 11 7 15 8 4 9 3 5 -4 -13 -21 6 -13 73 32 72 48 185 120 329 212 51 32 132
84 180 114 48 31 115 74 149 95 l63 40 0 358 0 357 -5000 0 -5000 0 0 -3284z
m5190 2404 c0 -5 -4 -10 -10 -10 -5 0 -10 5 -10 10 0 6 5 10 10 10 6 0 10 -4
10 -10z m0 -30 c0 -5 -4 -10 -10 -10 -5 0 -10 5 -10 10 0 6 5 10 10 10 6 0 10
-4 10 -10z m-473 -165 c9 -24 -1 -27 -20 -5 -14 17 -15 20 -2 20 9 0 18 -7 22
-15z m4533 -585 c0 -5 -8 -10 -17 -10 -15 0 -16 2 -3 10 19 12 20 12 20 0z
m60 -35 c0 -9 -6 -12 -16 -8 -13 5 -13 7 -2 14 17 11 18 11 18 -6z m37 -21
c-3 -3 -12 -4 -19 -1 -8 3 -5 6 6 6 11 1 17 -2 13 -5z m-47 -14 c0 -5 -4 -10
-10 -10 -5 0 -10 5 -10 10 0 6 5 10 10 10 6 0 10 -4 10 -10z m80 -10 c-24 -15
-36 -11 -14 4 10 8 21 12 24 10 2 -3 -2 -9 -10 -14z m76 -28 c10 -9 31 -23 47
-29 26 -12 38 -43 16 -43 -5 0 -7 5 -4 10 8 12 3 13 -28 1 -17 -7 -24 -6 -24
4 0 7 8 10 19 7 10 -2 18 1 18 7 0 6 -7 11 -14 11 -8 0 -27 11 -42 25 -15 14
-23 25 -17 25 5 0 18 -8 29 -18z m174 -112 c0 -5 -7 -10 -16 -10 -8 0 -12 5
-9 10 3 6 10 10 16 10 5 0 9 -4 9 -10z m-190 -100 c0 -17 -7 -20 -40 -20 -33
0 -40 3 -40 20 0 17 7 20 40 20 33 0 40 -3 40 -20z m515 -88 c-7 -8 -35 7 -35
18 0 6 7 6 20 -2 10 -7 17 -14 15 -16z m-2555 -222 c0 -5 -9 -10 -20 -10 -11
0 -20 5 -20 10 0 6 9 10 20 10 11 0 20 -4 20 -10z m-105 -230 c3 -5 1 -10 -4
-10 -6 0 -11 5 -11 10 0 6 2 10 4 10 3 0 8 -4 11 -10z m-1315 -100 c-132 -9
-452 -20 -425 -14 27 6 350 21 450 21 77 0 76 0 -25 -7z m260 0 c0 -5 -4 -10
-10 -10 -5 0 -10 5 -10 10 0 6 5 10 10 10 6 0 10 -4 10 -10z m1167 -15 c8 -9
12 -19 8 -23 -4 -4 -10 -1 -12 6 -3 6 -13 12 -24 12 -10 0 -19 5 -19 10 0 15
30 12 47 -5z m-1182 -89 c4 -18 5 -44 2 -57 -2 -15 -5 -7 -6 19 0 23 -5 42
-11 42 -5 0 -10 7 -10 15 0 29 19 15 25 -19z m-1838 -63 c-3 -10 -5 -4 -5 12
0 17 2 24 5 18 2 -7 2 -21 0 -30z m-377 -33 c0 -5 -2 -10 -4 -10 -3 0 -8 5
-11 10 -3 6 -1 10 4 10 6 0 11 -4 11 -10z m1429 -645 c7 -291 9 -555 5 -586
-6 -55 -5 -58 17 -62 22 -4 22 -4 -3 -6 -28 -1 -31 3 -29 49 0 25 0 25 -10 -2
-8 -21 -17 -28 -38 -28 -15 0 -32 -5 -39 -12 -9 -9 -12 -7 -12 10 0 12 -4 22
-10 22 -5 0 -10 -10 -10 -23 0 -41 -32 -57 -115 -57 l-75 0 0 80 0 80 40 0 40
0 0 80 0 80 40 0 40 0 0 40 c0 40 0 40 39 40 l38 0 7 64 c3 36 4 82 1 103 -3
21 -2 65 3 98 9 58 10 55 12 -55 1 -63 6 -137 10 -165 7 -41 8 -34 4 35 -2 47
-5 184 -7 305 -2 121 -1 173 2 115 6 -92 7 -98 12 -50 3 30 5 1 4 -65 -1 -66
2 -163 6 -215 4 -53 6 95 5 340 -1 239 2 408 5 375 4 -33 12 -298 18 -590z
m31 141 c-7 -7 -10 14 -9 60 l1 69 9 -60 c6 -38 5 -63 -1 -69z m640 -34 c0 -5
-7 -9 -15 -9 -8 0 -15 4 -15 9 0 4 7 8 15 8 8 0 15 -4 15 -8z m-630 -12 c0 -5
-5 -10 -11 -10 -5 0 -7 5 -4 10 3 6 8 10 11 10 2 0 4 -4 4 -10z m208 -4 c53 2
160 6 237 8 l140 3 0 -321 0 -321 -35 -6 c-19 -3 -43 -1 -53 4 -16 7 -17 6
-10 -10 14 -27 10 -56 -7 -61 -8 -3 -12 -1 -8 3 10 11 -17 35 -39 35 -11 0
-24 -5 -29 -10 -15 -15 -54 19 -57 48 -1 12 -7 22 -15 22 -9 0 -11 -7 -7 -20
6 -20 -9 -50 -26 -50 -4 0 -6 14 -4 30 2 17 -1 30 -7 30 -5 0 -8 -7 -4 -15 3
-8 1 -15 -3 -15 -5 0 -7 -10 -3 -22 3 -14 1 -19 -6 -14 -6 3 -13 2 -17 -4 -9
-15 -25 -12 -25 6 0 11 -8 15 -27 12 -18 -2 -27 2 -25 10 1 8 -13 13 -40 14
l-43 1 45 7 45 7 -46 1 c-47 2 -68 20 -52 45 9 16 46 42 56 39 4 -1 7 2 7 8 0
14 -13 13 -28 -2 -10 -10 -12 -8 -11 7 5 46 -1 67 -16 61 -10 -4 -15 1 -14 17
0 12 -3 118 -7 235 -6 192 -5 212 10 212 9 0 16 6 17 13 0 9 2 9 6 0 3 -9 30
-11 101 -7z m-651 -368 c-2 -13 -4 -3 -4 22 0 25 2 35 4 23 2 -13 2 -33 0 -45z
m-3897 -19 c0 -6 -4 -7 -10 -4 -5 3 -10 11 -10 16 0 6 5 7 10 4 6 -3 10 -11
10 -16z m8695 -43 c22 -1 30 -6 29 -19 -1 -12 6 -17 27 -17 23 0 29 -5 29 -20
0 -12 12 -32 26 -45 l26 -24 -26 -24 c-14 -13 -26 -29 -26 -36 0 -6 -7 -11
-15 -11 -11 0 -15 -11 -15 -40 0 -29 4 -40 15 -40 8 0 15 -4 15 -10 0 -5 -18
-10 -40 -10 -22 0 -40 -4 -40 -10 0 -6 -47 -10 -120 -10 -113 0 -120 1 -120
20 0 12 -7 20 -18 20 -10 0 -26 10 -37 23 -18 20 -20 21 -23 3 -3 -16 -10 -13
-43 20 -21 21 -39 42 -39 47 0 6 -10 19 -23 31 -19 17 -22 29 -19 69 3 38 8
47 23 47 12 0 19 7 19 19 0 11 8 22 18 25 14 4 277 -1 377 -8z m-8469 -34 c-5
-13 1 -22 19 -30 14 -7 32 -12 39 -12 8 0 19 -7 27 -16 21 -25 -8 -36 -49 -18
-45 19 -82 18 -82 -1 0 -8 8 -15 18 -15 9 0 24 -5 32 -10 11 -7 6 -8 -17 -4
-22 4 -33 3 -33 -5 0 -6 15 -12 33 -12 27 -1 24 -3 -17 -11 -27 -5 -70 -8 -95
-6 -37 2 -45 6 -43 21 3 19 -8 23 -23 8 -14 -14 -142 -29 -157 -19 -10 6 -8 8
5 8 29 0 20 30 -10 31 l-28 2 28 4 c15 2 27 8 27 13 0 5 12 10 28 12 21 2 28
9 30 31 4 36 49 40 54 5 2 -15 11 -24 26 -26 18 -3 22 1 22 23 0 24 3 26 23
20 12 -4 33 -8 47 -10 14 -2 32 -6 41 -9 10 -5 22 2 35 19 22 30 27 32 20 7z
m4206 -74 c-6 -6 -8 -1 -7 14 3 32 7 36 12 14 3 -10 1 -22 -5 -28z m278 -148
c0 -5 -4 -10 -10 -10 -5 0 -10 5 -10 10 0 6 5 10 10 10 6 0 10 -4 10 -10z
m-75 -50 c3 -5 -1 -10 -10 -10 -9 0 -13 5 -10 10 3 6 8 10 10 10 2 0 7 -4 10
-10z m340 0 c4 -6 -22 -10 -70 -10 -48 0 -74 4 -70 10 3 6 35 10 70 10 35 0
67 -4 70 -10z m-465 -10 c-17 -11 -81 -11 -125 0 -21 5 -5 8 55 9 58 0 80 -2
70 -9z m3135 -10 c3 -5 -3 -10 -15 -10 -12 0 -18 5 -15 10 3 6 10 10 15 10 5
0 12 -4 15 -10z m-106 -168 c1 -40 -3 -61 -9 -57 -6 4 -9 50 -9 108 1 84 3 94
10 57 4 -25 8 -73 8 -108z m169 141 c-10 -2 -26 -2 -35 0 -10 3 -2 5 17 5 19
0 27 -2 18 -5z m87 -213 c3 -5 -1 -10 -9 -10 -9 0 -16 5 -16 10 0 6 4 10 9 10
6 0 13 -4 16 -10z m-361 -437 c6 3 12 -4 12 -14 0 -11 -4 -19 -8 -19 -10 0
-28 35 -27 52 1 7 3 5 6 -5 3 -10 10 -16 17 -14z m-76 -66 c-9 -6 -20 -21 -26
-32 -6 -11 -12 -15 -12 -9 0 15 41 66 48 59 3 -3 -1 -11 -10 -18z m52 13 c0
-5 -4 -10 -10 -10 -5 0 -10 5 -10 10 0 6 5 10 10 10 6 0 10 -4 10 -10z m1030
0 c0 -5 -4 -10 -10 -10 -5 0 -10 5 -10 10 0 6 5 10 10 10 6 0 10 -4 10 -10z
m-990 -40 c0 -11 -4 -20 -10 -20 -5 0 -10 9 -10 20 0 11 5 20 10 20 6 0 10 -9
10 -20z m505 -26 c62 -45 118 -66 189 -71 39 -2 72 -6 75 -8 11 -12 -48 -20
-96 -14 -36 5 -62 4 -73 -3 -10 -7 -25 -8 -36 -3 -11 4 -29 7 -41 6 -17 -2
-21 2 -17 13 3 9 1 16 -5 16 -6 0 -11 -5 -11 -11 0 -6 -12 -9 -27 -7 -23 2
-27 7 -25 26 3 22 -13 31 -20 11 -4 -11 -58 -23 -58 -14 0 15 66 75 82 75 12
0 17 4 12 12 -8 13 6 5 51 -28z m-539 -9 c-7 -18 -37 -17 -44 3 -2 7 2 10 12
6 11 -4 16 0 16 12 0 13 3 15 11 7 7 -7 9 -19 5 -28z m-53 0 c2 -15 0 -24 -6
-22 -12 4 -18 47 -6 47 3 0 9 -11 12 -25z m15 -63 c2 -7 -3 -12 -12 -12 -9 0
-16 7 -16 16 0 17 22 14 28 -4z m1450 -14 c-2 -17 -9 -22 -23 -20 -26 5 -29 8
-22 27 4 8 16 15 27 15 16 0 21 -5 18 -22z m-981 -4 c-3 -3 -12 -4 -19 -1 -8
3 -5 6 6 6 11 1 17 -2 13 -5z m423 -4 c0 -5 -7 -10 -15 -10 -8 0 -15 5 -15 10
0 6 7 10 15 10 8 0 15 -4 15 -10z m45 0 c3 -5 1 -10 -4 -10 -6 0 -11 5 -11 10
0 6 2 10 4 10 3 0 8 -4 11 -10z m-909 -33 c2 -21 0 -25 -10 -15 -7 7 -15 21
-19 31 -5 14 -3 18 9 15 10 -2 18 -15 20 -31z m889 -14 c-28 -20 -41 -16 -20
7 10 11 22 17 28 13 6 -4 3 -12 -8 -20z m-945 -1 c0 -14 -11 -21 -26 -15 -21
8 -17 23 6 23 11 0 20 -4 20 -8z m825 -2 c4 -6 -5 -10 -19 -10 -14 0 -26 5
-26 10 0 6 9 10 19 10 11 0 23 -4 26 -10z m-6979 -83 c-11 -7 -35 -28 -54 -47
-25 -26 -35 -31 -41 -21 -6 9 -10 10 -16 2 -3 -6 -21 -18 -38 -25 l-32 -14 33
-1 c17 -1 32 4 32 9 0 6 5 10 10 10 6 0 10 -6 10 -14 0 -15 -21 -26 -52 -26
-11 0 -22 -8 -25 -20 -4 -16 -14 -20 -44 -20 -27 0 -39 -4 -39 -14 0 -17 -50
-30 -82 -22 -13 3 -17 3 -10 0 25 -12 11 -24 -28 -24 -22 0 -40 -4 -40 -10 0
-5 -9 -10 -21 -10 -12 0 -23 -8 -26 -20 -4 -14 -14 -20 -32 -20 -21 0 -23 2
-11 11 12 9 12 10 -3 5 -10 -3 -23 -6 -28 -6 -6 0 -8 -4 -5 -9 3 -5 -1 -15
-10 -22 -13 -10 -17 -10 -25 2 -8 10 -9 9 -4 -7 5 -18 -2 -25 -40 -43 -24 -11
-53 -21 -62 -20 -10 0 -3 6 15 13 18 6 30 14 27 18 -4 3 -18 0 -33 -8 -15 -8
-35 -14 -44 -14 -9 0 -20 -4 -23 -10 -3 -5 -23 -17 -43 -26 -77 -34 -107 -49
-110 -56 -2 -5 -8 -8 -13 -8 -12 0 -83 -32 -227 -102 -57 -28 -105 -48 -108
-46 -5 6 80 48 96 48 5 0 10 5 10 11 0 15 -83 -11 -95 -30 -3 -6 -11 -11 -18
-11 -23 0 10 20 128 78 209 103 234 114 245 107 5 -3 13 1 16 9 3 9 12 16 19
16 7 0 15 3 17 8 3 7 29 20 248 125 63 30 173 82 243 116 70 33 131 61 135 61
4 0 48 21 97 45 50 24 97 44 105 44 11 0 10 -3 -4 -12z m6294 -97 c0 -5 -4
-10 -10 -10 -5 0 -10 5 -10 10 0 6 5 10 10 10 6 0 10 -4 10 -10z m1160 0 c-19
-13 -30 -13 -30 0 0 6 10 10 23 10 18 0 19 -2 7 -10z m-7513 -46 c-3 -3 -12
-4 -19 -1 -8 3 -5 6 6 6 11 1 17 -2 13 -5z m6963 -48 c-6 -20 -16 -36 -21 -36
-12 0 -1 43 12 48 5 2 9 11 9 20 0 8 3 13 6 9 3 -3 1 -22 -6 -41z m57 16 c8
-5 8 -13 -2 -32 -9 -15 -15 -19 -15 -10 0 8 -9 -4 -20 -27 -11 -26 -26 -43
-36 -43 -16 0 -16 2 -1 18 8 9 23 36 32 60 18 43 22 47 42 34z m-7189 -39
c-10 -2 -18 -9 -18 -15 0 -6 -3 -9 -6 -5 -10 10 6 27 24 26 15 -1 15 -2 0 -6z
m7082 -23 c0 -5 -4 -10 -10 -10 -5 0 -10 5 -10 10 0 6 5 10 10 10 6 0 10 -4
10 -10z m-7220 -60 c0 -5 -8 -10 -17 -10 -15 0 -16 2 -3 10 19 12 20 12 20 0z
m-340 -100 c0 -6 -8 -13 -17 -16 -10 -4 -37 -15 -60 -25 -59 -26 -78 -23 -23
4 25 11 51 27 58 34 16 16 42 17 42 3z m-174 -85 c-25 -19 -41 -19 -24 0 7 8
20 14 28 14 11 0 10 -3 -4 -14z m-51 -25 c-3 -5 -12 -10 -18 -10 -7 0 -6 4 3
10 19 12 23 12 15 0z m-40 -20 c-3 -5 -10 -10 -16 -10 -5 0 -9 5 -9 10 0 6 7
10 16 10 8 0 12 -4 9 -10z m-85 -38 c0 -14 -48 -33 -55 -22 -4 6 3 10 14 10
11 0 23 5 26 10 8 12 15 13 15 2z m-230 -42 c-8 -5 -19 -10 -25 -10 -5 0 -3 5
5 10 8 5 20 10 25 10 6 0 3 -5 -5 -10z m150 0 c-8 -5 -22 -10 -30 -10 -13 0
-13 1 0 10 8 5 22 10 30 10 13 0 13 -1 0 -10z m-140 -30 c-26 -20 -40 -25 -40
-14 0 11 34 33 50 33 10 1 6 -6 -10 -19z m-123 -56 c-3 -3 -12 -4 -19 -1 -8 3
-5 6 6 6 11 1 17 -2 13 -5z"/>
<path d="M5373 3740 c0 -47 2 -66 4 -42 2 23 2 61 0 85 -2 23 -4 4 -4 -43z"/>
<path d="M5413 3700 c0 -25 2 -35 4 -22 2 12 2 32 0 45 -2 12 -4 2 -4 -23z"/>
<path d="M5393 3580 c0 -47 2 -66 4 -42 2 23 2 61 0 85 -2 23 -4 4 -4 -43z"/>
<path d="M5423 3540 c0 -25 2 -35 4 -22 2 12 2 32 0 45 -2 12 -4 2 -4 -23z"/>
<path d="M5372 3463 c-1 -23 -8 -44 -14 -47 -7 -3 -2 -4 12 -3 20 2 25 8 26
32 l1 30 -5 -30 c-5 -28 -6 -27 -12 15 l-7 45 -1 -42z"/>
<path d="M5280 3405 c0 -8 2 -15 4 -15 2 0 6 7 10 15 3 8 1 15 -4 15 -6 0 -10
-7 -10 -15z"/>
<path d="M5661 4024 c0 -11 3 -14 6 -6 3 7 2 16 -1 19 -3 4 -6 -2 -5 -13z"/>
<path d="M5820 3961 c0 -6 4 -13 10 -16 6 -3 7 1 4 9 -7 18 -14 21 -14 7z"/>
<path d="M5760 3931 c0 -6 4 -13 10 -16 6 -3 7 1 4 9 -7 18 -14 21 -14 7z"/>
<path d="M5711 3839 c-7 -12 -10 -23 -8 -26 3 -3 11 5 17 17 15 28 8 35 -9 9z"/>
<path d="M5676 3841 c-12 -5 -15 -10 -9 -14 6 -4 16 0 23 8 14 17 13 17 -14 6z"/>
<path d="M5600 3807 c0 -15 -7 -30 -15 -33 -8 -4 -15 -11 -15 -16 0 -13 28 10
40 32 5 9 5 22 -1 31 -6 10 -9 7 -9 -14z"/>
<path d="M5800 3810 c-9 -6 -10 -10 -3 -10 6 0 15 5 18 10 8 12 4 12 -15 0z"/>
<path d="M5630 3789 c0 -5 5 -7 10 -4 6 3 10 8 10 11 0 2 -4 4 -10 4 -5 0 -10
-5 -10 -11z"/>
<path d="M5758 3772 c-7 -11 -26 -26 -43 -35 -16 -9 -26 -16 -22 -17 15 0 62
28 81 49 11 12 14 21 8 21 -6 0 -17 -8 -24 -18z"/>
<path d="M5631 3747 c-13 -21 -12 -21 5 -5 10 10 16 20 13 22 -3 3 -11 -5 -18
-17z"/>
<path d="M5583 3712 c-16 -26 0 -51 21 -33 9 8 16 18 16 23 0 6 -6 6 -14 -1
-12 -10 -13 -8 -9 8 7 26 1 27 -14 3z"/>
<path d="M5631 3686 c-16 -19 -11 -29 8 -17 7 5 12 14 9 21 -3 9 -8 7 -17 -4z"/>
<path d="M5720 3660 c0 -5 -6 -10 -14 -10 -8 0 -13 -10 -13 -25 0 -14 5 -25
12 -25 14 0 27 -37 15 -45 -14 -9 -19 -45 -6 -45 7 0 17 17 22 38 5 20 14 36
19 35 6 -1 11 11 12 25 1 26 1 26 -13 7 -13 -17 -16 -18 -24 -5 -5 8 -7 25 -3
37 3 13 2 23 -1 23 -3 0 -6 -4 -6 -10z"/>
<path d="M5786 3661 c-4 -7 -5 -15 -2 -18 9 -9 19 4 14 18 -4 11 -6 11 -12 0z"/>
<path d="M5640 3642 c0 -4 9 -8 20 -8 11 0 20 4 20 8 0 4 -9 8 -20 8 -11 0
-20 -4 -20 -8z"/>
<path d="M5947 3633 c-4 -3 -7 -11 -7 -17 0 -6 5 -5 12 2 6 6 9 14 7 17 -3 3
-9 2 -12 -2z"/>
<path d="M5636 3605 c4 -8 11 -15 16 -15 6 0 5 6 -2 15 -7 8 -14 15 -16 15 -2
0 -1 -7 2 -15z"/>
<path d="M6030 3600 c-8 -5 -12 -12 -9 -15 4 -3 12 1 19 10 14 17 11 19 -10 5z"/>
<path d="M5785 3590 c3 -5 8 -10 11 -10 2 0 4 5 4 10 0 6 -5 10 -11 10 -5 0
-7 -4 -4 -10z"/>
<path d="M5770 3560 c0 -5 7 -7 15 -4 8 4 15 8 15 10 0 2 -7 4 -15 4 -8 0 -15
-4 -15 -10z"/>
<path d="M5750 3540 c0 -13 18 -22 24 -11 3 5 -1 11 -9 15 -8 3 -15 1 -15 -4z"/>
<path d="M5910 3510 c0 -5 5 -10 10 -10 6 0 10 5 10 10 0 6 -4 10 -10 10 -5 0
-10 -4 -10 -10z"/>
<path d="M5735 3500 c-3 -5 -1 -10 4 -10 6 0 11 5 11 10 0 6 -2 10 -4 10 -3 0
-8 -4 -11 -10z"/>
<path d="M1120 3586 c0 -9 5 -16 10 -16 6 0 10 4 10 9 0 6 -4 13 -10 16 -5 3
-10 -1 -10 -9z"/>
<path d="M1200 3585 c0 -9 5 -15 11 -13 6 2 11 8 11 13 0 5 -5 11 -11 13 -6 2
-11 -4 -11 -13z"/>
<path d="M1213 3533 c9 -2 23 -2 30 0 6 3 -1 5 -18 5 -16 0 -22 -2 -12 -5z"/>
<path d="M9008 2558 c5 -5 16 -8 23 -6 8 3 3 7 -10 11 -17 4 -21 3 -13 -5z"/>
<path d="M2066 2205 c-3 -8 -1 -15 4 -15 6 0 10 7 10 15 0 8 -2 15 -4 15 -2 0
-6 -7 -10 -15z"/>
<path d="M2020 2170 c-13 -8 -12 -10 3 -10 9 0 17 5 17 10 0 12 -1 12 -20 0z"/>
<path d="M1710 2020 c0 -5 7 -10 15 -10 8 0 15 5 15 10 0 6 -7 10 -15 10 -8 0
-15 -4 -15 -10z"/>
<path d="M1610 2000 c-9 -6 -10 -10 -3 -10 6 0 15 5 18 10 8 12 4 12 -15 0z"/>
<path d="M1355 1880 c-3 -6 1 -7 9 -4 18 7 21 14 7 14 -6 0 -13 -4 -16 -10z"/>
<path d="M1270 1845 c-7 -8 -27 -20 -44 -25 -30 -9 -29 -10 8 -4 39 5 96 44
64 44 -9 0 -21 -7 -28 -15z"/>
<path d="M7694 5284 c-18 -15 -18 -15 3 -5 12 6 29 8 39 4 12 -4 15 -3 10 5
-10 16 -28 15 -52 -4z"/>
<path d="M7602 5248 c2 -6 10 -13 16 -14 7 -1 8 0 2 3 -5 2 -8 9 -4 14 3 5 0
9 -6 9 -7 0 -10 -5 -8 -12z"/>
<path d="M7463 5168 c-13 -6 -23 -15 -23 -20 0 -8 17 -1 50 22 20 13 1 12 -27
-2z"/>
<path d="M7483 5144 c-24 -14 -43 -27 -43 -30 0 -6 67 33 85 48 17 15 1 8 -42
-18z"/>
<path d="M7350 5090 c-8 -5 -10 -10 -5 -10 6 0 17 5 25 10 8 5 11 10 5 10 -5
0 -17 -5 -25 -10z"/>
<path d="M7375 5079 l-20 -21 28 13 c15 7 27 16 27 21 0 13 -14 8 -35 -13z"/>
<path d="M7380 4976 c0 -3 9 -10 20 -16 11 -6 20 -8 20 -6 0 3 -9 10 -20 16
-11 6 -20 8 -20 6z"/>
<path d="M7450 4930 c14 -11 29 -20 34 -20 5 0 -3 9 -17 20 -14 11 -29 20 -34
20 -4 0 3 -9 17 -20z"/>
<path d="M7440 4905 c0 -8 61 -36 70 -33 5 2 -9 11 -30 20 -22 9 -40 15 -40
13z"/>
<path d="M7516 4895 c10 -8 23 -15 28 -15 6 0 1 7 -10 15 -10 8 -23 15 -28 15
-6 0 -1 -7 10 -15z"/>
<path d="M7458 4863 c7 -3 16 -2 19 1 4 3 -2 6 -13 5 -11 0 -14 -3 -6 -6z"/>
<path d="M7608 4833 c7 -3 16 -2 19 1 4 3 -2 6 -13 5 -11 0 -14 -3 -6 -6z"/>
<path d="M7638 4783 c7 -3 16 -2 19 1 4 3 -2 6 -13 5 -11 0 -14 -3 -6 -6z"/>
<path d="M7757 4749 c7 -7 15 -10 18 -7 3 3 -2 9 -12 12 -14 6 -15 5 -6 -5z"/>
<path d="M4175 4660 c3 -5 8 -10 11 -10 2 0 4 5 4 10 0 6 -5 10 -11 10 -5 0
-7 -4 -4 -10z"/>
<path d="M7922 4654 c10 -10 20 -16 22 -13 3 3 -5 11 -17 18 -21 13 -21 12 -5
-5z"/>
<path d="M6193 4460 c0 -47 2 -66 4 -42 2 23 2 61 0 85 -2 23 -4 4 -4 -43z"/>
<path d="M6211 4524 c0 -11 3 -14 6 -6 3 7 2 16 -1 19 -3 4 -6 -2 -5 -13z"/>
<path d="M8322 4414 c10 -10 20 -16 22 -13 3 3 -5 11 -17 18 -21 13 -21 12 -5
-5z"/>
<path d="M3956 4020 c2 -146 9 -474 14 -730 5 -256 10 -526 11 -600 0 -74 3
-168 6 -208 l6 -73 46 1 c25 0 61 -2 79 -6 l32 -6 0 89 0 90 -42 0 c-73 1
-113 4 -102 9 8 3 10 42 7 122 -14 436 -14 482 2 488 19 8 20 24 0 24 -12 0
-15 17 -16 88 -2 248 -10 397 -21 394 -8 -2 -8 1 -1 10 6 7 10 33 8 58 -1 25
-6 135 -10 245 -11 305 -24 308 -19 5z m124 -1580 c0 -5 -4 -10 -10 -10 -5 0
-10 5 -10 10 0 6 5 10 10 10 6 0 10 -4 10 -10z"/>
<path d="M9110 3946 c0 -3 9 -10 20 -16 11 -6 20 -8 20 -6 0 3 -9 10 -20 16
-11 6 -20 8 -20 6z"/>
<path d="M9089 3921 c11 -7 11 -9 0 -14 -8 -2 -2 -4 14 -3 24 1 25 2 10 14 -9
6 -22 12 -27 12 -6 0 -5 -4 3 -9z"/>
<path d="M9198 3913 c23 -2 61 -2 85 0 23 2 4 4 -43 4 -47 0 -66 -2 -42 -4z"/>
<path d="M4073 3703 c-7 -2 -13 -17 -12 -31 0 -26 1 -26 9 -4 5 12 16 22 25
22 8 0 15 5 15 10 0 10 -16 12 -37 3z"/>
<path d="M4174 3618 c3 -51 5 -150 6 -220 0 -81 4 -128 10 -128 7 0 9 34 6 98
-2 53 -5 152 -5 220 -1 82 -5 122 -12 122 -8 0 -9 -28 -5 -92z"/>
<path d="M3675 3690 c-3 -5 -1 -10 4 -10 6 0 11 5 11 10 0 6 -2 10 -4 10 -3 0
-8 -4 -11 -10z"/>
<path d="M3715 3560 c4 -80 10 -147 12 -150 3 -3 3 59 0 138 -3 79 -8 146 -12
150 -4 4 -3 -58 0 -138z"/>
<path d="M4840 3659 c0 -11 5 -17 10 -14 6 3 10 13 10 21 0 8 -4 14 -10 14 -5
0 -10 -9 -10 -21z"/>
<path d="M3926 3578 c-5 -32 -5 -66 0 -75 6 -14 9 -9 12 20 2 20 2 54 0 75 -3
34 -4 32 -12 -20z"/>
<path d="M2980 3590 c0 -5 5 -10 10 -10 6 0 10 5 10 10 0 6 -4 10 -10 10 -5 0
-10 -4 -10 -10z"/>
<path d="M3492 3550 c0 -14 2 -19 5 -12 2 6 2 18 0 25 -3 6 -5 1 -5 -13z"/>
<path d="M4061 3554 c0 -11 3 -14 6 -6 3 7 2 16 -1 19 -3 4 -6 -2 -5 -13z"/>
<path d="M4060 3520 c0 -5 5 -10 10 -10 6 0 10 5 10 10 0 6 -4 10 -10 10 -5 0
-10 -4 -10 -10z"/>
<path d="M4071 3388 c0 -65 3 -118 7 -118 4 0 6 46 4 103 -4 145 -9 152 -11
15z"/>
<path d="M3051 3446 c-12 -22 -13 -55 -2 -219 16 -264 29 -307 29 -97 0 91 -3
205 -7 254 -6 85 -7 88 -20 62z"/>
<path d="M3453 3405 c0 -38 2 -53 4 -32 2 20 2 52 0 70 -2 17 -4 1 -4 -38z"/>
<path d="M3591 3454 c0 -11 3 -14 6 -6 3 7 2 16 -1 19 -3 4 -6 -2 -5 -13z"/>
<path d="M3920 3438 c0 -19 2 -20 10 -8 13 19 13 30 0 30 -5 0 -10 -10 -10
-22z"/>
<path d="M3685 3441 c-3 -5 -1 -12 5 -16 5 -3 10 1 10 9 0 18 -6 21 -15 7z"/>
<path d="M3271 3414 c0 -11 3 -14 6 -6 3 7 2 16 -1 19 -3 4 -6 -2 -5 -13z"/>
<path d="M3377 3363 c-3 -5 -1 -37 3 -73 l7 -65 2 73 c1 68 -2 82 -12 65z"/>
<path d="M3452 3300 c0 -14 2 -19 5 -12 2 6 2 18 0 25 -3 6 -5 1 -5 -13z"/>
<path d="M3732 3300 c0 -14 2 -19 5 -12 2 6 2 18 0 25 -3 6 -5 1 -5 -13z"/>
<path d="M3162 3270 c0 -19 2 -27 5 -17 2 9 2 25 0 35 -3 9 -5 1 -5 -18z"/>
<path d="M5528 3273 c6 -2 18 -2 25 0 6 3 1 5 -13 5 -14 0 -19 -2 -12 -5z"/>
<path d="M3731 3254 c-2 -34 11 -84 21 -84 5 0 6 4 3 10 -3 5 -10 29 -14 52
-5 24 -9 33 -10 22z"/>
<path d="M4075 3220 c3 -25 10 -49 16 -55 12 -12 1 64 -13 85 -6 10 -7 1 -3
-30z"/>
<path d="M4185 3247 c-4 -10 -3 -35 3 -55 6 -20 8 -50 6 -67 -3 -16 -1 -55 4
-85 8 -50 9 -45 10 57 1 118 -9 183 -23 150z"/>
<path d="M4105 3230 c-3 -5 -1 -10 4 -10 6 0 11 5 11 10 0 6 -2 10 -4 10 -3 0
-8 -4 -11 -10z"/>
<path d="M3511 3184 c0 -11 3 -14 6 -6 3 7 2 16 -1 19 -3 4 -6 -2 -5 -13z"/>
<path d="M4084 3136 c-3 -7 -4 -35 -2 -62 l3 -49 5 63 c5 63 4 73 -6 48z"/>
<path d="M3513 3060 c0 -25 2 -35 4 -22 2 12 2 32 0 45 -2 12 -4 2 -4 -23z"/>
<path d="M3742 3070 c0 -19 2 -27 5 -17 2 9 2 25 0 35 -3 9 -5 1 -5 -18z"/>
<path d="M3747 2979 c3 -51 8 -68 18 -57 8 7 -6 108 -14 108 -3 0 -5 -23 -4
-51z"/>
<path d="M4092 2985 c0 -22 3 -65 8 -95 l7 -55 1 45 c0 25 -3 68 -8 95 -7 48
-7 49 -8 10z"/>
<path d="M3431 2994 c0 -11 3 -14 6 -6 3 7 2 16 -1 19 -3 4 -6 -2 -5 -13z"/>
<path d="M3558 2973 c7 -3 16 -2 19 1 4 3 -2 6 -13 5 -11 0 -14 -3 -6 -6z"/>
<path d="M3695 2970 c3 -5 8 -10 11 -10 2 0 4 5 4 10 0 6 -5 10 -11 10 -5 0
-7 -4 -4 -10z"/>
<path d="M4028 2943 c7 -3 16 -2 19 1 4 3 -2 6 -13 5 -11 0 -14 -3 -6 -6z"/>
<path d="M3646 2745 c1 -110 3 -267 5 -349 l3 -148 44 6 c25 3 68 6 96 6 l51
0 -3 232 c-3 218 -4 236 -25 276 -19 37 -20 44 -7 52 13 8 12 11 -5 24 -11 8
-20 23 -20 33 0 25 -39 24 -44 -2 -2 -11 -8 -23 -13 -26 -5 -3 -17 -21 -26
-39 -29 -57 -38 -47 -48 47 -8 76 -9 60 -8 -112z m64 -135 c0 -22 4 -40 9 -40
5 0 7 15 4 34 -5 41 7 50 54 41 27 -5 33 -9 22 -16 -11 -7 -11 -9 0 -9 10 0
11 -3 2 -14 -9 -11 -9 -15 1 -19 7 -3 -1 -6 -18 -6 -48 -1 -79 -22 -82 -55 -2
-16 -8 -39 -12 -50 -7 -16 -9 -7 -11 34 -2 52 -2 100 0 128 1 6 8 12 16 12 11
0 15 -11 15 -40z m25 -152 l7 -68 34 0 c24 0 34 -5 34 -15 0 -8 0 -18 0 -22 0
-5 -21 -10 -46 -13 -64 -7 -68 -26 -7 -25 27 0 49 -4 51 -10 1 -6 -24 -10 -60
-10 l-63 0 -5 57 c-3 31 -2 54 3 51 9 -5 37 22 37 36 0 6 -6 11 -12 12 -10 0
-10 2 0 6 7 3 12 24 13 51 2 56 5 41 14 -50z"/>
<path d="M4211 2914 c0 -11 3 -14 6 -6 3 7 2 16 -1 19 -3 4 -6 -2 -5 -13z"/>
<path d="M4113 2790 c0 -25 2 -35 4 -22 2 12 2 32 0 45 -2 12 -4 2 -4 -23z"/>
<path d="M8331 2794 c0 -11 3 -14 6 -6 3 7 2 16 -1 19 -3 4 -6 -2 -5 -13z"/>
<path d="M8635 2789 c-4 -6 -5 -12 -2 -15 2 -3 7 2 10 11 7 17 1 20 -8 4z"/>
<path d="M8596 2764 c-8 -21 -8 -24 3 -24 5 0 11 9 14 20 6 24 -8 27 -17 4z"/>
<path d="M3564 2685 c0 -49 1 -71 3 -48 2 23 2 64 0 90 -2 26 -3 8 -3 -42z"/>
<path d="M9978 2763 c7 -3 16 -2 19 1 4 3 -2 6 -13 5 -11 0 -14 -3 -6 -6z"/>
<path d="M4123 2680 c0 -36 2 -50 4 -32 2 17 2 47 0 65 -2 17 -4 3 -4 -33z"/>
<path d="M3881 2652 c0 -19 -5 -31 -11 -27 -5 3 -10 -2 -10 -12 0 -16 1 -16
16 -1 10 9 14 26 11 44 -4 28 -4 28 -6 -4z"/>
<path d="M3861 2654 c0 -11 3 -14 6 -6 3 7 2 16 -1 19 -3 4 -6 -2 -5 -13z"/>
<path d="M8332 2610 c0 -19 2 -27 5 -17 2 9 2 25 0 35 -3 9 -5 1 -5 -18z"/>
<path d="M3158 2603 c7 -3 16 -2 19 1 4 3 -2 6 -13 5 -11 0 -14 -3 -6 -6z"/>
<path d="M3860 2490 c1 -97 2 -103 16 -85 13 16 14 35 9 95 -10 116 -25 110
-25 -10z"/>
<path d="M3149 2563 c-6 -139 -5 -153 19 -153 22 0 23 2 20 82 -3 70 -6 83
-20 86 -12 2 -18 -3 -19 -15z"/>
<path d="M3210 2496 l0 -86 35 0 36 0 -3 83 -3 82 -32 3 -33 3 0 -85z"/>
<path d="M3291 2494 l3 -84 39 0 c34 0 39 3 34 20 -3 11 -1 23 4 26 5 3 9 -6
9 -20 0 -23 4 -26 34 -26 40 0 43 8 38 102 l-4 66 -79 0 -80 0 2 -84z"/>
<path d="M3470 2496 c0 -88 4 -96 51 -96 17 0 19 8 19 90 l0 90 -35 0 -35 0 0
-84z"/>
<path d="M3562 2493 l3 -88 33 -3 33 -3 -3 88 -3 88 -33 3 -33 3 3 -88z"/>
<path d="M4171 2489 l2 -89 33 0 34 0 -5 82 c-3 45 -6 83 -8 84 -1 2 -15 5
-30 8 l-28 5 2 -90z"/>
<path d="M4272 2480 c3 -84 4 -90 23 -88 18 3 20 12 23 91 l3 87 -26 0 -27 0
4 -90z"/>
<path d="M4381 2491 c1 -43 -2 -84 -6 -91 -5 -8 -1 -11 11 -8 17 3 19 15 22
91 2 74 0 87 -13 87 -14 0 -16 -12 -14 -79z"/>
<path d="M5048 2513 c28 -2 76 -2 105 0 28 2 5 3 -53 3 -58 0 -81 -1 -52 -3z"/>
<path d="M4915 2490 l-40 -6 40 -6 40 -5 -37 -1 c-21 -1 -38 -6 -38 -12 0 -5
5 -10 10 -10 6 0 10 -6 10 -14 0 -8 7 -16 15 -20 8 -3 12 -12 9 -21 -7 -18
-34 -20 -34 -2 0 9 -3 9 -9 -1 -6 -10 -10 -7 -15 12 -9 36 -36 34 -36 -1 1
-16 -1 -39 -3 -53 l-5 -25 307 3 c234 2 311 6 327 17 11 7 49 21 85 30 96 25
97 26 77 34 -9 3 17 7 59 8 41 0 79 5 84 10 4 4 -16 7 -44 5 -29 -2 -68 1 -87
6 -24 6 77 10 310 11 189 1 346 4 349 7 2 2 -155 5 -350 5 -195 1 -478 5 -629
8 l-275 7 339 2 c187 1 337 4 335 6 -7 8 -753 14 -794 6z"/>
<path d="M5787 2483 c18 -2 50 -2 70 0 21 2 7 4 -32 4 -38 0 -55 -2 -38 -4z"/>
<path d="M6388 2453 c18 -2 45 -2 60 0 15 2 0 4 -33 4 -33 0 -45 -2 -27 -4z"/>
<path d="M6513 2453 c9 -2 23 -2 30 0 6 3 -1 5 -18 5 -16 0 -22 -2 -12 -5z"/>
<path d="M6618 2453 c7 -3 16 -2 19 1 4 3 -2 6 -13 5 -11 0 -14 -3 -6 -6z"/>
<path d="M6698 2453 c7 -3 16 -2 19 1 4 3 -2 6 -13 5 -11 0 -14 -3 -6 -6z"/>
<path d="M6938 2453 c7 -3 16 -2 19 1 4 3 -2 6 -13 5 -11 0 -14 -3 -6 -6z"/>
<path d="M7938 2453 c12 -2 32 -2 45 0 12 2 2 4 -23 4 -25 0 -35 -2 -22 -4z"/>
<path d="M4722 2403 c-13 -3 -26 -11 -29 -20 -5 -12 -7 -12 -14 -2 -12 19 -20
6 -26 -40 l-6 -41 46 0 c25 0 49 5 52 10 3 6 17 10 31 10 13 0 24 5 24 11 0
16 -40 79 -48 78 -4 -1 -17 -4 -30 -6z"/>
<path d="M4800 2390 c0 -5 5 -10 11 -10 5 0 7 5 4 10 -3 6 -8 10 -11 10 -2 0
-4 -4 -4 -10z"/>
<path d="M4570 2321 c-22 -6 -23 -8 -7 -14 31 -12 69 -8 65 6 -6 15 -25 18
-58 8z"/>
<path d="M5563 2320 c-13 -5 -23 -13 -23 -18 0 -5 -19 -22 -42 -38 -24 -15
-55 -39 -70 -53 -33 -29 -35 -23 -8 29 11 22 20 46 20 54 0 8 6 16 13 19 6 2
0 4 -15 3 -14 0 -24 -4 -21 -8 2 -5 -3 -8 -12 -8 -32 0 -76 -35 -95 -75 -30
-61 -27 -71 23 -79 61 -10 83 -28 106 -91 16 -43 21 -79 21 -153 0 -148 -5
-166 -49 -182 -33 -11 -130 -103 -131 -123 0 -5 -15 -27 -33 -50 -84 -105
-161 -278 -173 -387 -4 -30 -10 -59 -14 -65 -4 -5 -11 -35 -14 -65 -3 -30 -13
-82 -21 -115 -8 -33 -15 -78 -15 -100 0 -22 -9 -76 -20 -120 -12 -44 -23 -97
-25 -119 -3 -21 -10 -45 -16 -53 -7 -7 -13 -38 -15 -69 -4 -76 -12 -123 -35
-212 -16 -63 -26 -82 -58 -112 -58 -52 -80 -70 -90 -70 -5 0 -11 -7 -15 -15
-3 -8 -12 -15 -20 -15 -7 0 -16 -7 -20 -15 -5 -13 294 -15 2649 -15 l2655 0 0
149 c0 143 -1 150 -21 156 -11 4 -23 4 -26 1 -4 -3 -2 -6 4 -6 6 0 13 -9 16
-20 6 -24 8 -24 -39 -4 -22 9 -73 18 -114 20 -41 2 -111 15 -155 29 -44 13
-105 32 -135 40 -30 9 -61 19 -69 22 -9 3 -11 1 -7 -6 11 -17 -10 -13 -28 5
-19 18 -120 31 -129 16 -8 -11 50 -25 66 -15 6 3 7 1 3 -5 -4 -6 5 -29 20 -52
22 -33 24 -43 14 -55 -10 -12 -9 -16 4 -21 9 -3 16 -11 16 -16 0 -15 -43 -1
-100 32 -28 17 -60 30 -70 30 -11 0 -20 4 -20 8 0 13 -95 40 -128 36 -68 -8
-300 88 -604 249 -113 61 -132 65 -163 40 -11 -9 -14 -14 -5 -11 21 8 60 -9
60 -25 0 -8 21 -33 48 -56 83 -73 85 -76 69 -79 -14 -3 -191 63 -239 89 -10 5
-48 18 -85 30 -38 11 -89 31 -114 45 -54 28 -81 31 -73 9 4 -9 19 -15 37 -15
28 0 29 -1 12 -13 -15 -12 -16 -16 -4 -23 14 -9 130 -71 189 -101 80 -41 59
-56 -50 -37 -64 11 -111 27 -190 67 -190 96 -255 132 -267 147 -15 19 -24 10
-17 -17 4 -14 16 -23 33 -26 14 -2 -1 -4 -34 -4 -33 -1 -52 1 -43 4 23 6 13
15 -64 66 -31 21 -60 42 -63 47 -10 16 -35 11 -35 -6 0 -9 9 -18 21 -21 14 -4
17 -8 9 -13 -8 -5 4 -19 34 -39 25 -18 46 -35 46 -38 0 -9 -82 5 -89 15 -11
17 -83 72 -95 72 -6 0 -20 -7 -31 -16 -16 -12 -17 -16 -6 -23 7 -5 22 -6 32
-4 23 6 26 -12 3 -21 -25 -9 -64 -7 -64 4 0 6 -9 10 -19 10 -10 0 -21 7 -24
14 -9 22 -87 41 -98 24 -8 -11 -10 -11 -18 0 -4 8 -17 12 -27 9 -17 -4 -17 -6
4 -12 21 -7 29 -25 16 -37 -8 -9 -104 65 -104 80 0 6 -12 12 -27 12 -22 0 -25
2 -13 10 13 8 12 11 -5 24 -27 21 -81 36 -127 36 -21 0 -38 5 -38 10 0 6 19
10 43 11 37 0 39 1 18 10 -24 10 -121 2 -121 -10 0 -16 58 -73 90 -89 19 -9
41 -29 48 -44 14 -29 64 -72 129 -109 23 -13 51 -40 63 -60 25 -45 26 -57 3
-37 -21 17 -86 48 -102 48 -6 0 -11 5 -11 10 0 6 -7 10 -15 10 -9 0 -45 32
-82 70 -37 39 -71 70 -75 70 -5 0 -19 9 -31 20 -12 11 -28 18 -36 15 -20 -8
-66 36 -49 46 18 11 -1 28 -37 35 -37 7 -45 12 -45 30 0 8 -7 14 -15 14 -8 0
-15 5 -15 12 0 9 -3 9 -12 0 -7 -7 -26 -11 -42 -11 -17 1 -23 3 -13 6 30 8 19
25 -12 18 -16 -3 -41 -2 -57 2 -28 7 -27 8 16 14 28 4 9 5 -47 4 -82 -2 -93 0
-93 15 0 22 -51 51 -57 33 -7 -19 -27 -16 -48 7 -10 11 -23 20 -28 20 -6 0
-19 7 -29 16 -15 14 -20 15 -34 3 -9 -7 -34 -12 -60 -10 -41 2 -44 1 -44 -23
0 -22 4 -26 30 -26 30 0 30 0 30 -56 0 -36 -5 -61 -15 -70 -16 -16 -20 -44 -7
-44 12 0 29 14 35 30 3 8 4 -12 2 -45 -3 -36 -1 -54 4 -46 16 25 41 4 41 -34
0 -33 -1 -34 -20 -23 -11 7 -20 18 -20 25 0 7 -5 13 -10 13 -6 0 -13 7 -17 16
-3 9 -35 45 -70 80 -34 35 -63 66 -63 69 0 8 64 -7 78 -18 14 -11 32 5 32 29
0 17 -49 54 -92 70 -10 3 -18 15 -18 25 0 10 -5 21 -11 25 -6 3 -9 15 -6 25 3
11 -2 23 -11 28 -11 6 -15 21 -14 46 2 23 -5 50 -18 72 -11 19 -20 45 -20 59
0 13 -4 24 -9 24 -6 0 -20 28 -33 62 -13 36 -36 76 -55 94 -29 29 -31 32 -13
37 13 3 17 11 13 26 -3 12 0 28 7 36 11 13 9 20 -7 38 -23 25 -41 69 -46 110
-4 37 -55 97 -81 98 -20 0 -20 1 2 9 24 10 28 20 11 37 -8 8 -8 13 0 17 23 15
9 25 -26 19 -35 -5 -37 -4 -18 10 11 8 30 17 43 21 27 9 29 26 3 33 -13 3 -17
11 -14 24 3 11 -1 21 -11 25 -11 4 -14 13 -10 29 4 18 1 24 -19 29 -18 4 -24
11 -20 25 5 20 -29 41 -35 22 -2 -6 -21 -11 -42 -11 -22 0 -40 -5 -43 -12 -2
-7 -2 -3 0 10 5 29 72 109 109 130 18 11 18 11 0 25 -13 9 -15 16 -8 21 8 5 6
13 -7 27 -15 17 -17 27 -10 51 13 46 4 55 -38 38z m35 -105 c-3 -3 -9 2 -12
12 -6 14 -5 15 5 6 7 -7 10 -15 7 -18z m-54 -89 c-31 -26 -38 -27 -29 -5 5 14
46 38 54 33 2 -2 -10 -14 -25 -28z m-44 -56 c0 -5 -5 -10 -11 -10 -5 0 -7 5
-4 10 3 6 8 10 11 10 2 0 4 -4 4 -10z m1220 -1300 c0 -5 -2 -10 -4 -10 -3 0
-8 5 -11 10 -3 6 -1 10 4 10 6 0 11 -4 11 -10z m315 0 c3 -5 -1 -10 -9 -10 -8
0 -18 5 -21 10 -3 6 1 10 9 10 8 0 18 -4 21 -10z m-1068 -20 c23 0 72 -51 84
-88 7 -20 17 -41 23 -47 102 -94 176 -146 301 -210 22 -12 32 -21 23 -23 -20
-4 -159 56 -238 103 -36 21 -98 55 -138 76 -101 53 -112 66 -117 144 -3 50 1
58 29 51 11 -3 26 -6 33 -6z m334 -13 c-1 -12 -15 -9 -19 4 -3 6 1 10 8 8 6
-3 11 -8 11 -12z m369 -51 c0 -4 -9 -2 -20 4 -11 6 -20 20 -20 32 0 20 1 19
20 -5 11 -14 20 -28 20 -31z m-223 18 c-3 -3 -12 -4 -19 -1 -8 3 -5 6 6 6 11
1 17 -2 13 -5z m-130 -26 c14 -13 35 -31 45 -40 10 -10 21 -18 26 -18 7 0 26
-26 49 -68 11 -21 11 -23 -8 -17 -11 4 -30 16 -42 28 -13 12 -44 39 -70 60
-27 22 -47 46 -47 57 0 26 14 25 47 -2z m943 -18 c0 -5 -4 -10 -10 -10 -5 0
-10 5 -10 10 0 6 5 10 10 10 6 0 10 -4 10 -10z m-670 -32 c0 -5 -7 -3 -15 6
-8 8 -15 18 -15 22 0 3 7 1 15 -6 8 -7 15 -17 15 -22z m1046 -59 c8 -14 -10
-11 -32 6 -18 13 -18 14 4 8 12 -3 25 -9 28 -14z m-1727 -60 c17 -6 31 -15 31
-20 0 -14 -12 -11 -45 11 -34 23 -31 25 14 9z m2412 -110 c38 -12 69 -24 69
-29 0 -9 -141 28 -154 41 -15 14 9 11 85 -12z"/>
<path d="M5925 709 c-10 -14 -1 -21 19 -13 9 3 13 10 10 15 -7 12 -21 11 -29
-2z"/>
<path d="M5957 684 c-8 -8 3 -34 14 -34 11 0 12 27 0 34 -4 3 -11 3 -14 0z"/>
<path d="M5466 2301 c-4 -5 3 -7 14 -4 23 6 26 13 6 13 -8 0 -17 -4 -20 -9z"/>
<path d="M5590 2080 c0 -5 7 -7 15 -4 8 4 15 8 15 10 0 2 -7 4 -15 4 -8 0 -15
-4 -15 -10z"/>
<path d="M6483 943 c9 -2 23 -2 30 0 6 3 -1 5 -18 5 -16 0 -22 -2 -12 -5z"/>
<path d="M7346 738 c-9 -20 18 -66 29 -49 3 6 2 11 -4 11 -5 0 -11 12 -13 28
-3 22 -6 24 -12 10z"/>
<path d="M7390 710 c0 -5 5 -10 10 -10 6 0 10 5 10 10 0 6 -4 10 -10 10 -5 0
-10 -4 -10 -10z"/>
<path d="M9220 486 c0 -2 7 -6 15 -10 8 -3 15 -1 15 4 0 6 -7 10 -15 10 -8 0
-15 -2 -15 -4z"/>
<path d="M9320 451 c8 -6 28 -11 44 -11 39 0 31 6 -19 14 -29 5 -36 4 -25 -3z"/>
<path d="M9430 420 c20 -13 33 -13 25 0 -3 6 -14 10 -23 10 -15 0 -15 -2 -2
-10z"/>
<path d="M9903 373 c9 -2 17 -9 17 -14 0 -5 10 -9 22 -9 12 0 30 -7 40 -17 17
-15 18 -15 18 3 0 32 -21 44 -69 43 -26 -1 -38 -3 -28 -6z"/>
</g>
</svg>
