<?xml version="1.0" standalone="no"?>
<!DOCTYPE svg PUBLIC "-//W3C//DTD SVG 20010904//EN"
 "http://www.w3.org/TR/2001/REC-SVG-20010904/DTD/svg10.dtd">
<svg version="1.0" xmlns="http://www.w3.org/2000/svg"
 width="940.000000pt" height="705.000000pt" viewBox="0 0 940.000000 705.000000"
 preserveAspectRatio="xMidYMid meet">

<g transform="translate(0.000000,705.000000) scale(0.100000,-0.100000)"
fill="#000000" stroke="none">
<path d="M112 7013 c16 -58 15 -145 -2 -169 -12 -15 -26 -20 -62 -20 -56 1
-65 -13 -10 -16 20 0 42 -2 47 -3 6 -2 17 -3 24 -4 12 -1 12 -4 3 -13 -7 -7
-12 -20 -12 -30 0 -10 -4 -18 -9 -18 -5 0 -7 8 -4 19 4 14 -3 20 -27 25 -60
12 -60 12 -60 -66 l0 -73 34 -2 c32 -3 35 0 44 35 l11 37 -2 -45 -2 -45 -43 1
-42 0 0 -103 c0 -83 3 -103 14 -103 8 0 21 -8 28 -18 7 -11 20 -21 28 -25 8
-3 -4 -6 -27 -6 -38 -1 -43 -4 -43 -24 0 -13 5 -28 12 -35 9 -9 9 -12 0 -12
-16 0 -17 -476 -1 -486 6 -3 28 -6 49 -6 21 0 58 -10 85 -24 27 -13 56 -24 64
-24 13 -1 13 -3 -2 -11 -14 -8 -23 -7 -36 5 -19 17 -31 21 -31 9 0 -10 49 -33
71 -33 9 0 36 -10 58 -22 32 -17 44 -19 53 -10 16 16 7 23 -41 29 -26 4 -41
11 -41 20 0 7 -12 18 -27 24 -49 18 -133 59 -133 65 0 3 17 5 38 4 60 -3 69 1
33 14 -19 7 -37 18 -39 24 -5 17 43 15 57 -2 7 -8 26 -18 42 -21 16 -4 27 -10
25 -14 -3 -4 29 -6 70 -5 41 2 74 -1 74 -6 0 -5 -15 -7 -32 -3 -39 7 -31 -3
27 -37 l40 -24 -20 24 -20 23 20 -7 c69 -27 75 -28 127 -12 29 8 57 11 63 7 5
-5 28 -14 50 -21 77 -24 160 -62 173 -78 7 -9 12 -45 12 -84 0 -64 -2 -68 -27
-82 -16 -8 -69 -49 -119 -93 -50 -43 -117 -100 -149 -127 -97 -83 -118 -172
-66 -275 26 -50 139 -145 161 -134 8 5 80 8 160 7 147 -1 248 -15 261 -36 18
-28 126 58 159 126 22 46 30 160 13 190 -14 24 -327 340 -348 351 -16 8 -21
22 -23 65 -6 98 -7 96 113 103 80 4 111 9 125 22 14 13 31 16 72 12 29 -2 64
-8 78 -12 l25 -8 -24 26 c-13 14 -27 25 -30 24 -4 -1 -19 8 -35 21 -16 12 -24
22 -18 22 8 0 73 -27 115 -48 4 -2 7 1 7 8 0 6 11 21 25 34 22 20 24 28 15 50
-8 23 -6 31 16 54 14 15 34 44 45 65 24 47 31 47 27 0 -5 -55 16 -50 31 7 26
100 36 61 17 -64 0 -5 6 -11 14 -14 8 -2 12 -1 8 3 -4 4 2 21 14 38 12 17 22
40 23 51 1 15 11 24 38 30 32 8 37 14 37 38 0 15 5 28 10 28 6 0 10 -16 10
-35 0 -31 3 -35 25 -35 14 0 26 -4 26 -10 1 -5 3 -14 4 -20 1 -5 3 -24 4 -41
1 -31 20 -37 29 -9 3 8 0 10 -8 5 -9 -6 -11 -4 -5 6 11 17 7 69 -6 85 -6 8
-12 49 -14 92 -3 80 -25 152 -46 152 -8 0 -10 -25 -7 -90 4 -87 3 -90 -17 -90
-29 0 -38 10 -21 24 17 13 29 186 14 186 -6 0 -8 -7 -4 -15 4 -11 -1 -15 -17
-15 -40 0 -47 -13 -47 -81 0 -35 -1 -78 -3 -96 -3 -34 -17 -58 -17 -30 0 9 -7
17 -16 17 -14 0 -14 -3 -4 -15 8 -9 9 -15 2 -15 -6 0 -14 5 -18 12 -5 7 -15 2
-31 -18 -12 -16 -23 -24 -23 -17 0 15 -81 42 -150 49 -30 3 -80 14 -110 24
-30 10 -67 21 -81 24 -45 10 -46 70 -1 108 11 9 42 20 69 24 26 4 57 13 68 20
11 8 32 14 47 14 35 0 135 -54 165 -89 23 -26 23 -26 23 -3 0 12 -4 22 -9 22
-5 0 -12 8 -16 18 -3 11 -35 49 -70 85 -36 37 -65 71 -65 77 0 5 -7 10 -16 10
-9 0 -18 9 -21 21 -4 13 -11 18 -22 14 -8 -3 -12 -3 -8 1 3 4 -12 24 -34 46
-42 41 -45 63 -5 48 13 -5 26 -7 28 -5 2 3 49 -2 103 -10 54 -8 107 -13 117
-9 10 3 23 2 29 -2 6 -3 36 -8 67 -11 30 -2 59 -6 63 -9 5 -3 6 -31 3 -63 -5
-39 -3 -61 5 -65 7 -5 11 3 12 21 2 78 5 98 13 100 5 1 12 7 16 13 5 8 12 7
24 -5 9 -9 16 -12 16 -7 0 5 -11 17 -25 26 -33 22 -35 61 -2 52 12 -3 28 -6
35 -6 7 0 10 -4 7 -10 -3 -5 -2 -10 3 -10 6 0 15 14 21 30 11 32 26 42 19 12
-6 -22 27 -49 35 -29 4 9 6 9 6 0 2 -29 29 -11 36 24 3 20 10 32 13 26 4 -6
23 -10 42 -10 75 2 147 -35 111 -57 -16 -10 0 -44 22 -50 43 -11 46 -8 40 41
-5 43 -4 46 11 34 9 -7 16 -19 16 -25 1 -6 7 -24 16 -41 12 -26 13 -27 9 -5
-3 14 -8 40 -11 59 -6 43 -13 54 -30 47 -7 -3 -27 0 -43 7 -27 12 -28 14 -16
37 7 14 11 29 8 33 -3 5 5 6 18 2 26 -8 88 -65 70 -65 -7 0 -6 -11 3 -32 8
-18 20 -48 26 -65 7 -18 17 -33 22 -33 5 0 6 -5 2 -11 -4 -8 0 -9 15 -4 17 5
20 3 14 -11 -5 -13 -3 -16 10 -11 10 4 17 2 17 -4 0 -7 11 -9 25 -7 17 4 25 1
25 -8 0 -10 6 -11 24 -4 17 6 26 5 28 -2 2 -5 12 -9 22 -7 17 4 17 5 -2 29
-19 24 -19 26 -2 26 10 0 16 -4 14 -8 -3 -4 5 -8 18 -9 18 0 20 -2 6 -7 -13
-5 -15 -11 -8 -22 7 -10 10 -11 10 -2 0 6 5 12 11 12 5 0 7 -5 3 -11 -5 -8 3
-10 24 -7 17 2 29 1 27 -3 -4 -6 39 -13 145 -23 61 -6 125 -14 185 -23 28 -3
55 -6 62 -5 7 2 83 -7 170 -19 87 -11 172 -22 188 -24 99 -9 182 -39 191 -69
8 -24 -46 -72 -91 -81 -54 -11 -195 -58 -195 -66 0 -8 51 -19 87 -19 13 0 38
7 55 16 56 29 200 63 225 53 13 -5 23 -6 23 -3 0 8 43 -18 67 -40 33 -30 29
-41 -25 -64 -62 -27 -182 -41 -311 -37 -96 4 -106 2 -140 -21 -47 -31 -93 -37
-268 -38 -78 0 -140 -3 -137 -8 3 -4 -2 -5 -10 -2 -9 3 -13 10 -10 15 8 14 -9
10 -30 -6 -25 -19 -40 -19 -33 -1 4 11 -6 15 -39 18 -38 3 -42 1 -27 -9 15
-12 14 -13 -9 -13 -14 0 -35 9 -48 20 -14 12 -37 20 -60 20 -21 0 -58 3 -84 6
-31 5 -46 3 -46 -5 0 -6 11 -11 23 -11 13 0 32 -9 42 -20 10 -11 22 -20 28
-20 5 0 17 -8 26 -18 9 -9 45 -36 81 -60 119 -77 128 -89 36 -47 -30 14 -63
25 -73 25 -14 0 -15 2 -5 9 11 6 7 13 -15 30 -15 11 -33 25 -39 30 -22 18 -69
38 -81 34 -7 -2 -22 5 -35 16 -12 12 -27 21 -32 21 -6 -1 18 -28 54 -60 36
-33 61 -60 57 -60 -7 0 -116 77 -127 90 -3 3 -27 20 -54 38 -51 33 -48 32
-212 38 -22 0 -46 4 -52 8 -6 3 -23 6 -39 5 -15 -1 -49 2 -75 5 -42 6 -48 4
-48 -11 0 -36 35 -108 54 -111 16 -3 18 1 13 25 -3 15 -9 37 -12 48 -6 18 -4
17 14 -4 12 -13 21 -29 21 -37 0 -8 5 -14 12 -14 6 0 8 -3 4 -7 -8 -8 76 -32
115 -33 30 0 54 -23 63 -61 6 -29 45 -46 58 -26 7 11 12 3 9 -15 0 -5 3 -8 9
-8 5 0 10 5 10 11 0 5 5 7 10 4 6 -4 8 -10 5 -15 -3 -4 4 -6 15 -3 25 7 26 -5
3 -22 -15 -11 -5 -14 62 -20 44 -4 88 -9 98 -11 24 -7 22 -24 -4 -24 -11 0
-17 5 -14 10 10 16 -12 11 -30 -6 -15 -15 -18 -15 -36 5 -15 16 -31 21 -62 20
-35 -2 -37 -3 -12 -7 26 -4 27 -5 10 -12 -19 -6 -18 -8 5 -21 18 -10 75 -15
198 -17 l172 -4 1 -101 c1 -157 3 -181 14 -193 13 -15 24 34 31 136 3 41 10
79 15 85 10 11 10 -1408 -1 -1640 -3 -82 -7 -133 -8 -113 -3 48 -11 69 -26 61
-6 -3 -6 -1 2 8 19 21 12 109 -10 109 -5 0 -3 -10 3 -22 9 -17 9 -24 -5 -33
-14 -11 -15 -55 -13 -412 l2 -401 -195 -26 c-107 -14 -221 -29 -253 -32 l-57
-7 2 -301 3 -301 34 -17 33 -17 -38 -4 c-37 -3 -36 -4 9 -5 27 -1 46 2 43 6
-2 4 12 6 31 4 l36 -5 -39 -13 c-21 -7 -59 -13 -84 -12 -25 1 -54 -1 -65 -6
-16 -6 -17 -6 -5 3 8 6 11 11 5 11 -5 0 -3 5 5 11 11 8 9 8 -10 3 -14 -5 -38
-9 -53 -9 -16 -1 -32 -7 -36 -13 -3 -6 -18 -15 -31 -21 -41 -16 142 -13 239 4
96 17 116 29 87 51 -16 11 -17 14 -4 14 9 0 19 -7 22 -16 3 -8 11 -12 17 -9 7
5 10 55 8 148 -3 155 -14 197 -52 197 -29 0 -41 10 -45 37 -3 22 2 24 78 37
14 2 45 11 70 19 42 13 119 27 231 42 65 8 96 -1 94 -28 -1 -12 -9 -24 -19
-25 -9 -2 -21 -15 -26 -28 -11 -29 -26 -31 -40 -4 -12 22 -30 25 -58 11 -9 -5
-25 -12 -34 -15 -10 -3 -18 -15 -18 -26 0 -27 -36 -27 -43 0 -5 20 -47 29 -47
11 0 -5 -13 -12 -30 -16 -25 -5 -30 -12 -30 -35 0 -16 -4 -32 -10 -35 -5 -3
-10 -11 -10 -16 0 -6 5 -7 11 -4 7 5 9 -36 7 -130 -3 -129 -2 -136 17 -140 11
-2 67 -9 125 -14 187 -19 283 -32 370 -50 l85 -18 -70 -11 c-38 -7 -108 -14
-154 -17 -46 -3 -88 -8 -95 -12 -6 -4 -27 -7 -46 -8 -24 0 -35 -5 -35 -15 0
-12 17 -16 77 -20 124 -8 375 3 389 17 22 22 -16 26 -139 13 -64 -6 -128 -13
-142 -16 -22 -4 -22 -3 5 10 17 8 76 20 132 27 57 6 103 15 103 20 0 14 100
-28 126 -52 27 -26 32 -64 8 -73 -22 -9 -23 -8 -17 13 4 17 2 18 -36 8 -22 -6
-38 -14 -35 -19 3 -4 16 -5 30 -2 14 4 24 2 24 -5 0 -6 -26 -18 -57 -27 -32
-9 -63 -20 -69 -25 -13 -10 -169 -50 -289 -73 -115 -22 -185 -28 -185 -16 0 5
3 9 8 8 4 -1 39 2 77 6 77 8 123 30 107 49 -10 11 -12 18 -12 33 0 4 -7 1 -15
-6 -17 -14 -233 -22 -241 -8 -3 4 -13 4 -22 -1 -27 -14 -99 -4 -131 18 -45 32
-96 25 -57 -8 8 -7 12 -20 9 -31 -7 -27 21 -36 151 -49 163 -16 160 -23 -20
-50 -293 -45 -720 -87 -1159 -116 -250 -16 -311 -18 -302 -9 3 3 63 9 134 14
118 8 129 10 149 33 12 14 30 27 40 30 11 3 0 4 -23 3 -24 -2 -43 1 -43 6 0
15 -50 8 -90 -12 -41 -21 -56 -15 -45 20 8 25 -13 34 -48 21 -19 -8 -25 -15
-20 -27 4 -12 2 -15 -8 -12 -22 7 -17 42 6 46 46 7 51 13 25 27 l-25 14 35 2
c84 4 96 5 106 11 6 4 27 5 47 3 20 -1 37 1 37 5 0 4 21 11 46 15 58 8 75 15
69 26 -3 4 9 10 27 13 220 35 236 40 159 50 -53 7 -58 14 -52 77 2 22 -42 49
-79 49 -25 0 -30 3 -26 18 3 9 8 40 12 67 4 28 14 55 23 62 15 11 78 12 97 1
5 -3 65 -6 133 -7 l125 -2 -27 21 c-39 31 -122 57 -217 69 -46 6 -85 12 -86
14 -2 2 6 30 17 62 17 49 18 62 8 82 -11 21 -17 23 -58 17 l-45 -7 18 28 c23
35 11 45 -56 45 l-48 0 0 39 c0 35 3 39 33 46 l32 7 -35 13 c-19 7 -45 14 -57
14 -28 1 -29 15 -4 48 34 43 19 53 -75 50 -49 -2 -89 -8 -96 -15 -24 -24 -47
-14 -54 26 -4 20 -25 63 -47 95 -36 51 -39 60 -29 83 7 14 12 28 12 31 0 15
-63 -54 -76 -82 -12 -28 -13 -28 -14 -6 0 23 -1 24 -65 18 -65 -6 -66 -6 -105
30 l-40 35 0 -41 c0 -47 -6 -49 -70 -26 -53 19 -53 19 -45 -5 5 -16 2 -20 -14
-20 -12 0 -21 -5 -21 -11 0 -6 -6 -9 -13 -6 -6 2 -11 10 -9 17 3 12 -14 29
-29 30 -4 0 -9 -9 -12 -20 -4 -17 -14 -20 -70 -20 -35 0 -85 -3 -111 -6 l-46
-7 0 -123 0 -123 72 -3 c70 -3 73 -4 75 -29 1 -24 -2 -27 -48 -32 -27 -3 -54
-9 -59 -12 -6 -4 -10 -80 -10 -186 l0 -179 53 1 c28 0 106 4 172 8 83 5 122 4
127 -3 14 -20 8 -25 -25 -20 -46 8 -71 -14 -70 -61 1 -46 31 -79 87 -98 l41
-14 -42 -19 c-24 -10 -43 -24 -43 -30 0 -7 -6 -14 -14 -17 -7 -3 -18 -19 -24
-36 l-11 -31 43 0 c34 0 48 -6 70 -29 16 -16 25 -34 22 -40 -8 -13 31 -13 119
-1 63 8 172 -11 187 -34 14 -20 8 -36 -13 -36 -11 0 -30 -5 -41 -11 -16 -9
-26 -7 -48 10 -24 18 -30 18 -40 6 -10 -12 -10 -15 1 -15 8 0 25 -9 39 -20
l25 -19 -65 1 c-36 0 -111 -5 -166 -12 -56 -6 -171 -15 -255 -18 l-154 -7 -3
-953 -2 -952 1073 0 1072 0 10 22 c20 42 59 61 132 62 l68 1 3 273 2 274 28
-6 c15 -3 51 -8 80 -12 l54 -6 -6 -57 c-3 -31 -8 -110 -11 -176 -6 -116 -6
-120 15 -133 16 -10 25 -11 33 -3 23 23 27 7 27 -114 l0 -125 271 0 271 0 -41
46 c-23 26 -41 55 -41 64 0 10 13 34 29 54 l29 37 18 -101 17 -100 47 0 47 0
-33 188 c-18 103 -44 279 -59 392 -14 113 -33 230 -41 262 -8 31 -17 97 -21
147 -5 79 -4 91 11 97 9 3 16 12 16 19 0 9 45 14 176 20 96 4 178 5 181 2 2
-3 15 -74 29 -159 35 -227 70 -399 82 -407 6 -3 18 -46 27 -95 16 -87 45 -146
71 -146 35 0 32 103 -11 380 -67 440 -74 486 -86 593 -9 79 -10 110 -2 115 6
4 16 57 22 117 7 61 24 175 39 255 l27 145 1503 -3 c1072 -3 1502 -1 1502 7 0
8 -146 11 -492 11 -484 0 -2502 11 -2504 14 -1 0 9 60 22 131 13 72 22 136 19
143 -2 6 4 38 14 70 l18 59 -24 -5 c-17 -3 -23 0 -23 13 0 11 5 15 15 11 8 -3
15 -1 15 4 0 10 -17 16 -71 25 -44 8 -75 -6 -173 -81 -96 -73 -135 -86 -288
-91 -144 -6 -142 -8 -113 72 18 50 20 78 4 55 -8 -12 -9 -11 -7 6 2 11 -3 28
-9 36 -21 24 -21 63 0 62 23 -2 22 19 -3 41 -19 17 -20 31 -20 299 0 155 3
332 7 393 l6 113 361 4 c199 2 388 7 420 11 33 4 84 2 115 -4 38 -7 434 -10
1201 -11 630 0 1153 0 1163 0 17 1 18 12 14 163 -3 89 -8 179 -12 200 -10 49
14 87 54 87 55 0 73 -56 53 -165 -6 -33 -10 -109 -9 -170 l2 -110 68 -3 68 -3
-5 158 c-2 87 -7 176 -11 199 -6 35 -3 45 20 72 l26 31 30 -27 c29 -25 30 -30
24 -77 -4 -27 -7 -117 -8 -199 -2 -147 -2 -148 21 -157 26 -10 77 -12 107 -3
19 5 20 14 20 122 0 109 7 147 29 163 5 4 -1 10 -13 14 -15 4 -21 15 -21 35 0
16 -3 35 -6 44 -4 12 0 16 16 16 11 0 18 4 15 10 -3 6 -2 10 3 10 6 0 13 -7
16 -16 4 -9 13 -14 21 -10 11 4 15 -3 15 -28 0 -23 6 -36 18 -41 15 -6 14 -8
-6 -16 -21 -8 -22 -12 -22 -154 l0 -145 66 0 66 0 -5 163 c-3 89 -8 174 -12
190 -6 24 -5 27 16 27 18 0 21 2 10 9 -12 8 -12 13 3 36 11 17 24 25 35 22 15
-4 16 2 11 44 -4 27 -3 54 1 60 11 18 40 3 32 -16 -8 -23 -7 -97 2 -119 5 -11
3 -21 -5 -26 -7 -4 -9 -13 -6 -19 4 -6 12 -9 17 -6 5 4 9 -3 9 -13 0 -13 9
-22 26 -26 21 -6 24 -9 14 -21 -7 -8 -20 -15 -30 -15 -32 0 -38 -23 -43 -153
-4 -129 -4 -129 20 -138 13 -5 87 -9 163 -9 l140 0 6 25 c5 21 12 25 44 25 22
0 42 -4 45 -10 4 -6 -9 -10 -33 -10 -28 0 -39 -4 -39 -15 0 -17 13 -20 22 -5
8 12 55 13 55 1 0 -4 29 -9 65 -10 42 -1 65 2 65 9 0 14 42 2 52 -14 4 -6 8
-39 8 -73 l0 -63 30 0 30 0 0 65 c0 42 4 65 11 65 12 0 10 74 -7 252 -4 36 -4
78 0 92 5 22 9 24 31 16 28 -11 32 -3 11 25 -12 17 -16 18 -32 5 -15 -13 -17
-13 -12 0 2 8 16 16 30 18 16 2 28 11 31 23 7 26 43 25 57 -2 7 -11 9 -32 5
-46 -3 -14 -1 -31 5 -38 6 -8 8 -29 4 -54 -6 -37 -9 -41 -36 -41 -22 0 -29 -4
-25 -14 5 -13 -2 -45 -25 -105 -6 -17 -5 -27 4 -33 8 -5 9 -11 3 -15 -6 -5
-12 -22 -13 -38 -2 -23 1 -31 15 -33 10 -1 27 -4 38 -6 11 -2 24 -5 28 -5 5
-1 5 -5 2 -11 -3 -5 1 -10 9 -10 14 0 16 25 16 195 0 185 1 195 19 195 10 0
22 -7 25 -15 5 -14 8 -14 30 0 13 9 28 15 32 14 5 -1 16 -1 24 0 12 1 13 3 1
10 -7 5 -40 7 -72 6 -46 -3 -59 0 -59 11 0 11 20 14 99 14 55 0 103 4 106 10
4 6 12 6 23 1 9 -5 26 -12 37 -16 14 -4 16 -8 7 -14 -25 -16 11 -31 49 -21 52
14 279 32 409 33 l115 0 0 -74 0 -74 -50 0 c-171 -2 -172 -2 -220 -46 -25 -23
-45 -48 -45 -55 0 -21 -28 -5 -33 19 -2 12 -5 -9 -6 -47 0 -38 -4 -66 -8 -62
-9 9 -10 11 -11 109 l-2 77 -35 0 c-34 0 -35 -1 -35 -40 0 -29 -4 -40 -15 -40
-8 0 -15 -7 -15 -15 0 -8 -7 -15 -15 -15 -8 0 -15 6 -15 12 0 7 -7 2 -16 -10
-17 -25 -54 -30 -54 -7 0 18 -16 20 -23 3 -3 -7 -6 3 -7 22 -2 32 -3 33 -10
10 l-8 -25 -2 28 c-1 15 -4 32 -5 37 -1 6 -3 28 -4 50 -1 36 -4 40 -26 40
l-25 0 0 -140 c0 -116 2 -140 15 -140 8 0 12 -6 9 -14 -3 -9 3 -17 16 -21 22
-7 258 2 272 11 4 3 8 0 8 -5 0 -6 5 -11 10 -11 6 0 10 7 10 15 0 12 18 15 98
15 86 0 100 2 115 20 10 12 22 18 27 15 14 -9 12 -23 -2 -21 -30 3 -23 -42 6
-50 14 -3 27 -13 29 -22 2 -10 3 4 1 31 -2 36 1 47 12 47 8 0 14 -4 14 -10 0
-5 11 -10 25 -10 24 0 25 -2 25 -70 0 -63 2 -70 20 -70 19 0 20 7 20 241 0
157 3 238 10 234 6 -4 10 -79 10 -191 0 -121 3 -183 10 -179 6 3 10 15 10 25
0 10 3 21 7 23 5 3 6 -29 3 -70 -3 -41 -1 -77 3 -80 22 -13 294 -15 392 -3 93
12 103 15 83 26 -13 7 -35 10 -49 7 -17 -3 -30 1 -40 13 -8 10 -9 15 -2 11 6
-4 14 -3 18 2 8 14 36 2 29 -13 -3 -6 1 -3 10 8 13 16 23 18 80 11 l66 -7 0
932 c0 512 -3 929 -7 927 -10 -6 -214 -87 -219 -87 -2 0 -4 18 -4 41 0 22 -4
48 -9 58 -7 12 -4 26 10 48 21 33 16 32 149 36 31 2 44 -2 42 -10 -1 -7 5 -13
13 -13 11 0 14 -7 9 -24 -3 -13 -1 -26 4 -30 6 -3 10 22 11 61 1 60 0 65 -15
52 -20 -16 -24 -16 -35 3 -6 9 -1 14 19 18 l27 5 3 908 2 907 -4649 0 -4649 0
10 -37z m158 -57 c34 -100 17 -105 -20 -6 -11 30 -18 44 -14 30 15 -65 15
-115 0 -135 -14 -19 -15 -18 -4 11 9 25 8 43 -5 91 -20 69 -20 76 -7 68 6 -3
10 -1 10 6 0 26 20 -7 40 -65z m1594 -225 c4 -6 16 -11 27 -11 10 0 19 -4 19
-10 0 -5 -11 -10 -24 -10 -49 0 -51 4 -47 103 l5 92 6 -76 c4 -42 11 -82 14
-88z m5230 130 c7 -11 -17 -21 -49 -21 -27 0 -42 16 -23 23 22 9 67 7 72 -2z
m-6791 -68 c-10 -16 -29 -49 -42 -74 -31 -59 -49 -84 -57 -76 -12 11 90 177
108 177 5 0 1 -12 -9 -27z m3364 -15 c-3 -8 -6 -5 -6 6 -1 11 2 17 5 13 3 -3
4 -12 1 -19z m-2872 -6 c-3 -3 -11 0 -18 7 -9 10 -8 11 6 5 10 -3 15 -9 12
-12z m459 7 c-4 -8 3 -9 26 -4 23 5 30 4 26 -4 -4 -6 -2 -11 5 -11 6 0 22 -11
35 -25 13 -14 28 -25 34 -25 5 0 10 -4 10 -9 0 -6 -14 -5 -35 0 -20 6 -43 8
-53 5 -18 -6 -76 36 -65 48 3 3 -1 6 -10 6 -10 0 -14 5 -11 15 4 8 15 15 26
15 11 0 16 -4 12 -11z m800 3 c6 -10 -30 -9 -40 1 -4 4 2 7 14 7 11 0 23 -4
26 -8z m122 -1 c-3 -5 -15 -7 -26 -4 -28 7 -25 13 6 13 14 0 23 -4 20 -9z
m1554 -1 c13 -8 12 -10 -2 -10 -10 0 -18 -4 -18 -10 0 -5 -9 -10 -19 -10 -14
0 -18 5 -14 20 6 21 29 26 53 10z m-2617 -7 c-7 -2 -19 -2 -25 0 -7 3 -2 5 12
5 14 0 19 -2 13 -5z m312 -30 c14 -15 25 -32 25 -38 0 -5 -4 -5 -8 2 -4 6 -20
15 -35 18 -17 5 -27 14 -27 26 0 26 15 24 45 -8z m375 -65 c0 -12 -38 -10 -45
2 -5 8 -11 7 -21 -1 -17 -14 -29 -6 -21 15 12 30 87 17 87 -16z m-773 -53 c27
-6 53 -28 53 -43 0 -5 11 -21 24 -35 13 -14 21 -29 17 -33 -3 -4 2 -5 11 -1
10 3 19 0 22 -9 4 -10 2 -13 -7 -8 -6 4 -4 -2 6 -13 9 -11 17 -27 17 -36 0 -9
16 -35 36 -57 20 -22 34 -43 31 -46 -3 -3 -21 -1 -40 5 -40 14 -81 57 -73 77
3 8 2 13 -3 10 -10 -6 -26 31 -37 84 -7 34 -32 79 -46 80 -3 0 -9 -8 -12 -17
-4 -15 -5 -15 -4 2 1 36 -2 39 -18 19 -15 -19 -15 -18 -11 4 3 12 2 22 -3 22
-4 0 -6 10 -5 23 4 33 8 35 12 5 3 -18 12 -28 30 -33z m761 32 c6 0 12 -4 12
-9 0 -9 -16 -10 -47 -2 -13 4 -20 11 -17 16 3 5 13 6 23 2 9 -3 22 -7 29 -7z
m2406 3 c42 -16 30 -30 -26 -30 -64 0 -90 12 -62 29 24 13 55 14 88 1z m2176
-20 c13 -9 13 -11 0 -20 -28 -18 -120 -10 -120 10 0 18 95 26 120 10z m-6030
-10 c0 12 89 10 220 -4 19 -2 62 -7 95 -10 33 -3 80 -9 105 -13 25 -4 52 -7
60 -8 8 -1 14 -6 12 -13 -1 -7 2 -12 8 -12 5 0 10 5 10 10 0 6 9 10 20 10 11
0 20 -4 20 -10 0 -12 -35 -31 -44 -23 -3 3 -6 1 -6 -4 0 -6 6 -14 13 -16 7 -3
6 -6 -5 -6 -9 -1 -20 -5 -23 -11 -3 -6 1 -7 10 -4 11 4 14 2 9 -9 -6 -17 -33
-31 -42 -22 -3 3 0 5 6 5 6 0 9 7 6 15 -4 8 -10 15 -16 15 -5 0 -7 -4 -3 -9 3
-5 -12 -22 -32 -38 -21 -15 -49 -38 -63 -51 -14 -12 -46 -37 -72 -55 -27 -17
-48 -38 -48 -45 0 -7 -7 -15 -15 -18 -8 -4 -12 -10 -9 -16 3 -5 3 -17 -1 -26
-4 -9 -7 -33 -6 -53 l2 -36 -48 3 c-61 4 -151 18 -228 37 -119 29 -135 41
-125 98 4 23 3 42 -3 46 -5 3 -3 10 7 15 10 6 15 16 11 27 -3 10 -1 30 4 45 6
14 7 26 3 26 -5 0 -7 15 -5 33 2 17 4 47 3 65 0 26 4 34 27 43 45 17 117 26
131 16 8 -6 12 -5 12 3z m634 -43 c-3 -15 -10 -24 -16 -21 -5 3 -4 11 3 20 6
7 8 22 5 31 -5 13 -4 15 4 7 6 -6 8 -22 4 -37z m-44 -1 c0 -3 -4 -8 -10 -11
-5 -3 -10 -1 -10 4 0 6 5 11 10 11 6 0 10 -2 10 -4z m1057 -28 c-3 -8 -6 -5
-6 6 -1 11 2 17 5 13 3 -3 4 -12 1 -19z m141 -3 c-3 -3 -9 2 -12 12 -6 14 -5
15 5 6 7 -7 10 -15 7 -18z m26 -11 c3 -8 2 -12 -4 -9 -6 3 -10 10 -10 16 0 14
7 11 14 -7z m1646 -29 c0 -8 -2 -15 -4 -15 -2 0 -6 7 -10 15 -3 8 -1 15 4 15
6 0 10 -7 10 -15z m-2730 -13 c0 -4 -5 -14 -10 -22 -9 -13 -11 -13 -20 0 -5 8
-10 20 -10 25 0 6 5 3 10 -5 8 -13 10 -12 10 3 0 10 5 15 10 12 6 -3 10 -9 10
-13z m2985 -12 c-3 -5 -11 -10 -16 -10 -6 0 -7 5 -4 10 3 6 11 10 16 10 6 0 7
-4 4 -10z m-1844 -23 c-10 -9 -11 -8 -5 6 3 10 9 15 12 12 3 -3 0 -11 -7 -18z
m3112 3 c3 -11 1 -20 -5 -20 -5 0 -6 -4 -3 -10 3 -5 0 -10 -7 -10 -8 0 -15 13
-16 30 -3 35 22 43 31 10z m-4528 0 c3 -5 1 -10 -4 -10 -6 0 -11 5 -11 10 0 6
2 10 4 10 3 0 8 -4 11 -10z m3304 -40 c-22 -14 -34 2 -13 17 13 10 20 10 23 2
2 -6 -3 -15 -10 -19z m-4009 10 c0 -5 -7 -7 -15 -4 -8 4 -15 8 -15 10 0 2 7 4
15 4 8 0 15 -4 15 -10z m694 -12 c-10 -13 -19 -24 -19 -24 0 -1 -10 -5 -22 -8
-15 -5 -23 -3 -23 4 0 22 32 43 74 49 5 0 1 -9 -10 -21z m4456 12 c0 -5 -5
-10 -11 -10 -5 0 -7 5 -4 10 3 6 8 10 11 10 2 0 4 -4 4 -10z m-1372 -19 c3
-10 0 -12 -12 -8 -22 9 -20 2 7 -24 20 -19 20 -21 3 -17 -11 1 -25 17 -32 34
-12 29 -12 31 8 30 12 -1 23 -7 26 -15z m1328 9 c8 0 14 -5 14 -11 0 -5 -6 -7
-12 -3 -8 4 -9 3 -5 -2 5 -5 16 -9 25 -9 10 0 17 -8 17 -19 0 -26 25 -33 31
-8 5 16 11 18 36 13 l31 -6 0 -110 c0 -68 4 -113 11 -117 6 -4 -6 -8 -26 -8
-21 0 -38 -4 -38 -10 0 -5 16 -10 35 -10 19 0 35 -4 35 -10 0 -5 -7 -10 -15
-10 -17 0 -19 -12 -5 -26 6 -6 13 -48 15 -95 4 -58 3 -79 -5 -69 -8 12 -10 11
-10 -8 0 -13 4 -20 10 -17 6 3 10 1 10 -4 0 -10 -14 -15 -33 -12 -5 1 -7 -7
-5 -18 2 -11 0 -20 -4 -21 -24 -1 -28 1 -28 15 0 8 -9 15 -20 15 -11 0 -20 -4
-20 -10 0 -5 -4 -10 -10 -10 -5 0 -7 6 -4 13 2 7 -2 32 -11 56 -18 53 -18 51
0 51 9 0 15 -9 15 -21 0 -14 5 -19 17 -17 13 2 17 15 19 50 2 39 -1 48 -17 53
-23 8 -24 18 -4 49 21 32 10 60 -17 45 -13 -7 -18 -17 -15 -31 4 -12 -2 -28
-13 -40 -13 -15 -17 -29 -13 -53 3 -19 2 -63 -2 -99 -6 -65 -7 -66 -36 -66
-16 0 -29 5 -29 13 0 8 -4 7 -10 -3 -7 -11 -10 -1 -10 34 0 39 5 53 24 70 31
29 40 56 18 56 -16 1 -16 1 0 11 14 8 17 23 16 79 -1 49 -5 70 -14 70 -13 0
-13 -57 0 -79 4 -6 2 -11 -3 -11 -6 0 -11 -6 -11 -14 0 -8 -4 -18 -10 -21 -6
-4 -8 6 -6 24 2 18 -1 31 -8 32 -7 0 -6 3 2 6 14 6 17 53 2 53 -5 0 -10 11
-10 25 0 29 8 32 26 8 12 -16 13 -12 8 27 -4 25 -8 46 -9 48 -5 6 17 87 32
120 14 29 14 35 2 44 -11 8 -10 9 4 4 10 -3 25 -6 33 -6z m-1291 -40 c3 -5 2
-10 -4 -10 -5 0 -13 5 -16 10 -3 6 -2 10 4 10 5 0 13 -4 16 -10z m1211 -88
c-12 -11 -15 5 -8 44 l7 39 3 -39 c2 -21 1 -41 -2 -44z m-4405 53 c0 -13 -41
-19 -41 -7 0 11 20 22 33 18 5 -1 8 -6 8 -11z m3434 -15 c3 -5 2 -10 -4 -10
-5 0 -13 5 -16 10 -3 6 -2 10 4 10 5 0 13 -4 16 -10z m-187 -51 c2 6 13 11 25
11 21 -1 21 -1 -2 -14 -18 -10 -20 -15 -10 -20 8 -3 4 -3 -8 0 -12 3 -31 0
-42 -5 -14 -8 -20 -7 -24 3 -9 22 13 37 37 24 15 -8 21 -8 24 1z m52 -19 c0
-5 -2 -10 -4 -10 -3 0 -8 5 -11 10 -3 6 -1 10 4 10 6 0 11 -4 11 -10z m531
-13 c-13 -13 -26 -3 -16 12 3 6 11 8 17 5 6 -4 6 -10 -1 -17z m3152 -34 c-7
-2 -21 -2 -30 0 -10 3 -4 5 12 5 17 0 24 -2 18 -5z m-3133 -18 c0 -8 5 -15 11
-15 5 0 7 5 4 10 -3 6 1 10 9 10 9 0 16 -6 16 -13 0 -7 8 -22 18 -33 25 -27
31 -46 48 -147 8 -49 20 -103 28 -120 7 -18 11 -48 8 -68 -2 -21 1 -40 7 -43
23 -14 10 -26 -29 -26 -31 0 -47 6 -65 26 -20 22 -25 23 -25 10 0 -10 4 -25 9
-34 4 -9 11 -32 14 -49 6 -33 6 -33 -34 -33 -24 0 -38 4 -34 10 3 6 17 10 30
10 24 0 24 1 8 20 -20 23 -35 27 -27 7 2 -7 -4 -21 -15 -31 -15 -14 -29 -16
-60 -11 -38 6 -39 8 -29 30 6 13 20 25 31 27 13 2 21 11 22 25 1 13 5 26 8 30
9 8 37 -29 31 -39 -3 -5 0 -8 5 -8 17 0 13 28 -7 48 -10 10 -16 24 -14 30 6
18 22 14 23 -5 1 -12 4 -10 9 7 4 14 8 19 9 13 1 -7 6 -13 12 -13 7 0 9 12 6
33 -10 63 -48 233 -63 275 -17 53 -17 52 1 52 8 0 15 7 15 15 0 8 5 15 10 15
6 0 10 -7 10 -15z m2051 -17 c-11 -18 -25 -34 -31 -35 -7 -1 -7 0 0 4 5 2 10
11 10 18 0 13 26 45 37 45 3 0 -4 -15 -16 -32z m-2123 -19 c-3 -8 -7 -3 -11
10 -4 17 -3 21 5 13 5 -5 8 -16 6 -23z m2022 -34 c0 -15 -24 -53 -31 -49 -13
8 -11 42 4 47 16 7 27 8 27 2z m-1750 -60 c0 -14 5 -25 11 -25 8 0 9 -4 0 -13
-6 -8 -8 -17 -4 -20 3 -4 -1 -7 -10 -7 -13 0 -17 10 -17 45 0 25 5 45 10 45 6
0 10 -11 10 -25z m940 15 c0 -5 -5 -10 -11 -10 -5 0 -7 5 -4 10 3 6 8 10 11
10 2 0 4 -4 4 -10z m850 0 c0 -5 -5 -10 -11 -10 -5 0 -7 5 -4 10 3 6 8 10 11
10 2 0 4 -4 4 -10z m-6430 -35 c6 -7 33 -25 58 -38 26 -12 67 -34 92 -48 25
-14 50 -24 56 -22 6 2 22 -1 35 -6 13 -5 18 -10 12 -10 -7 -1 -13 -10 -13 -22
0 -18 -4 -20 -32 -14 -18 4 -38 13 -44 21 -6 8 -18 14 -27 14 -8 0 -17 4 -19
9 -1 5 -32 11 -68 15 -75 6 -91 21 -88 78 3 40 17 48 38 23z m1785 -35 c3 -5
1 -10 -4 -10 -6 0 -11 5 -11 10 0 6 2 10 4 10 3 0 8 -4 11 -10z m3208 -22 c-4
-19 -3 -20 7 -8 9 13 11 12 8 -4 -5 -34 -28 -31 -28 3 0 17 4 31 9 31 5 0 7
-10 4 -22z m-3261 -28 c-5 -12 -7 -12 -10 3 -2 9 -8 17 -13 17 -6 0 -7 4 -4
10 9 15 34 -12 27 -30z m95 -27 c-9 -9 -24 5 -30 28 l-6 21 21 -21 c11 -12 18
-25 15 -28z m1851 3 c26 -35 31 -50 26 -75 -7 -36 23 -83 37 -59 5 8 37 13 87
15 l79 2 11 -38 c7 -21 12 -46 12 -55 0 -9 6 -16 14 -16 17 0 29 -26 13 -27
-55 -4 -390 -3 -394 1 -3 3 -5 18 -5 33 0 15 -8 33 -16 39 -24 18 -1 65 27 57
25 -6 28 12 4 26 -27 15 0 56 48 71 37 13 50 32 29 45 -9 6 -14 25 -7 25 2 0
18 -20 35 -44z m1849 12 c-3 -7 -5 -2 -5 12 0 14 2 19 5 13 2 -7 2 -19 0 -25z
m-4515 -19 c79 -12 103 -27 94 -56 -14 -43 -242 -42 -367 1 -110 38 -117 56
-26 67 62 8 206 2 299 -12z m3683 -10 c-6 -17 -9 -19 -17 -8 -7 10 -7 8 -3 -8
4 -14 2 -23 -4 -23 -12 0 -14 20 -5 44 3 9 10 13 15 10 5 -3 9 0 9 7 0 7 3 10
6 6 3 -3 3 -15 -1 -28z m-2310 10 c11 -17 -1 -21 -15 -4 -8 9 -8 15 -2 15 6 0
14 -5 17 -11z m-2305 -19 c0 -5 -2 -10 -4 -10 -3 0 -8 5 -11 10 -3 6 -1 10 4
10 6 0 11 -4 11 -10z m3650 6 c0 -3 -4 -8 -10 -11 -5 -3 -10 -1 -10 4 0 6 5
11 10 11 6 0 10 -2 10 -4z m574 -7 c4 6 13 11 21 11 11 0 12 -6 3 -32 -9 -27
-8 -33 8 -45 10 -7 20 -10 22 -4 2 5 11 7 22 4 11 -3 16 -11 13 -20 -3 -8 -12
-12 -19 -9 -9 3 -14 -2 -14 -14 0 -28 -18 -25 -26 5 -3 14 -10 25 -15 25 -5 0
-9 7 -9 15 0 8 -6 15 -14 15 -7 0 -16 10 -19 21 -5 19 -11 21 -41 15 -22 -4
-36 -3 -36 3 0 12 83 19 91 7 4 -4 10 -3 13 3z m1433 5 c-3 -3 -12 -4 -19 -1
-8 3 -5 6 6 6 11 1 17 -2 13 -5z m-1987 -29 c0 -8 -4 -15 -9 -15 -13 0 -22 16
-14 24 11 11 23 6 23 -9z m-421 -38 c1 -4 -5 -2 -13 5 -7 7 -11 19 -8 27 4 11
7 10 13 -5 4 -10 8 -23 8 -27z m1381 -1 c0 -25 4 -56 10 -70 9 -24 8 -26 -20
-26 -27 0 -30 3 -24 24 3 13 1 27 -5 30 -13 8 -15 46 -2 46 5 0 11 9 14 20 10
37 27 21 27 -24z m-4430 18 c0 -2 -7 -4 -15 -4 -8 0 -15 4 -15 10 0 5 7 7 15
4 8 -4 15 -8 15 -10z m890 6 c0 -5 -5 -10 -11 -10 -5 0 -7 5 -4 10 3 6 8 10
11 10 2 0 4 -4 4 -10z m1275 0 c3 -5 2 -10 -4 -10 -5 0 -13 5 -16 10 -3 6 -2
10 4 10 5 0 13 -4 16 -10z m-2515 -25 c0 -16 -6 -25 -15 -25 -15 0 -21 31 -8
43 13 14 23 6 23 -18z m395 14 c11 -17 0 -20 -21 -4 -17 13 -17 14 -2 15 9 0
20 -5 23 -11z m4430 1 c3 -5 -1 -10 -10 -10 -9 0 -13 5 -10 10 3 6 8 10 10 10
2 0 7 -4 10 -10z m-2488 -31 c20 -10 43 -19 50 -19 7 0 13 -4 13 -10 0 -5 11
-12 25 -16 14 -3 25 -10 25 -15 0 -5 8 -6 18 -3 14 5 15 4 2 -5 -22 -16 -36
-14 -80 14 -33 21 -38 22 -34 7 2 -9 -1 -7 -7 6 -7 12 -16 22 -20 22 -4 0 -20
11 -35 25 -29 27 -19 26 43 -6z m1518 23 c16 -4 13 -7 -14 -13 -36 -8 -61 -3
-61 12 0 9 42 10 75 1z m492 -22 c3 -10 2 -11 -4 -4 -4 6 -15 14 -23 17 -11 5
-9 6 4 4 11 -1 21 -9 23 -17z m-2287 -22 c0 -12 -6 -9 -26 13 -19 22 -19 22 4
8 12 -8 22 -17 22 -21z m4290 -9 c0 -6 -7 -21 -16 -34 l-16 -25 419 0 420 0 1
-107 c0 -114 -18 -194 -38 -163 -5 8 -10 24 -10 35 0 14 -11 25 -32 33 -17 6
-33 10 -35 8 -2 -2 -5 -24 -6 -48 -1 -34 -5 -44 -16 -40 -9 3 -12 1 -7 -6 4
-7 0 -12 -11 -13 -17 -1 -17 -2 0 -6 9 -2 17 -9 17 -14 0 -6 -5 -7 -10 -4 -20
13 -48 -6 -54 -36 -4 -22 -11 -30 -23 -27 -13 2 -18 14 -19 43 -2 90 -34 92
-34 3 0 -54 -17 -66 -22 -15 -3 29 -6 32 -35 31 -18 0 -33 3 -33 8 0 4 11 8
24 8 14 0 28 4 31 10 4 6 -5 7 -23 4 -19 -4 -32 -1 -37 7 -6 8 -4 10 6 4 12
-8 12 -6 0 9 -13 15 -12 18 7 23 12 3 22 10 23 17 0 6 2 23 3 39 2 28 -12 33
-73 28 -17 -2 -22 2 -18 13 3 8 1 17 -6 19 -7 2 15 2 47 -1 33 -3 56 -1 53 4
-7 13 89 17 111 5 24 -13 159 -18 171 -6 5 6 12 31 15 58 l7 47 -388 0 c-330
-1 -391 -3 -408 -16 -17 -13 -18 -16 -5 -24 11 -7 4 -10 -25 -10 l-40 0 33 21
c37 24 41 34 11 26 -15 -4 -19 -2 -15 8 3 8 1 17 -4 20 -14 9 -13 16 10 52 13
22 25 31 35 27 8 -4 15 -10 15 -15z m-5920 1 c0 -5 -8 -10 -17 -10 -15 0 -16
2 -3 10 19 12 20 12 20 0z m3018 -13 c2 -11 -3 -17 -15 -17 -14 0 -15 2 -4 9
11 7 10 11 -5 20 -18 11 -18 12 1 9 11 -2 21 -11 23 -21z m1835 -12 c2 -15 0
-22 -6 -18 -6 4 -8 -2 -5 -13 13 -45 13 -49 -4 -48 -66 3 -78 5 -78 14 0 6 14
10 30 10 17 0 31 5 32 10 0 6 1 16 2 23 1 6 6 15 11 19 6 5 5 8 -2 8 -7 0 -13
7 -13 15 0 23 27 6 33 -20z m970 -5 c3 -11 1 -20 -4 -20 -5 0 -9 9 -9 20 0 11
2 20 4 20 2 0 6 -9 9 -20z m-2719 -31 c-2 -4 4 -13 15 -19 13 -6 22 -7 26 0 5
8 45 -22 45 -35 0 -3 -31 -5 -69 -5 -49 0 -72 4 -81 15 -10 13 -7 17 21 29
l32 14 -43 7 c-34 6 -40 9 -27 17 11 6 24 5 38 -2 11 -7 23 -9 27 -6 3 3 0 6
-7 6 -7 0 -9 5 -5 12 5 8 11 6 20 -7 7 -10 11 -22 8 -26z m-668 12 c-3 -5 -15
-7 -26 -4 -28 7 -25 13 6 13 14 0 23 -4 20 -9z m554 -6 c-7 -9 -11 -16 -9 -18
2 -1 13 -7 23 -13 35 -19 32 -36 -5 -32 -30 3 -34 6 -31 28 3 36 10 50 23 50
8 0 8 -4 -1 -15z m982 6 c-12 -7 -62 -4 -62 5 0 2 17 4 38 4 23 0 32 -3 24 -9z
m1578 -1 c0 -5 -18 -10 -41 -10 -24 0 -38 4 -34 10 3 6 22 10 41 10 19 0 34
-4 34 -10z m-1280 -25 c0 -8 5 -15 11 -15 6 0 9 -8 7 -17 -6 -31 -31 -20 -35
15 -3 18 0 32 6 32 6 0 11 -7 11 -15z m-40 -16 c0 -6 -4 -7 -10 -4 -5 3 -10
11 -10 16 0 6 5 7 10 4 6 -3 10 -11 10 -16z m475 12 c7 -12 -12 -24 -25 -16
-11 7 -4 25 10 25 5 0 11 -4 15 -9z m1138 -21 c-17 -30 -33 -39 -33 -20 0 13
32 50 43 50 4 0 0 -13 -10 -30z m-3696 7 c-15 -5 -25 -13 -21 -18 3 -5 -6 -9
-20 -9 -14 0 -26 2 -26 4 0 2 -2 11 -5 18 -4 11 6 14 46 14 44 0 48 -1 26 -9z
m1785 -16 c5 -16 4 -21 -4 -19 -6 2 -15 14 -20 27 -5 16 -4 21 4 19 6 -2 15
-14 20 -27z m1228 11 c55 -5 62 -5 117 2 41 4 51 3 47 -7 -3 -10 -34 -14 -114
-15 -61 -1 -110 0 -110 2 0 15 14 36 19 29 3 -4 22 -9 41 -11z m-2970 -12 c0
-5 -4 -10 -10 -10 -5 0 -10 5 -10 10 0 6 5 10 10 10 6 0 10 -4 10 -10z m2290
0 c0 -5 -18 -10 -40 -10 -22 0 -40 5 -40 10 0 6 18 10 40 10 22 0 40 -4 40
-10z m1240 -16 c0 -2 -12 -4 -26 -4 -14 0 -23 4 -20 9 6 8 46 4 46 -5z m-2380
-28 c-1 -5 3 -12 8 -15 10 -6 15 -37 13 -78 -1 -27 -35 -32 -45 -7 -13 35 -2
118 16 112 5 -2 9 -7 8 -12z m2548 -3 c-15 -2 -42 -2 -60 0 -18 2 -6 4 27 4
33 0 48 -2 33 -4z m12 -23 c-19 -13 -24 -12 178 -15 96 -2 176 -6 179 -9 13
-12 -4 -15 -35 -7 -23 7 -34 6 -43 -5 -6 -8 -24 -14 -40 -14 -29 0 -40 -22
-19 -35 6 -3 10 -17 10 -31 0 -17 6 -24 19 -24 21 0 71 -43 71 -62 0 -7 -12
-1 -25 15 -38 42 -93 32 -96 -17 -1 -18 -2 -18 -6 -3 -2 9 -9 15 -14 11 -15
-9 10 -34 27 -27 9 3 14 -1 14 -12 0 -12 -6 -16 -20 -12 -11 3 -18 1 -14 -4 3
-5 -1 -10 -8 -10 -37 -5 -54 -4 -65 4 -6 4 -14 3 -18 -3 -7 -12 -65 -14 -65
-2 0 10 -36 9 -46 -1 -4 -4 -12 -2 -19 3 -7 6 -23 6 -43 0 -27 -7 -34 -5 -42
10 -14 26 -13 27 15 32 17 4 25 1 25 -8 0 -8 5 -14 10 -14 6 0 10 4 10 9 0 5
2 16 5 23 4 9 -2 14 -15 14 -11 0 -20 -4 -20 -8 0 -4 -7 -8 -15 -8 -8 0 -14 5
-12 11 1 6 -7 16 -18 22 -11 7 -23 17 -27 22 -12 16 -9 53 5 62 8 4 16 16 20
26 5 12 1 17 -13 17 -11 0 -20 7 -20 15 0 9 9 15 24 15 13 0 29 7 36 15 8 10
31 15 69 15 40 0 52 -3 41 -10z m-994 -25 c17 -4 20 -10 16 -37 -5 -32 -6 -32
-12 -8 -4 14 -11 24 -17 23 -6 -1 -88 -3 -182 -3 -156 -2 -197 -8 -156 -24 18
-7 20 -27 3 -21 -7 2 -28 6 -45 9 l-33 4 -1 -96 c-1 -54 -4 -84 -6 -69 -3 16
-11 31 -19 34 -8 3 -14 9 -14 14 0 4 6 6 13 4 8 -4 13 11 15 50 2 43 0 55 -11
55 -10 0 -13 7 -10 20 5 18 0 20 -38 21 -24 1 -133 3 -241 5 l-198 3 -1 -27
c0 -24 -1 -24 -8 -7 -5 11 -14 20 -22 20 -7 0 -15 7 -17 17 -3 15 22 16 279
18 156 0 284 2 285 3 4 4 399 -3 420 -8z m-758 -68 c19 -30 32 -41 46 -39 15
3 18 0 13 -17 -4 -16 -1 -21 14 -21 13 0 17 -5 12 -16 -5 -13 -7 -13 -14 -2
-12 19 -38 -19 -39 -54 0 -23 -4 -28 -25 -28 -20 0 -25 5 -25 23 0 13 -7 38
-16 56 -9 17 -13 39 -10 47 3 8 -1 17 -9 20 -27 11 -16 26 15 22 32 -5 42 7
12 14 -10 3 -19 13 -19 22 0 27 16 18 45 -27z m162 -57 c0 -6 -9 -10 -20 -10
-13 0 -20 7 -20 20 0 18 3 19 20 10 11 -6 20 -15 20 -20z m237 -2 c-3 -8 -6
-5 -6 6 -1 11 2 17 5 13 3 -3 4 -12 1 -19z m-1182 -8 c-3 -5 -1 -11 5 -15 16
-10 13 -85 -4 -85 -27 0 -46 30 -39 58 3 15 10 29 15 30 4 2 8 10 8 18 0 9 5
12 10 9 6 -4 8 -10 5 -15z m2925 -5 c0 -8 0 -18 -1 -21 0 -4 5 -11 13 -16 10
-8 10 -9 -1 -6 -16 5 -35 58 -20 58 5 0 9 -7 9 -15z m-1979 -15 c24 -13 28
-90 4 -90 -18 0 -35 31 -35 64 0 15 -7 26 -17 29 -13 3 -12 5 5 6 13 0 32 -4
43 -9z m239 -3 c0 -2 -8 -11 -19 -21 -17 -15 -19 -15 -32 1 -8 9 -9 14 -4 11
6 -4 17 -3 25 3 15 9 30 12 30 6z m-4175 -58 c-3 -5 1 -6 9 -3 9 3 16 1 16 -5
0 -6 -7 -11 -16 -11 -8 0 -12 -5 -9 -10 4 -6 18 -9 33 -8 15 1 45 -8 67 -19
22 -12 62 -31 89 -43 87 -40 148 -110 128 -147 -5 -8 -12 -14 -15 -14 -20 3
-27 0 -25 -11 2 -7 -4 -11 -12 -9 -8 2 -64 5 -123 7 -116 4 -224 23 -327 56
-36 12 -71 23 -78 25 -20 5 39 75 82 98 19 10 32 23 29 29 -4 5 1 7 10 3 10
-3 17 -2 17 3 0 6 9 10 19 10 11 0 23 5 26 10 3 6 13 10 21 10 18 0 44 24 44
40 0 6 5 8 10 5 6 -4 8 -11 5 -16z m5925 -11 c0 -4 -4 -8 -9 -8 -6 0 -12 4
-15 8 -3 5 1 9 9 9 8 0 15 -4 15 -9z m-2823 -111 c7 -25 14 -32 37 -34 47 -3
54 -9 50 -42 -2 -18 3 -36 13 -46 19 -19 7 -36 -29 -40 -13 -1 -26 -3 -30 -4
-5 0 -8 -10 -8 -21 0 -13 -7 -20 -20 -20 -11 0 -20 4 -20 9 0 17 -32 42 -46
37 -8 -3 -14 -1 -14 4 0 6 -7 10 -15 10 -8 0 -14 -3 -14 -7 5 -31 -4 -41 -36
-45 -34 -4 -35 -3 -35 31 0 27 -3 32 -12 23 -7 -7 -22 -12 -35 -12 -28 0 -37
30 -26 85 7 33 13 41 35 43 19 2 28 -2 33 -17 10 -33 59 -28 95 9 17 17 30 39
30 49 0 42 33 34 47 -12z m5400 17 c-3 -3 -12 -4 -19 -1 -8 3 -5 6 6 6 11 1
17 -2 13 -5z m-8817 -24 c0 -5 -4 -10 -10 -10 -5 0 -10 5 -10 10 0 6 5 10 10
10 6 0 10 -4 10 -10z m3007 -72 c-2 -18 -4 -6 -4 27 0 33 2 48 4 33 2 -15 2
-42 0 -60z m5808 62 c3 -5 -1 -10 -9 -10 -9 0 -16 5 -16 10 0 6 4 10 9 10 6 0
13 -4 16 -10z m-3945 -10 c0 -7 -173 -10 -499 -10 -467 0 -500 -1 -504 -17 -3
-11 -5 -7 -6 10 l-1 27 505 0 c330 0 505 -3 505 -10z m1794 -62 c-3 -100 -15
-128 -54 -128 -34 0 -36 3 -14 25 12 12 20 13 29 5 11 -9 12 -7 8 9 -3 12 -12
21 -19 21 -18 0 -18 20 0 34 8 6 18 28 22 49 l6 38 -377 -3 c-330 -3 -378 -5
-388 -19 -7 -9 -19 -18 -27 -22 -13 -5 -13 -6 0 -6 9 -1 23 -10 33 -21 16 -19
29 -20 352 -20 217 0 335 -4 335 -10 0 -5 -5 -10 -10 -10 -6 0 -8 -11 -6 -25
4 -20 1 -25 -15 -25 -14 0 -19 7 -19 25 0 20 -5 25 -25 25 -19 0 -23 -4 -18
-17 4 -11 8 -13 11 -5 5 16 22 5 22 -14 0 -9 -11 -14 -30 -14 -19 0 -34 -7
-42 -20 -14 -21 -43 -27 -53 -10 -9 14 -45 12 -45 -2 0 -10 -26 -12 -105 -10
-90 3 -105 2 -105 -12 0 -13 -9 -15 -47 -10 -27 3 -67 10 -91 16 -34 9 -40 13
-31 24 9 11 7 14 -9 14 -12 0 -27 -9 -35 -21 -12 -16 -23 -19 -56 -16 -22 2
-38 0 -35 -5 8 -13 -10 -10 -31 6 -21 15 -49 10 -38 -8 3 -6 -4 -2 -17 9 -13
11 -20 15 -17 9 4 -7 -3 -11 -18 -11 -15 0 -25 5 -25 13 0 9 12 14 34 14 18 0
61 3 96 7 61 6 62 7 36 20 -26 14 -35 33 -16 33 6 0 25 -7 43 -16 39 -21 263
-23 432 -4 61 7 118 12 127 12 10 -1 20 4 24 9 3 6 -138 9 -386 9 -216 -1
-394 1 -397 3 -8 9 21 46 42 52 19 5 19 6 3 19 -10 7 -18 18 -18 25 0 6 -7 11
-15 11 -8 0 -15 5 -15 10 0 7 173 10 498 10 l498 0 -2 -72z m-3507 -5 c-3 -10
-5 -2 -5 17 0 19 2 27 5 18 2 -10 2 -26 0 -35z m3671 2 c-20 -14 -39 -25 -42
-25 -4 0 -6 11 -6 25 0 23 4 25 42 25 l43 0 -37 -25z m-2944 -46 c-8 -14 -24
-10 -24 6 0 9 6 12 15 9 8 -4 12 -10 9 -15z m684 12 c174 -1 291 -5 288 -10
-4 -5 -36 -9 -72 -10 -79 0 -101 -6 -107 -29 -3 -12 -5 -11 -6 6 0 12 -7 22
-15 22 -22 0 -27 -29 -10 -55 13 -20 13 -30 3 -67 -7 -24 -16 -47 -21 -52 -13
-16 -10 -23 15 -31 20 -6 20 -8 4 -12 -13 -3 -17 -11 -14 -24 4 -14 0 -19 -15
-19 -16 0 -19 6 -18 38 4 79 0 118 -10 101 -9 -16 -15 -64 -10 -84 6 -24 -13
-55 -34 -55 -21 0 -21 4 -20 93 2 50 5 109 9 130 7 35 6 37 -19 37 -21 0 -26
-5 -26 -24 0 -14 5 -28 11 -31 6 -4 9 -38 8 -83 -3 -111 -6 -122 -39 -122 -26
0 -27 1 -20 38 7 43 2 66 -18 70 -8 1 -11 -2 -8 -7 4 -5 1 -13 -4 -16 -8 -5
-6 -13 5 -25 23 -26 15 -54 -16 -58 -29 -3 -43 24 -31 59 10 26 2 99 -10 99
-5 0 -8 -12 -6 -27 2 -18 -2 -27 -10 -26 -12 3 -11 -18 2 -49 4 -9 6 -25 4
-35 -4 -23 -38 -30 -38 -9 0 9 -4 16 -10 16 -5 0 -10 5 -10 10 0 6 7 10 16 8
10 -2 19 3 22 11 3 9 0 12 -10 9 -11 -5 -15 3 -16 33 -1 22 -7 49 -12 59 -8
15 -7 26 3 42 28 48 20 53 -88 55 -55 1 -143 5 -195 10 l-95 8 160 5 c88 3
167 4 175 3 8 -1 147 -2 308 -2z m-661 -33 c-3 -7 -5 -2 -5 12 0 14 2 19 5 13
2 -7 2 -19 0 -25z m1458 -18 c3 -5 -1 -10 -9 -10 -9 0 -16 5 -16 10 0 6 4 10
9 10 6 0 13 -4 16 -10z m-2022 -67 c-7 -17 24 -47 30 -30 3 6 6 -5 6 -26 1
-51 -14 -77 -44 -77 -14 0 -25 3 -26 8 -5 42 -6 109 -2 116 3 4 9 2 14 -5 6
-9 9 0 10 26 0 30 2 35 8 20 5 -11 6 -26 4 -32z m1367 -24 c0 -14 -17 -10 -23
5 -4 10 -1 13 9 9 7 -3 14 -9 14 -14z m1690 -8 c0 -4 -10 -6 -23 -4 -14 3 -29
-3 -41 -16 -19 -21 -19 -21 20 -22 l39 -2 -40 -6 c-37 -6 -39 -8 -40 -41 l0
-35 -60 0 c-55 0 -60 2 -63 23 -2 12 1 22 6 22 5 0 24 3 42 7 28 5 32 4 27
-10 -4 -10 -2 -17 3 -17 6 0 10 14 10 30 0 21 5 30 18 31 16 1 16 2 0 6 -18 4
-24 24 -11 36 10 10 113 8 113 -2z m-2156 -26 c3 -8 1 -15 -4 -15 -6 0 -10 7
-10 15 0 8 2 15 4 15 2 0 6 -7 10 -15z m-699 -54 c6 8 11 6 18 -7 10 -17 11
-17 18 1 7 19 8 18 8 -2 1 -27 21 -31 21 -5 0 14 2 15 10 2 5 -9 25 -15 52
-15 l43 0 3 -42 c1 -24 -2 -43 -8 -43 -5 0 -10 -9 -10 -20 0 -15 -7 -20 -27
-21 -17 -1 -21 -3 -10 -6 9 -2 17 -13 17 -24 0 -11 -7 -19 -17 -20 -10 0 -26
-2 -35 -4 -10 -2 -26 12 -42 36 -15 21 -21 39 -15 39 6 0 9 7 5 15 -3 8 -1 15
4 15 6 0 10 -7 10 -15 0 -18 20 -20 21 -2 0 10 2 10 6 0 2 -7 11 -13 19 -13
12 0 12 4 -1 30 -9 17 -20 28 -25 25 -6 -4 -10 -1 -10 4 0 6 -12 11 -27 11
-39 0 -49 10 -57 50 -6 32 -6 33 8 17 10 -13 16 -15 21 -6z m-410 -71 l7 -25
15 25 c8 14 12 17 9 7 -3 -10 -6 -23 -6 -28 0 -17 -29 -9 -40 11 -6 12 -23 26
-38 32 -16 6 -22 12 -14 15 10 4 10 8 0 21 -7 8 4 4 24 -9 20 -13 40 -35 43
-49z m115 30 c0 -5 9 -10 20 -10 26 0 26 -15 0 -17 -11 -1 -25 7 -30 18 -7 13
-7 19 0 19 5 0 10 -4 10 -10z m-360 -20 c0 -5 -4 -10 -10 -10 -5 0 -10 5 -10
10 0 6 5 10 10 10 6 0 10 -4 10 -10z m859 -17 c0 -25 -1 -26 -9 -8 -12 27 -12
35 0 35 6 0 10 -12 9 -27z m1555 12 c-4 -8 -10 -15 -15 -15 -4 0 -6 7 -3 15 4
8 10 15 15 15 4 0 6 -7 3 -15z m-207 -1 c-3 -3 -12 -4 -19 -1 -8 3 -5 6 6 6
11 1 17 -2 13 -5z m2573 -15 c0 -5 -4 -9 -10 -9 -5 0 -10 7 -10 16 0 8 5 12
10 9 6 -3 10 -10 10 -16z m-4874 -1 c3 -4 12 -4 20 -1 8 3 22 -1 31 -8 12 -10
15 -10 9 -1 -10 16 0 15 30 -4 18 -13 47 -17 114 -16 69 0 90 -3 90 -13 0 -10
-36 -14 -167 -17 -105 -2 -171 1 -175 7 -11 15 -9 57 2 50 6 -3 10 -2 10 4 0
10 25 9 36 -1z m5082 -15 c16 -16 16 -16 0 -10 -14 5 -18 1 -17 -16 0 -12 3
-16 6 -9 9 24 23 12 23 -22 0 -30 -4 -36 -42 -51 -63 -25 -119 -43 -151 -49
-27 -5 -28 -3 -22 22 8 32 8 31 6 60 -1 22 -2 22 -26 6 -14 -9 -28 -15 -30
-12 -8 8 26 48 41 48 8 0 14 5 14 10 0 6 5 10 11 10 6 0 8 -7 5 -16 -10 -27
65 -9 88 21 24 30 69 33 94 8z m-142 -20 c-10 -10 -19 5 -10 18 6 11 8 11 12
0 2 -7 1 -15 -2 -18z m-4230 -83 c10 0 14 -13 14 -40 0 -22 4 -40 10 -40 5 0
7 15 5 33 -4 29 -3 28 9 -8 10 -31 18 -39 34 -38 15 2 20 -2 16 -12 -4 -9 0
-15 9 -15 8 0 17 7 21 15 3 8 15 15 26 15 11 0 21 5 21 10 1 6 2 16 3 22 2 21
36 21 51 1 9 -10 14 -13 15 -5 0 6 5 12 11 12 6 0 9 -19 7 -47 -3 -48 -3 -48
-39 -48 -21 0 -37 -3 -38 -7 -3 -22 0 -27 14 -21 21 8 55 -25 55 -54 0 -23
-14 -29 -45 -17 -14 6 -14 9 0 30 18 28 0 34 -21 7 -13 -17 -14 -17 -8 0 4 10
1 17 -7 17 -7 0 -10 -3 -7 -6 4 -3 3 -18 -2 -33 -4 -15 -4 -35 1 -44 5 -9 7
-28 3 -42 -8 -32 -39 -33 -48 -2 -9 35 -7 47 8 47 21 0 25 23 7 37 -9 7 -25
13 -37 13 -11 0 -29 8 -40 18 -19 18 -59 19 -48 1 3 -5 9 -7 13 -5 4 3 8 0 9
-7 0 -7 4 -23 7 -37 7 -24 6 -23 -14 5 -17 25 -21 26 -27 12 -9 -26 -34 -21
-34 7 0 17 -7 26 -24 30 -22 5 -23 8 -13 31 7 13 14 20 15 15 2 -6 15 -10 28
-10 13 0 24 -6 24 -12 0 -8 7 -5 15 6 11 15 15 16 16 5 0 -11 2 -11 6 0 5 11
7 11 14 0 6 -11 9 -9 9 7 0 36 -22 44 -108 42 -64 -1 -86 2 -100 15 -14 13
-21 14 -30 5 -9 -9 -13 -7 -19 8 -4 10 -17 30 -30 44 -13 14 -23 32 -22 40 0
10 2 11 6 3 8 -21 25 -15 18 6 -5 17 2 20 77 26 46 4 92 5 103 3 16 -2 21 4
24 32 4 34 5 33 14 -17 6 -33 15 -53 23 -53z m-356 65 c0 -8 -4 -15 -10 -15
-5 0 -7 7 -4 15 4 8 8 15 10 15 2 0 4 -7 4 -15z m70 -17 l0 -31 -25 23 c-14
13 -25 27 -25 32 0 4 11 8 25 8 21 0 25 -5 25 -32z m540 5 c0 -9 -8 -13 -22
-11 -31 4 -34 26 -3 26 15 0 25 -6 25 -15z m2490 -13 l415 0 -2 -67 c-5 -132
-15 -258 -22 -271 -6 -10 -10 -10 -23 0 -12 9 -17 30 -18 68 -3 87 -1 100 13
97 6 -1 12 5 12 13 0 8 -6 14 -12 13 -18 -4 -16 42 2 60 7 8 17 26 21 41 l6
26 -383 -4 c-211 -3 -415 -6 -454 -7 -75 -2 -135 8 -135 22 0 8 110 18 145 12
11 -1 207 -3 435 -3z m-1390 -11 c0 -8 -140 -10 -494 -6 l-495 5 -4 -27 c-3
-23 -4 -22 -6 7 l-1 32 500 0 c355 0 500 -3 500 -11z m-1102 -11 c-3 -7 -11
-13 -18 -13 -7 0 -15 6 -17 13 -3 7 4 12 17 12 13 0 20 -5 18 -12z m1640 -5
l82 -6 0 -43 c0 -32 4 -44 15 -44 8 0 15 -3 15 -7 5 -78 6 -231 2 -245 -5 -22
-22 -24 -22 -3 0 13 -18 14 -127 9 -71 -3 -148 -8 -173 -10 -25 -3 -60 -6 -78
-6 -18 0 -30 -3 -27 -6 3 -3 94 -7 202 -9 108 -2 199 -6 202 -8 2 -3 -1 -11
-8 -18 -9 -9 -14 -9 -20 2 -7 11 -11 10 -20 -5 -10 -18 -10 -18 -12 1 -1 17
-2 16 -9 -5 l-7 -25 -11 25 c-8 18 -11 20 -11 7 -1 -16 -3 -16 -25 -2 -27 18
-146 18 -158 0 -5 -6 -8 -4 -8 5 0 13 -1 13 -10 0 -9 -13 -11 -13 -20 0 -8 13
-10 12 -10 -2 0 -10 -4 -18 -9 -18 -5 0 -12 8 -14 18 -3 9 -6 1 -7 -18 l-2
-35 -11 35 -11 35 -7 -55 c-3 -30 -6 -45 -7 -33 -1 12 -5 30 -9 40 -6 15 -9
13 -14 -12 -6 -29 -7 -29 -8 8 -1 42 -20 51 -22 10 l-1 -28 -8 30 -7 30 -11
-25 -11 -25 -2 25 c-1 18 -3 20 -6 7 -6 -22 -23 -12 -23 14 0 14 7 19 30 19
17 0 30 4 30 8 0 5 -13 7 -29 4 -27 -4 -30 -1 -36 29 -4 26 -1 199 4 239 1 3
33 3 72 2 111 -6 132 1 165 53 32 51 32 51 192 38z m-1728 -27 c0 -2 -7 -9
-15 -16 -13 -11 -14 -10 -9 4 5 14 24 23 24 12z m2216 -6 c7 -7 123 -12 327
-13 l316 -2 6 -37 c7 -39 31 -58 38 -30 3 9 5 -17 5 -58 0 -45 -2 -67 -7 -55
-6 15 -10 7 -15 -33 -5 -36 -12 -55 -26 -62 -11 -6 -20 -15 -20 -21 0 -6 -7
-17 -15 -25 -13 -14 -15 -9 -11 48 4 61 4 62 -6 21 -6 -24 -17 -43 -24 -43 -8
0 -14 -9 -14 -20 0 -40 -59 -13 -61 28 -1 20 -3 22 -6 7 -3 -10 -12 -29 -19
-40 -8 -12 -13 -24 -12 -26 2 -3 -7 5 -19 18 -17 18 -22 19 -27 8 -9 -25 -24
-17 -18 10 4 22 1 25 -22 25 -14 0 -26 5 -26 10 0 6 9 10 19 10 32 0 35 20 4
21 l-28 2 28 4 c23 4 27 9 27 39 0 30 -3 34 -26 34 -25 0 -26 2 -21 35 l6 35
-64 0 c-35 0 -70 2 -78 6 -22 8 -31 -65 -10 -88 15 -17 14 -18 -10 -18 -15 0
-27 -6 -27 -12 0 -9 -3 -10 -8 -2 -4 6 -17 13 -29 16 -18 5 -23 2 -23 -14 0
-10 4 -17 9 -14 5 3 12 -2 15 -11 5 -11 -2 -24 -20 -40 -16 -14 -21 -23 -13
-23 10 0 14 -13 15 -45 1 -41 -1 -45 -23 -45 -15 0 -23 6 -23 18 0 14 -2 15
-10 2 -8 -12 -10 -11 -10 7 0 12 5 25 11 29 7 4 8 9 0 17 -12 12 -42 -8 -40
-27 3 -29 -3 -40 -11 -21 -15 35 -12 65 8 66 15 1 15 2 1 6 -10 2 -19 13 -22
24 -3 10 -10 19 -15 19 -14 0 -24 -39 -22 -92 1 -27 -2 -48 -7 -48 -19 1 -32
18 -28 37 6 32 -17 73 -40 73 -17 0 -18 2 -5 11 11 8 7 9 -20 6 l-35 -6 33 15
c25 11 32 19 27 33 -3 10 2 37 10 61 19 54 19 79 0 76 -25 -4 -28 -13 -27 -85
0 -63 -1 -70 -21 -75 -58 -15 -57 -16 -57 119 l0 125 25 0 c14 0 25 5 25 10 0
13 153 13 166 0z m-2770 -27 c-10 -10 -19 5 -10 18 6 11 8 11 12 0 2 -7 1 -15
-2 -18z m464 -5 c0 -5 -4 -8 -10 -8 -5 0 -10 10 -10 23 0 18 2 19 10 7 5 -8
10 -18 10 -22z m-609 12 c44 0 68 -4 64 -10 -7 -11 -153 -14 -181 -3 -16 6
-16 7 2 14 10 4 25 6 32 3 8 -2 45 -4 83 -4z m909 -134 c0 -86 -4 -147 -10
-151 -6 -4 -10 47 -10 144 0 94 4 151 10 151 6 0 10 -55 10 -144z m969 128 c2
-2 -171 -5 -385 -6 l-389 -1 225 -9 c124 -4 298 -7 387 -6 l162 3 6 -48 c10
-71 -4 -268 -19 -260 -6 3 -6 0 2 -8 17 -18 15 -30 -3 -23 -8 4 -15 1 -15 -7
0 -7 -2 -10 -5 -7 -3 3 -1 27 4 54 5 27 12 68 14 91 l5 41 -65 9 c-78 12 -223
-10 -223 -32 0 -16 -35 -29 -50 -20 -8 5 -10 -10 -9 -45 2 -28 6 -53 11 -56
15 -10 8 -24 -12 -24 -15 0 -20 7 -20 28 -1 25 -20 62 -32 62 -7 0 -20 -40
-22 -65 -1 -23 -30 -30 -81 -21 -29 6 -34 11 -40 46 -4 25 -1 59 10 95 20 71
14 93 -23 88 -15 -3 -46 0 -68 5 -50 11 -70 3 -56 -24 18 -36 32 -123 23 -147
-5 -13 -21 -31 -36 -41 -26 -17 -27 -17 -32 3 -3 11 -11 22 -18 25 -16 6 -27
-31 -11 -39 8 -3 8 -7 -2 -11 -6 -3 -10 -10 -6 -15 3 -5 0 -9 -5 -9 -10 0 -15
27 -14 67 1 21 -37 -10 -38 -32 -1 -20 -1 -20 -6 0 -8 33 -25 48 -34 33 -7
-10 -9 -10 -9 -1 0 7 -7 10 -15 7 -11 -4 -14 -1 -13 12 2 11 -1 20 -7 22 -5 2
-14 10 -18 18 -5 8 -12 12 -18 9 -11 -8 -11 201 0 230 7 16 10 9 16 -30 9 -68
13 -77 15 -35 2 32 3 33 9 10 7 -23 8 -22 15 13 5 26 3 43 -6 54 -11 14 35 14
442 8 250 -4 457 -9 459 -11z m2649 -19 c-7 -7 -48 7 -48 15 0 15 45 16 48 2
2 -8 2 -15 0 -17z m102 14 c0 7 5 9 10 6 16 -10 12 -38 -5 -31 -8 3 -15 2 -15
-2 0 -4 -26 -19 -57 -34 -57 -25 -113 -42 -113 -34 0 9 72 46 89 46 24 0 43
23 35 44 -3 9 -1 16 4 16 6 0 13 -10 15 -22 3 -18 5 -17 6 7 2 29 2 29 16 11
8 -11 15 -14 15 -7z m-203 -50 c-3 -34 -10 -55 -21 -61 -12 -7 -16 -5 -17 7
-3 28 -4 33 -11 41 -5 4 -8 -9 -8 -28 0 -33 -4 -37 -42 -53 -88 -36 -248 -83
-254 -74 -3 5 -10 6 -16 3 -6 -4 -9 -1 -6 7 2 8 21 15 41 17 32 3 37 7 42 35
6 40 2 87 -7 87 -5 0 -8 15 -8 33 1 29 2 30 14 15 7 -10 19 -18 25 -18 7 0 10
-4 7 -9 -3 -5 9 -12 28 -15 34 -7 79 7 104 31 16 15 72 17 72 3 0 -5 9 -1 20
10 32 32 41 25 37 -31z m-4415 6 c3 -13 1 -22 -3 -19 -9 5 -13 44 -5 44 2 0 6
-11 8 -25z m2578 -121 c0 -104 -3 -135 -12 -132 -19 7 -24 248 -6 260 7 4 14
8 16 8 1 0 2 -61 2 -136z m-2484 85 c8 -1 20 -2 27 -3 11 -1 24 -20 25 -40 1
-13 51 -36 78 -36 36 0 38 -18 3 -25 -49 -11 -159 4 -159 21 0 8 -6 14 -14 14
-7 0 -21 12 -31 26 -19 29 -7 54 26 54 11 0 20 6 20 13 1 6 3 4 6 -5 2 -10 11
-19 19 -19z m3758 -94 c-4 -8 -1 -15 5 -15 6 0 11 -7 11 -15 0 -8 2 -15 4 -15
2 0 13 -3 23 -7 17 -7 17 -6 1 19 -17 25 -16 26 5 32 12 3 35 6 50 6 21 0 27
-4 25 -17 -2 -14 4 -18 25 -18 15 1 27 -3 27 -7 0 -4 -9 -8 -20 -8 -11 0 -20
-7 -20 -15 0 -17 -30 -35 -57 -35 -11 0 -37 -9 -59 -19 -62 -30 -79 -30 -79
-1 0 27 32 41 45 20 6 -9 13 -8 26 6 19 19 19 19 -3 39 -28 26 -40 65 -19 65
10 0 13 -6 10 -15z m1950 -17 c15 -93 16 -644 1 -848 -8 -118 -15 -225 -15
-238 0 -31 -16 -20 -23 15 -3 16 -8 39 -11 53 -12 44 -21 354 -21 680 0 286 2
318 18 343 24 37 45 34 51 -5z m-2214 -45 c-11 -17 -11 -17 -6 0 3 10 7 26 7
35 1 15 2 15 6 0 2 -10 -1 -25 -7 -35z m-2970 5 c0 -5 -7 -8 -15 -8 -17 0 -18
2 -9 25 5 13 8 14 15 3 5 -7 9 -16 9 -20z m2605 23 c8 -13 -12 -24 -51 -27
-34 -2 -50 8 -39 26 8 13 82 13 90 1z m-2765 -8 c0 -5 -5 -15 -10 -23 -8 -12
-10 -11 -10 8 0 12 5 22 10 22 6 0 10 -3 10 -7z m280 -8 c7 -8 19 -15 26 -15
9 0 14 -11 14 -30 0 -27 -3 -30 -34 -30 -31 0 -34 3 -40 35 -10 51 8 72 34 40z
m2334 -23 c-6 -22 -34 -32 -34 -12 0 6 5 10 10 10 6 0 10 10 10 22 0 14 3 19
10 12 5 -5 7 -19 4 -32z m-2761 -22 c40 0 77 -4 82 -8 16 -12 16 -32 0 -32 -8
0 -15 5 -15 10 0 6 -29 10 -66 10 -59 0 -70 3 -90 26 -13 14 -24 30 -24 36 0
6 9 -1 21 -16 19 -24 27 -26 92 -26z m961 5 c-5 -12 -10 -13 -20 -4 -19 15
-18 19 6 19 13 0 18 -5 14 -15z m1519 -22 c-7 -2 -19 -2 -25 0 -7 3 -2 5 12 5
14 0 19 -2 13 -5z m684 -25 c-3 -8 -6 -5 -6 6 -1 11 2 17 5 13 3 -3 4 -12 1
-19z m1433 -58 c22 0 37 -64 20 -85 -7 -9 -9 -78 -4 -229 7 -199 6 -216 -10
-216 -9 0 -19 6 -21 13 -2 6 -5 138 -7 292 -2 154 -2 268 0 253 2 -19 9 -28
22 -28z m-1330 9 c12 -7 11 -8 -6 -9 -11 0 -29 7 -40 16 -18 14 -18 15 6 8 14
-3 32 -10 40 -15z m-3205 -9 c3 -5 2 -10 -4 -10 -5 0 -13 5 -16 10 -3 6 -2 10
4 10 5 0 13 -4 16 -10z m195 -10 c0 -13 -80 -13 -100 0 -11 7 2 10 43 10 31 0
57 -4 57 -10z m1932 -22 c-9 -9 -12 -7 -12 12 0 19 3 21 12 12 9 -9 9 -15 0
-24z m2305 -248 c1 -233 0 -250 -16 -250 -23 0 -31 74 -31 302 0 138 3 169 16
182 8 9 18 16 22 16 4 0 8 -113 9 -250z m-237 20 c3 -254 2 -270 -15 -270 -12
0 -15 14 -15 63 0 34 -3 128 -6 209 -7 159 -3 191 21 167 10 -11 14 -52 15
-169z m-2755 147 c33 -2 -158 -3 -425 -3 -267 0 -456 2 -420 5 62 6 721 4 845
-2z m1485 3 l386 0 -1 -37 c-4 -128 -6 -153 -15 -153 -5 0 -10 7 -10 15 0 8
-6 15 -14 15 -10 0 -12 13 -8 53 2 28 8 60 13 69 5 9 9 19 9 22 0 10 -774 6
-790 -4 -10 -7 9 -10 65 -10 63 -1 75 -3 56 -11 -14 -5 -36 -8 -50 -5 -14 3
-64 1 -111 -3 -47 -4 -70 -9 -52 -10 29 -1 33 -4 30 -23 -3 -20 -9 -23 -53
-23 l-50 0 -2 38 -1 37 44 0 c63 0 55 20 -8 22 l-53 1 50 8 c28 4 79 5 115 3
36 -2 238 -4 450 -4z m1170 -11 c0 -5 -3 -8 -7 -6 -5 3 -5 -41 -2 -96 4 -56 7
-148 8 -204 1 -102 1 -103 -23 -103 -21 0 -24 6 -30 53 -11 94 -7 342 6 355
15 15 48 16 48 1z m-288 -226 c-4 -182 -4 -183 -27 -183 -19 0 -23 7 -28 41
-3 23 -3 56 0 74 3 18 0 62 -6 97 -12 69 1 130 33 153 9 7 16 21 17 31 0 14 3
12 8 -6 4 -14 5 -107 3 -207z m-3295 180 c-3 -10 -5 -4 -5 12 0 17 2 24 5 18
2 -7 2 -21 0 -30z m283 16 c19 -1 27 -3 18 -6 -10 -2 -18 -13 -18 -24 0 -15
-7 -19 -35 -19 -22 0 -38 -6 -44 -17 -10 -17 -10 -17 -11 0 0 11 -8 17 -23 17
-20 0 -24 5 -24 31 l0 31 51 -6 c28 -3 67 -6 86 -7z m1935 1 c3 -5 -3 -10 -14
-10 -12 0 -21 5 -21 10 0 6 6 10 14 10 8 0 18 -4 21 -10z m466 -35 c11 -25 18
-49 14 -54 -3 -5 1 -12 7 -15 9 -3 8 -8 -4 -16 -10 -6 -18 -15 -18 -21 0 -5
-9 -20 -21 -32 l-20 -22 2 95 c2 128 8 137 40 65z m526 39 c-3 -3 -12 -4 -19
-1 -8 3 -5 6 6 6 11 1 17 -2 13 -5z m-3164 -41 c-8 -52 -13 -54 -13 -5 0 23 4
42 9 42 6 0 7 -17 4 -37z m792 27 c-131 -5 -178 -22 -77 -28 53 -3 60 -10 46
-46 -5 -13 -24 -16 -99 -16 -50 0 -127 3 -169 7 l-77 6 6 39 7 38 -44 0 c-44
0 -44 0 -40 -30 3 -23 -2 -36 -21 -54 -14 -13 -28 -21 -31 -18 -3 3 -6 29 -6
59 l0 53 318 -2 c216 -1 276 -4 187 -8z m2123 -10 c3 -7 0 -10 -7 -6 -7 5 -11
-4 -11 -28 0 -19 5 -36 11 -38 8 -3 9 -50 4 -161 -7 -144 -9 -157 -26 -157
-18 0 -19 11 -19 199 0 150 3 201 13 204 17 7 30 3 35 -13z m426 4 c3 -9 6
-94 6 -190 0 -148 -2 -174 -15 -174 -12 0 -15 15 -16 73 -1 82 -7 217 -13 264
-2 18 -1 34 2 37 11 11 30 6 36 -10z m-1110 -20 c9 -22 -3 -32 -14 -14 -12 19
-12 30 -1 30 5 0 12 -7 15 -16z m-2389 -68 c-8 -62 -13 -65 -25 -14 l-8 33 -2
-32 c-1 -18 -3 -39 -4 -45 0 -7 -11 -14 -23 -16 -22 -3 -23 0 -23 57 l0 61 30
0 c19 0 33 6 37 16 13 34 25 -5 18 -60z m1095 37 c0 -24 -3 -33 -9 -25 -7 12
-4 62 5 62 2 0 4 -17 4 -37z m-1237 20 c-13 -2 -35 -2 -50 0 -16 2 -5 4 22 4
28 0 40 -2 28 -4z m-295 -34 c13 0 11 -3 -5 -11 -13 -6 -23 -15 -23 -20 0 -4
-7 -8 -15 -8 -8 0 -15 7 -15 16 0 12 -6 15 -25 10 -14 -4 -25 -2 -25 4 0 5 13
10 29 10 16 0 35 7 42 17 13 15 14 15 17 0 2 -10 11 -17 20 -18z m720 -32 c4
-21 -30 -24 -47 -3 -9 11 -9 15 1 19 22 9 43 2 46 -16z m478 -15 c9 -5 8 -11
-2 -20 -8 -7 -14 -8 -14 -2 0 5 -15 10 -34 10 -19 0 -38 5 -41 10 -7 12 74 14
91 2z m1214 -19 c0 -20 -24 -11 -28 10 -2 12 1 15 12 11 9 -3 16 -13 16 -21z
m684 0 c-10 -40 -14 -41 -14 -5 0 18 5 32 10 32 6 0 8 -11 4 -27z m-2950 1 c3
-8 2 -12 -4 -9 -6 3 -10 10 -10 16 0 14 7 11 14 -7z m2993 -32 c-14 -17 -16
-12 -10 23 5 25 7 27 13 10 4 -11 3 -26 -3 -33z m-2417 22 c0 -11 -5 -14 -16
-10 -9 3 -18 6 -20 6 -3 0 -2 5 1 10 10 16 35 12 35 -6z m415 -4 c-3 -5 -15
-10 -25 -10 -10 0 -22 5 -25 10 -4 6 7 10 25 10 18 0 29 -4 25 -10z m1655 -5
c0 -8 -4 -15 -9 -15 -5 0 -11 7 -15 15 -3 9 0 15 9 15 8 0 15 -7 15 -15z m147
-37 c-3 -8 -6 -5 -6 6 -1 11 2 17 5 13 3 -3 4 -12 1 -19z m-1496 -1 c24 7 35
-21 21 -53 -21 -44 -60 -26 -69 31 -5 34 -4 37 12 28 10 -6 26 -8 36 -6z
m1069 -2 c0 -8 -4 -15 -10 -15 -5 0 -10 7 -10 15 0 8 5 15 10 15 6 0 10 -7 10
-15z m-310 -50 c0 -45 -16 -68 -31 -44 -13 20 -11 73 3 87 18 18 28 4 28 -43z
m40 -6 c0 -37 -4 -49 -15 -49 -11 0 -15 12 -15 48 0 27 3 52 6 55 15 14 24 -7
24 -54z m169 47 c7 -8 8 -16 4 -19 -11 -7 -45 18 -36 26 10 11 19 8 32 -7z
m454 7 c-7 -2 -19 -2 -25 0 -7 3 -2 5 12 5 14 0 19 -2 13 -5z m157 -3 c0 -5
-4 -10 -10 -10 -5 0 -10 5 -10 10 0 6 5 10 10 10 6 0 10 -4 10 -10z m124 4 c9
-3 14 -10 11 -15 -7 -10 -35 0 -35 12 0 11 3 11 24 3z m-2224 -38 c0 -8 -7
-16 -15 -20 -15 -5 -21 14 -8 27 11 12 23 8 23 -7z m2290 4 c0 -5 -7 -10 -15
-10 -8 0 -15 5 -15 10 0 6 7 10 15 10 8 0 15 -4 15 -10z m-2827 -17 c-7 -2
-21 -2 -30 0 -10 3 -4 5 12 5 17 0 24 -2 18 -5z m747 -7 c0 -8 -4 -18 -10 -21
-5 -3 -10 3 -10 14 0 12 5 21 10 21 6 0 10 -6 10 -14z m763 -20 c-3 -5 -1 -6
5 -2 7 4 17 -3 24 -18 13 -29 12 -31 -19 -40 -23 -7 -25 -3 -25 59 0 35 2 40
11 25 6 -8 7 -18 4 -24z m31 19 c3 -8 1 -15 -3 -15 -5 0 -11 7 -15 15 -3 8 -1
15 3 15 5 0 11 -7 15 -15z m98 -10 c-6 -32 -34 -30 -38 3 -3 17 1 22 20 22 20
0 22 -4 18 -25z m515 19 c-3 -3 -12 -4 -19 -1 -8 3 -5 6 6 6 11 1 17 -2 13 -5z
m620 -24 c-4 -52 -47 -51 -47 1 0 24 4 29 25 29 21 0 24 -4 22 -30z m-1062 10
c-3 -5 -13 -10 -21 -10 -8 0 -14 5 -14 10 0 6 9 10 21 10 11 0 17 -4 14 -10z
m-273 -41 c-2 -22 -8 -40 -13 -40 -29 -5 -33 -1 -35 38 -2 39 0 42 25 41 24
-1 26 -4 23 -39z m1140 19 c5 -35 -3 -78 -14 -78 -6 0 -8 12 -4 30 4 22 2 30
-9 30 -8 0 -15 2 -15 4 0 2 -3 11 -6 20 -5 12 0 16 19 16 19 0 26 -6 29 -22z
m-2898 5 c4 -4 15 -8 24 -8 65 -5 67 -5 53 -14 -9 -6 -22 -6 -32 0 -11 6 -28
5 -44 -1 -14 -5 -34 -10 -42 -10 -14 0 -14 3 3 19 21 22 27 24 38 14z m773
-15 c-3 -8 -6 -5 -6 6 -1 11 2 17 5 13 3 -3 4 -12 1 -19z m1248 2 c-3 -5 -11
-10 -16 -10 -6 0 -7 5 -4 10 3 6 11 10 16 10 6 0 7 -4 4 -10z m1197 -8 c3 -9
1 -26 -3 -37 -6 -15 -8 -11 -8 18 -1 40 4 48 11 19z m-1262 -6 c0 -2 -7 -6
-15 -10 -8 -3 -15 -1 -15 4 0 6 7 10 15 10 8 0 15 -2 15 -4z m450 -6 c0 -5 -4
-10 -9 -10 -6 0 -13 5 -16 10 -3 6 1 10 9 10 9 0 16 -4 16 -10z m-3 -42 c-3
-8 -6 -5 -6 6 -1 11 2 17 5 13 3 -3 4 -12 1 -19z m-2540 -10 c-3 -8 -6 -5 -6
6 -1 11 2 17 5 13 3 -3 4 -12 1 -19z m113 -10 c0 -5 6 -5 17 0 28 16 63 -14
63 -54 0 -31 -3 -34 -27 -33 -17 1 -21 3 -10 6 17 5 22 30 9 49 -4 5 -26 10
-49 10 -48 -1 -61 8 -44 28 13 15 41 11 41 -6z m207 6 c-3 -3 -12 -4 -19 -1
-8 3 -5 6 6 6 11 1 17 -2 13 -5z m40 0 c-3 -3 -12 -4 -19 -1 -8 3 -5 6 6 6 11
1 17 -2 13 -5z m3 -59 c0 -8 -7 -15 -15 -15 -16 0 -20 12 -8 23 11 12 23 8 23
-8z m4209 -9 c-2 -2 -46 -7 -96 -10 -64 -5 -93 -4 -93 3 0 7 34 11 97 11 53 0
94 -2 92 -4z m-1252 -28 c-3 -8 -6 -5 -6 6 -1 11 2 17 5 13 3 -3 4 -12 1 -19z
m113 -8 c0 -22 5 -25 58 -34 26 -4 32 -2 32 12 0 15 2 15 10 2 5 -8 10 -18 10
-21 0 -11 -89 -21 -120 -14 -26 6 -30 11 -30 41 0 27 4 34 20 34 13 0 20 -7
20 -20z m-3187 -26 c18 -6 24 -24 7 -24 -5 0 -10 5 -10 10 0 6 -18 10 -40 10
-22 0 -40 5 -40 11 0 10 31 7 83 -7z m1952 -3 c7 -12 -12 -24 -25 -16 -11 7
-4 25 10 25 5 0 11 -4 15 -9z m1375 -1 c0 -5 -4 -10 -10 -10 -5 0 -10 5 -10
10 0 6 5 10 10 10 6 0 10 -4 10 -10z m137 -117 c-2 -21 -4 -6 -4 32 0 39 2 55
4 38 2 -18 2 -50 0 -70z m-3579 60 c-10 -2 -28 -2 -40 0 -13 2 -5 4 17 4 22 1
32 -1 23 -4z m12 -43 c0 -5 -2 -10 -4 -10 -3 0 -8 5 -11 10 -3 6 -1 10 4 10 6
0 11 -4 11 -10z m2360 -75 c0 -19 -4 -35 -10 -35 -5 0 -10 16 -10 35 0 19 5
35 10 35 6 0 10 -16 10 -35z m2540 -45 c0 -5 -2 -10 -4 -10 -3 0 -8 5 -11 10
-3 6 -1 10 4 10 6 0 11 -4 11 -10z m-2090 -40 c0 -20 -5 -30 -15 -30 -10 0
-15 10 -15 30 0 20 5 30 15 30 10 0 15 -10 15 -30z m-210 10 c0 -5 -4 -10 -10
-10 -5 0 -10 5 -10 10 0 6 5 10 10 10 6 0 10 -4 10 -10z m1864 -25 c-4 -8 -8
-15 -10 -15 -2 0 -4 7 -4 15 0 8 4 15 10 15 5 0 7 -7 4 -15z m-897 -27 c-3 -8
-6 -5 -6 6 -1 11 2 17 5 13 3 -3 4 -12 1 -19z m303 -10 c0 -6 -6 -5 -15 2 -8
7 -15 14 -15 16 0 2 7 1 15 -2 8 -4 15 -11 15 -16z m1518 5 c-10 -2 -18 -13
-18 -24 0 -15 -6 -20 -22 -17 -13 2 -24 10 -26 20 -3 17 16 26 58 26 16 0 19
-2 8 -5z m-8961 -189 c-3 -3 -12 -4 -19 -1 -8 3 -5 6 6 6 11 1 17 -2 13 -5z
m11 -201 c-10 -2 -26 -2 -35 0 -10 3 -2 5 17 5 19 0 27 -2 18 -5z m20 -38 c9
-20 9 -25 -3 -25 -7 0 -16 4 -20 9 -3 5 -34 13 -70 16 -93 10 -91 25 3 25 74
0 79 -1 90 -25z m-96 -21 l48 -7 -35 -19 c-33 -17 -38 -17 -58 -3 -12 8 -34
15 -49 15 -15 0 -29 4 -32 9 -10 15 9 23 44 17 19 -3 56 -9 82 -12z m933 -163
c7 -22 -1 -43 -32 -93 -28 -46 -40 -47 -57 -6 -14 33 -8 77 15 104 17 21 66
18 74 -5z m-855 -310 c16 -31 13 -91 -5 -91 -18 0 -65 44 -65 60 0 23 21 50
40 50 11 0 24 -9 30 -19z m2200 -81 c-8 -5 -33 -9 -55 -8 l-40 1 40 7 c65 12
73 12 55 0z m959 -146 c-30 -32 -39 -30 -39 5 0 20 8 35 28 49 l27 21 3 -26
c2 -16 -5 -34 -19 -49z m-89 -23 c0 -35 -14 -47 -63 -56 l-38 -7 3 32 c3 29 8
35 43 46 56 17 55 17 55 -15z m-140 -41 c0 -23 -4 -30 -20 -30 -15 0 -20 -7
-20 -27 0 -24 -2 -25 -15 -13 -11 12 -12 23 -3 58 9 35 15 42 34 42 20 0 24
-5 24 -30z m-2595 -20 c3 -5 12 -7 19 -4 8 3 17 1 21 -5 4 -7 -4 -11 -19 -11
-14 0 -26 5 -26 11 0 5 -4 7 -10 4 -5 -3 -10 -1 -10 4 0 14 17 14 25 1z m2395
-90 c0 -11 -7 -20 -15 -20 -15 0 -21 21 -8 33 12 13 23 7 23 -13z m420 8 c0
-33 -14 -58 -31 -58 -25 0 -26 45 -1 59 23 14 32 13 32 -1z m-130 -48 c0 -5
-13 -10 -30 -10 -16 0 -30 5 -30 10 0 6 14 10 30 10 17 0 30 -4 30 -10z
m-1339 -10 l209 0 0 -50 c0 -56 3 -54 -105 -65 -33 -4 -91 -13 -128 -21 -38
-8 -90 -14 -117 -14 -63 0 -80 -7 -80 -35 0 -13 -11 -30 -26 -39 -20 -14 -25
-24 -22 -49 3 -27 9 -34 43 -45 21 -7 41 -14 42 -16 9 -9 -20 -322 -30 -332
-7 -6 -36 -20 -64 -32 l-53 -21 -9 37 c-48 176 -142 578 -147 624 l-7 57 99 4
c55 2 119 2 143 0 24 -1 138 -3 252 -3z m329 -29 c0 -32 -39 -71 -71 -71 -16
0 -19 8 -19 50 l0 50 45 0 c43 0 45 -1 45 -29z m70 19 c0 -9 -31 -30 -44 -30
-3 0 -6 9 -6 20 0 15 7 20 25 20 14 0 25 -4 25 -10z m310 -41 c0 -47 -2 -50
-22 -47 -14 2 -24 11 -26 24 -4 30 15 74 33 74 11 0 15 -12 15 -51z m-70 -4
c0 -28 -4 -35 -20 -35 -15 0 -20 7 -20 28 0 32 7 42 27 42 8 0 13 -12 13 -35z
m546 -52 c-12 -162 -17 -183 -37 -183 -16 0 -19 8 -19 49 0 28 7 80 15 118 22
95 25 103 37 103 7 0 9 -28 4 -87z m49 -52 c-5 -76 -12 -131 -18 -131 -9 0 -3
165 10 238 11 67 15 20 8 -107z m102 112 c-3 -16 -11 -79 -18 -140 -14 -116
-20 -128 -58 -104 -12 7 -12 28 -2 129 6 66 11 125 11 131 0 6 16 11 36 11 34
0 36 -2 31 -27z m119 -30 c-10 -96 -39 -253 -46 -253 -3 0 -14 6 -24 13 -18
13 -18 19 -2 138 22 158 22 159 53 159 25 0 26 -1 19 -57z m-630 -61 c-11 -10
-14 3 -7 38 l6 35 3 -33 c2 -19 1 -36 -2 -40z m201 4 c-8 -90 -27 -156 -43
-156 -17 0 -17 6 -3 107 13 101 17 113 36 113 13 0 15 -10 10 -64z m77 27
c-14 -82 -35 -177 -39 -182 -13 -12 -12 13 6 109 10 58 19 106 19 108 0 1 5 2
10 2 7 0 8 -14 4 -37z m-1146 -255 c7 -7 12 -26 12 -44 0 -24 -5 -33 -22 -38
-44 -11 -48 -8 -48 44 0 46 2 50 23 50 13 0 28 -5 35 -12z m165 -24 c63 -13
14 -44 -69 -44 -31 0 -34 2 -34 31 0 34 -2 34 103 13z m117 -14 c-20 -13 -40
-13 -40 0 0 6 12 10 28 10 21 0 24 -2 12 -10z m110 -90 c0 -43 -3 -50 -20 -50
-17 0 -20 7 -20 50 0 43 3 50 20 50 17 0 20 -7 20 -50z m-90 -10 c0 -46 -2
-50 -24 -50 -24 0 -36 21 -36 67 0 22 12 31 43 32 14 1 17 -8 17 -49z m-110 0
c0 -30 -1 -31 -37 -24 -110 20 -113 50 -5 53 40 1 42 0 42 -29z m-186 -50 c21
-8 26 -16 26 -44 0 -33 -2 -35 -51 -45 -29 -6 -54 -10 -56 -7 -2 2 -1 27 3 55
6 45 9 51 30 51 12 0 34 -4 48 -10z m175 -39 c11 -7 3 -11 -31 -16 -51 -8 -68
-2 -68 22 0 13 8 14 42 9 22 -4 48 -11 57 -15z m1241 -11 c0 -19 -7 -20 -155
-20 -86 0 -155 4 -155 9 0 5 48 12 108 16 59 3 114 8 122 9 8 2 30 4 48 5 26
1 32 -3 32 -19z m13 -107 c4 -20 5 -39 3 -41 -2 -2 -79 -8 -171 -15 -185 -12
-185 -12 -185 50 l0 32 148 4 c81 1 159 4 173 5 23 2 27 -2 32 -35z m-468
-319 l6 -41 -98 23 c-54 13 -114 24 -133 24 -76 1 -55 17 73 55 l132 40 7 -30
c3 -16 9 -48 13 -71z m-960 8 c-16 -14 -125 -52 -125 -44 0 4 3 17 6 30 6 20
13 22 67 22 34 0 57 -4 52 -8z m275 -65 l0 -53 -71 -18 c-40 -10 -73 -24 -76
-33 -6 -15 -22 -15 -205 3 -99 10 -75 28 125 93 100 32 192 60 205 60 20 1 22
-3 22 -52z m176 42 c32 -8 44 -16 44 -29 0 -14 -15 -22 -69 -34 -39 -9 -72
-16 -75 -16 -8 0 -7 75 1 83 10 10 48 8 99 -4z m309 -58 c55 -12 111 -24 125
-27 21 -5 8 -13 -74 -45 -94 -38 -101 -39 -140 -27 l-41 13 -3 58 c-3 53 -1
58 15 53 10 -2 63 -14 118 -25z m-715 -181 c95 -11 95 -11 143 -58 57 -56 62
-72 47 -149 -17 -88 -18 -90 -52 -104 -34 -14 -88 -56 -88 -69 0 -5 31 -12 69
-16 128 -12 123 -34 -23 -92 -59 -23 -115 -42 -125 -42 -26 0 -31 19 -31 123
0 115 -9 145 -65 227 -39 57 -46 75 -52 134 l-6 68 44 -6 c24 -3 87 -10 139
-16z"/>
<path d="M636 6563 c-6 -14 -5 -15 5 -6 7 7 10 15 7 18 -3 3 -9 -2 -12 -12z"/>
<path d="M5235 6309 c-10 -15 3 -25 16 -12 7 7 7 13 1 17 -6 3 -14 1 -17 -5z"/>
<path d="M5230 6160 c0 -5 5 -10 10 -10 6 0 10 5 10 10 0 6 -4 10 -10 10 -5 0
-10 -4 -10 -10z"/>
<path d="M4600 6130 c0 -5 5 -10 10 -10 6 0 10 5 10 10 0 6 -4 10 -10 10 -5 0
-10 -4 -10 -10z"/>
<path d="M4616 5923 c-13 -13 -5 -33 14 -33 11 0 20 3 20 6 0 11 -28 33 -34
27z"/>
<path d="M100 6040 c0 -5 5 -10 10 -10 6 0 10 5 10 10 0 6 -4 10 -10 10 -5 0
-10 -4 -10 -10z"/>
<path d="M3790 5901 c0 -5 5 -13 10 -16 6 -3 10 -2 10 4 0 5 -4 13 -10 16 -5
3 -10 2 -10 -4z"/>
<path d="M4020 5750 c0 -5 5 -10 11 -10 5 0 7 5 4 10 -3 6 -8 10 -11 10 -2 0
-4 -4 -4 -10z"/>
<path d="M7000 5535 c0 -43 1 -45 30 -45 29 0 30 2 30 45 0 43 -1 45 -30 45
-29 0 -30 -2 -30 -45z"/>
<path d="M6292 5563 c5 -25 28 -28 28 -4 0 12 -6 21 -16 21 -9 0 -14 -7 -12
-17z"/>
<path d="M6372 5563 c5 -25 28 -28 28 -4 0 12 -6 21 -16 21 -9 0 -14 -7 -12
-17z"/>
<path d="M6440 5572 c0 -5 7 -17 15 -28 14 -18 14 -18 15 9 0 17 -5 27 -15 27
-8 0 -15 -4 -15 -8z"/>
<path d="M6520 5566 c0 -8 4 -17 9 -20 10 -7 23 19 14 28 -11 11 -23 6 -23 -8z"/>
<path d="M6510 5432 c0 -13 4 -20 10 -17 6 3 10 1 10 -6 0 -7 3 -10 6 -6 3 3
-1 16 -10 29 l-16 22 0 -22z"/>
<path d="M6473 5424 c-4 -11 -8 -12 -13 -4 -4 7 -16 10 -26 8 -18 -5 -18 -5 1
-13 11 -5 23 -13 26 -18 4 -5 10 0 14 12 3 12 11 18 17 15 7 -4 8 -2 4 4 -10
16 -15 15 -23 -4z"/>
<path d="M4640 5449 c0 -5 5 -7 10 -4 6 3 10 8 10 11 0 2 -4 4 -10 4 -5 0 -10
-5 -10 -11z"/>
<path d="M4000 5200 c0 -6 7 -10 15 -10 8 0 15 2 15 4 0 2 -7 6 -15 10 -8 3
-15 1 -15 -4z"/>
<path d="M3782 5165 c0 -16 2 -22 5 -12 2 9 2 23 0 30 -3 6 -5 -1 -5 -18z"/>
<path d="M4880 5098 c1 -13 6 -33 13 -46 l13 -23 14 26 c7 14 17 25 22 25 4 0
3 9 -4 20 -18 29 -58 27 -58 -2z"/>
<path d="M4960 5091 c0 -16 6 -34 13 -40 11 -8 16 -5 25 15 18 39 15 54 -13
54 -21 0 -25 -5 -25 -29z"/>
<path d="M5106 5104 c-4 -9 1 -28 10 -41 15 -24 16 -24 28 -6 7 10 13 28 14
41 0 17 -5 22 -23 22 -12 0 -26 -7 -29 -16z"/>
<path d="M4981 4994 c0 -11 3 -14 6 -6 3 7 2 16 -1 19 -3 4 -6 -2 -5 -13z"/>
<path d="M6768 4873 c12 -2 32 -2 45 0 12 2 2 4 -23 4 -25 0 -35 -2 -22 -4z"/>
<path d="M4167 4573 c-4 -3 -7 -11 -7 -17 0 -6 5 -5 12 2 6 6 9 14 7 17 -3 3
-9 2 -12 -2z"/>
<path d="M4006 4515 c4 -8 10 -12 15 -9 11 6 2 24 -11 24 -5 0 -7 -7 -4 -15z"/>
<path d="M5745 4550 c3 -5 12 -10 20 -10 8 0 17 5 20 10 4 6 -5 10 -20 10 -15
0 -24 -4 -20 -10z"/>
<path d="M5590 4359 c0 -5 5 -7 10 -4 6 3 10 8 10 11 0 2 -4 4 -10 4 -5 0 -10
-5 -10 -11z"/>
<path d="M6493 4653 c9 -2 25 -2 35 0 9 3 1 5 -18 5 -19 0 -27 -2 -17 -5z"/>
<path d="M6958 4653 c7 -3 16 -2 19 1 4 3 -2 6 -13 5 -11 0 -14 -3 -6 -6z"/>
<path d="M7008 4653 c6 -2 18 -2 25 0 6 3 1 5 -13 5 -14 0 -19 -2 -12 -5z"/>
<path d="M6285 4630 l-20 -9 20 0 c11 0 27 4 35 9 13 9 13 10 0 9 -8 0 -24 -4
-35 -9z"/>
<path d="M7020 4633 c0 -7 -6 -13 -12 -13 -7 0 -44 -16 -82 -35 -39 -19 -75
-35 -82 -35 -18 0 -28 -20 -17 -31 5 -5 19 -11 31 -14 16 -3 23 3 31 26 13 37
29 37 36 2 4 -16 12 -41 20 -58 12 -27 14 -28 14 -7 1 12 -3 22 -9 22 -14 0
-12 37 3 47 22 14 37 12 38 -5 0 -10 6 -2 12 15 7 18 16 32 22 30 14 -3 18 29
6 50 -6 10 -11 12 -11 6z"/>
<path d="M7046 4615 c4 -8 10 -12 15 -9 11 6 2 24 -11 24 -5 0 -7 -7 -4 -15z"/>
<path d="M6574 4538 c3 -13 6 -27 6 -31 0 -5 5 -5 10 -2 17 10 12 55 -6 55
-12 0 -15 -6 -10 -22z"/>
<path d="M6851 4474 c0 -11 3 -14 6 -6 3 7 2 16 -1 19 -3 4 -6 -2 -5 -13z"/>
<path d="M7001 4464 c0 -11 3 -14 6 -6 3 7 2 16 -1 19 -3 4 -6 -2 -5 -13z"/>
<path d="M6465 4450 c-4 -6 5 -10 19 -10 14 0 26 5 26 10 0 6 -9 10 -19 10
-11 0 -23 -4 -26 -10z"/>
<path d="M6941 4417 c-13 -21 -12 -21 5 -5 10 10 16 20 13 22 -3 3 -11 -5 -18
-17z"/>
<path d="M6990 4425 c0 -8 2 -15 4 -15 2 0 6 7 10 15 3 8 1 15 -4 15 -6 0 -10
-7 -10 -15z"/>
<path d="M4512 4635 c3 -13 0 -26 -6 -29 -6 -2 -4 -5 5 -5 11 -1 18 9 21 29 3
22 0 30 -10 30 -10 0 -13 -8 -10 -25z"/>
<path d="M4590 4601 c0 -5 6 -21 14 -35 11 -22 15 -24 20 -11 12 33 7 55 -14
55 -11 0 -20 -4 -20 -9z"/>
<path d="M4631 4508 c2 -30 3 -35 6 -15 3 15 9 25 15 21 6 -4 8 1 6 11 -1 10
-9 20 -15 23 -9 2 -13 -9 -12 -40z"/>
<path d="M4470 4474 c0 -8 5 -12 10 -9 6 4 8 11 5 16 -9 14 -15 11 -15 -7z"/>
<path d="M4471 4434 c0 -11 3 -14 6 -6 3 7 2 16 -1 19 -3 4 -6 -2 -5 -13z"/>
<path d="M7670 4532 c0 -4 9 -8 20 -9 11 -1 18 2 15 8 -7 11 -35 12 -35 1z"/>
<path d="M3565 4570 c4 -6 11 -8 16 -5 14 9 11 15 -7 15 -8 0 -12 -5 -9 -10z"/>
<path d="M2015 6481 c-6 -11 13 -26 22 -17 4 3 1 6 -6 6 -7 0 -9 5 -6 10 3 6
4 10 1 10 -3 0 -7 -4 -11 -9z"/>
<path d="M1740 5866 c0 -9 6 -16 13 -16 6 0 4 -5 -5 -11 -31 -17 -20 -30 22
-26 23 2 41 -1 44 -7 3 -7 5 -6 5 2 1 7 -7 16 -16 19 -10 4 -28 18 -40 31 -18
20 -23 21 -23 8z"/>
<path d="M1343 5843 c-7 -3 -13 -14 -13 -26 0 -18 2 -19 10 -7 9 14 14 7 11
-13 -1 -5 4 -5 10 -1 6 3 15 1 19 -6 5 -8 9 -7 13 5 4 10 3 14 -4 9 -7 -4 -9
0 -5 14 7 20 -15 33 -41 25z"/>
<path d="M1421 5840 c-18 -11 0 -19 23 -10 16 5 17 8 4 12 -8 4 -21 3 -27 -2z"/>
<path d="M1670 5826 c0 -2 11 -6 25 -8 14 -3 25 -1 25 3 0 5 -11 9 -25 9 -14
0 -25 -2 -25 -4z"/>
<path d="M1734 5784 c3 -9 6 -18 6 -20 0 -3 5 -2 10 1 16 10 12 35 -6 35 -11
0 -14 -5 -10 -16z"/>
<path d="M1773 5788 c4 -11 1 -18 -5 -18 -9 0 -9 -3 0 -12 20 -20 33 4 15 27
-13 16 -15 17 -10 3z"/>
<path d="M1854 5766 c2 -27 -1 -36 -12 -36 -13 0 -12 -3 3 -20 15 -17 31 -20
103 -20 l85 0 -35 23 c-18 12 -51 31 -71 41 -20 11 -37 24 -37 29 0 6 -3 7 -7
4 -3 -4 -12 -2 -19 4 -10 8 -12 2 -10 -25z"/>
<path d="M88 5783 c7 -3 16 -2 19 1 4 3 -2 6 -13 5 -11 0 -14 -3 -6 -6z"/>
<path d="M1276 5774 c-3 -8 1 -17 9 -20 24 -10 32 0 14 18 -15 14 -18 14 -23
2z"/>
<path d="M358 5762 c12 -12 26 -22 32 -22 5 0 26 -10 47 -21 51 -29 80 -31 86
-7 7 24 -46 49 -108 53 -22 1 -49 6 -59 10 -17 8 -17 6 2 -13z"/>
<path d="M1437 5769 c7 -7 15 -10 18 -7 3 3 -2 9 -12 12 -14 6 -15 5 -6 -5z"/>
<path d="M1416 5745 c3 -16 7 -36 10 -42 2 -8 -6 -13 -21 -13 -14 0 -25 -1
-25 -2 0 -2 6 -19 13 -38 24 -67 36 -80 70 -80 27 0 35 -5 43 -28 12 -30 42
-42 109 -42 38 0 67 34 59 68 -3 11 -1 23 5 26 6 4 11 15 11 26 0 10 7 21 16
24 13 5 15 2 9 -21 -11 -43 -11 -55 1 -60 6 -2 23 23 37 55 32 70 32 72 10 73
-16 0 -16 1 1 8 18 7 18 8 2 14 -13 5 -19 1 -23 -12 -3 -14 -13 -18 -36 -17
-25 1 -32 -4 -37 -24 -6 -23 -7 -21 -14 14 -10 50 -26 30 -24 -30 0 -22 -2
-46 -6 -52 -12 -20 -54 -14 -61 8 -3 11 -11 20 -18 20 -8 0 -8 3 1 12 7 7 12
20 12 29 0 21 -22 38 -28 21 -2 -7 -7 -10 -11 -8 -8 5 -6 -31 5 -84 5 -24 3
-32 -4 -25 -6 6 -13 30 -17 55 -8 52 -20 70 -47 70 -10 0 -17 4 -13 9 3 5 1
12 -5 16 -6 4 -8 10 -5 14 2 5 -2 17 -10 27 -14 18 -15 17 -9 -11z m194 -185
c0 -12 -27 -12 -55 0 -16 7 -13 9 18 9 20 1 37 -3 37 -9z"/>
<path d="M1652 5740 c0 -14 2 -19 5 -12 2 6 2 18 0 25 -3 6 -5 1 -5 -13z"/>
<path d="M640 5741 c0 -11 57 -29 69 -22 6 4 -7 12 -29 18 -22 5 -40 7 -40 4z"/>
<path d="M1368 5743 c7 -3 16 -2 19 1 4 3 -2 6 -13 5 -11 0 -14 -3 -6 -6z"/>
<path d="M1125 5720 c3 -5 8 -10 11 -10 2 0 4 5 4 10 0 6 -5 10 -11 10 -5 0
-7 -4 -4 -10z"/>
<path d="M744 5699 c-3 -5 9 -9 25 -9 17 0 31 2 31 4 0 8 -51 13 -56 5z"/>
<path d="M1280 5706 c0 -2 7 -7 16 -10 8 -3 12 -2 9 4 -6 10 -25 14 -25 6z"/>
<path d="M1018 5693 c7 -3 16 -2 19 1 4 3 -2 6 -13 5 -11 0 -14 -3 -6 -6z"/>
<path d="M2513 4924 c-20 -20 -16 -44 7 -44 20 0 24 12 12 41 -6 14 -9 15 -19
3z"/>
<path d="M2492 4349 c2 -6 7 -10 12 -9 5 1 13 -4 17 -12 7 -10 9 -9 9 3 0 9
-7 20 -16 23 -22 8 -26 8 -22 -5z"/>
<path d="M6970 3669 c0 -5 5 -7 10 -4 6 3 10 8 10 11 0 2 -4 4 -10 4 -5 0 -10
-5 -10 -11z"/>
<path d="M7898 3573 c7 -3 16 -2 19 1 4 3 -2 6 -13 5 -11 0 -14 -3 -6 -6z"/>
<path d="M8240 3520 c0 -11 4 -20 9 -20 5 0 7 9 4 20 -3 11 -7 20 -9 20 -2 0
-4 -9 -4 -20z"/>
<path d="M7977 3513 c-4 -6 -24 -13 -45 -17 -39 -6 -39 -6 -46 -58 -3 -29 -6
-79 -6 -110 0 -57 0 -58 29 -58 17 0 33 5 36 10 4 6 15 8 26 5 11 -4 19 -2 19
4 0 6 -9 11 -20 11 -11 0 -20 5 -20 10 0 6 11 10 25 10 25 0 25 1 24 83 0 83
-10 130 -22 110z"/>
<path d="M8175 3480 c-3 -5 -1 -10 4 -10 6 0 11 5 11 10 0 6 -2 10 -4 10 -3 0
-8 -4 -11 -10z"/>
<path d="M1749 3280 c-1 -3 -1 -8 0 -12 0 -5 -3 -8 -9 -8 -5 0 -10 -10 -10
-22 0 -17 3 -19 9 -9 5 8 7 -7 5 -37 l-4 -51 56 -7 c78 -9 97 2 112 66 22 94
24 91 -73 88 -47 -1 -86 -5 -86 -8z"/>
<path d="M7805 3249 c7 -31 8 -90 4 -108 -3 -11 14 -18 66 -27 86 -16 640 -31
648 -18 3 5 7 41 9 79 l3 70 -330 6 c-181 3 -347 9 -367 14 -35 7 -37 6 -33
-16z"/>
<path d="M8571 3233 c0 -11 3 -13 6 -5 2 6 10 9 15 6 7 -4 8 -2 4 4 -11 18
-26 14 -25 -5z"/>
<path d="M9355 3170 c-3 -5 3 -10 14 -10 11 0 23 5 26 10 3 6 -3 10 -14 10
-11 0 -23 -4 -26 -10z"/>
<path d="M6778 3133 c5 -21 7 -23 10 -9 2 10 0 22 -6 28 -6 6 -7 0 -4 -19z"/>
<path d="M9234 3129 c-3 -5 -17 -7 -32 -4 l-27 5 28 -11 c48 -19 32 -34 -41
-37 -125 -5 -138 -20 -18 -21 l108 -1 -4 24 c-4 20 -1 23 26 24 18 0 25 -2 18
-7 -21 -13 7 -28 61 -33 l47 -6 0 37 0 37 -80 1 c-44 0 -83 -4 -86 -8z"/>
<path d="M1123 3098 c2 -8 18 -12 38 -11 19 1 59 2 89 2 30 0 62 0 70 0 8 1
96 1 195 2 110 0 172 4 160 9 -11 5 -141 9 -288 9 -211 1 -268 -2 -264 -11z"/>
<path d="M1716 3101 c-12 -4 11 -8 59 -9 43 -1 76 0 74 2 -9 8 -116 14 -133 7z"/>
<path d="M1875 3100 c-18 -8 -17 -9 8 -9 15 -1 27 4 27 9 0 12 -8 12 -35 0z"/>
<path d="M6782 3070 c0 -14 2 -19 5 -12 2 6 2 18 0 25 -3 6 -5 1 -5 -13z"/>
<path d="M7977 3063 c-3 -5 -2 -15 4 -23 7 -13 9 -12 9 2 0 11 5 15 15 12 8
-4 15 -12 15 -20 0 -8 6 -13 13 -11 7 1 13 -10 15 -25 2 -16 -1 -28 -7 -28
-18 0 -12 -13 20 -49 21 -22 34 -30 38 -22 9 14 32 -55 25 -74 -3 -7 -1 -16 5
-20 6 -3 11 -17 11 -30 0 -13 4 -26 8 -29 4 -2 7 -85 6 -183 -2 -102 2 -180 7
-184 15 -9 19 -164 19 -728 0 -531 -2 -576 -34 -619 -20 -28 -43 -32 -65 -13
-22 19 -22 19 -46 -3 -13 -13 -42 -28 -64 -34 -27 -9 -41 -19 -45 -36 -3 -13
-15 -26 -26 -29 -11 -3 -20 -12 -20 -20 0 -16 -27 -30 -41 -21 -5 3 -9 -2 -9
-11 0 -11 -6 -15 -17 -12 -10 3 -36 8 -58 12 -33 6 -54 21 -121 91 -45 46 -85
84 -89 84 -4 0 -5 -9 -2 -20 5 -18 0 -20 -36 -20 -50 0 -87 -9 -87 -21 0 -8
521 -584 674 -746 l49 -53 629 0 628 0 0 1430 0 1429 -647 5 c-630 5 -720 7
-754 21 -10 3 -19 2 -22 -2z m200 -480 c-3 -10 -5 -2 -5 17 0 19 2 27 5 18 2
-10 2 -26 0 -35z"/>
<path d="M6781 3004 c0 -11 3 -14 6 -6 3 7 2 16 -1 19 -3 4 -6 -2 -5 -13z"/>
<path d="M1805 2900 c-16 -16 -25 -33 -22 -37 4 -3 7 -2 7 4 0 6 10 13 23 17
13 3 23 14 24 26 2 26 2 26 -32 -10z"/>
<path d="M1160 2911 c0 -5 7 -11 15 -15 9 -3 15 0 15 9 0 8 -7 15 -15 15 -8 0
-15 -4 -15 -9z"/>
<path d="M7122 2858 c3 -7 13 -15 24 -17 16 -3 17 -1 5 13 -16 19 -34 21 -29
4z"/>
<path d="M8117 2697 c-4 -20 -4 -44 1 -53 14 -24 18 -5 12 46 l-5 45 -8 -38z"/>
<path d="M7486 2654 c-3 -9 -6 -24 -6 -35 0 -12 -7 -19 -18 -19 -10 0 -19 -6
-19 -14 0 -8 6 -12 13 -9 7 2 15 -5 19 -17 4 -12 9 -19 12 -16 3 3 12 -2 21
-10 20 -21 31 -7 33 46 4 81 1 90 -25 90 -13 0 -27 -7 -30 -16z m34 -74 c0 -5
-6 -10 -14 -10 -8 0 -18 5 -21 10 -3 6 3 10 14 10 12 0 21 -4 21 -10z"/>
<path d="M1313 2292 c-33 -5 -31 -39 1 -39 25 0 44 25 29 37 -4 3 -18 4 -30 2z"/>
<path d="M3567 335 c-24 -24 -97 -266 -97 -321 0 -22 69 -19 76 4 3 9 24 63
46 120 50 132 56 166 33 192 -22 24 -38 25 -58 5z"/>
</g>
</svg>
