<?xml version="1.0" standalone="no"?>
<!DOCTYPE svg PUBLIC "-//W3C//DTD SVG 20010904//EN"
 "http://www.w3.org/TR/2001/REC-SVG-20010904/DTD/svg10.dtd">
<svg version="1.0" xmlns="http://www.w3.org/2000/svg"
 width="1000.000000pt" height="563.000000pt" viewBox="0 0 1000.000000 563.000000"
 preserveAspectRatio="xMidYMid meet">

<g transform="translate(0.000000,563.000000) scale(0.100000,-0.100000)"
fill="#000000" stroke="none">
<path d="M7204 4650 c-43 -33 -51 -43 -47 -64 4 -17 12 -26 24 -26 21 0 34 17
17 22 -13 5 -6 17 42 81 12 15 20 27 18 27 -1 0 -26 -18 -54 -40z"/>
<path d="M6996 4613 c-4 -4 -51 -15 -104 -24 l-97 -16 137 -2 c146 -1 207 10
176 33 -19 14 -100 21 -112 9z"/>
<path d="M4821 4418 c1 -17 3 -18 6 -6 4 15 22 18 141 21 l137 3 -142 2 c-143
2 -143 2 -142 -20z"/>
<path d="M5140 4429 c0 -5 5 -7 10 -4 6 3 10 8 10 11 0 2 -4 4 -10 4 -5 0 -10
-5 -10 -11z"/>
<path d="M5322 4433 c53 -3 68 -7 71 -21 3 -12 5 -11 6 6 1 21 -2 22 -71 20
l-73 -2 67 -3z"/>
<path d="M5220 4365 c0 -9 -11 -20 -25 -25 -34 -13 -31 -30 5 -30 28 0 30 3
30 35 0 19 -2 35 -5 35 -3 0 -5 -7 -5 -15z"/>
<path d="M5143 4305 c0 -22 2 -30 4 -17 2 12 2 30 0 40 -3 9 -5 -1 -4 -23z"/>
<path d="M4868 4193 c6 -2 18 -2 25 0 6 3 1 5 -13 5 -14 0 -19 -2 -12 -5z"/>
<path d="M7640 2794 l0 -1316 23 6 c12 3 37 6 55 6 l32 0 -2 1308 -3 1307 -52
3 -53 3 0 -1317z"/>
<path d="M4860 4030 c0 -5 4 -10 9 -10 6 0 13 5 16 10 3 6 -1 10 -9 10 -9 0
-16 -4 -16 -10z"/>
<path d="M5685 3840 c-3 -4 2 -11 11 -14 24 -9 34 -7 34 7 0 14 -37 20 -45 7z"/>
<path d="M4905 3430 c-16 -4 411 -8 950 -9 651 0 975 3 965 9 -17 12 -1867 11
-1915 0z"/>
<path d="M4778 3423 c6 -2 18 -2 25 0 6 3 1 5 -13 5 -14 0 -19 -2 -12 -5z"/>
<path d="M4613 3130 c0 -36 2 -50 4 -32 2 17 2 47 0 65 -2 17 -4 3 -4 -33z"/>
<path d="M4688 3139 c-1 -28 0 -53 5 -56 4 -2 7 21 7 51 0 70 -7 73 -12 5z"/>
<path d="M4243 3110 c0 -25 2 -35 4 -22 2 12 2 32 0 45 -2 12 -4 2 -4 -23z"/>
<path d="M6915 3115 c4 -11 10 -35 13 -52 2 -18 8 -30 13 -27 13 8 1 67 -18
84 -14 13 -15 13 -8 -5z"/>
<path d="M3485 3073 c-5 -10 -7 -26 -6 -35 1 -10 -3 -18 -8 -18 -6 0 -11 4
-11 9 0 12 -30 22 -42 15 -7 -5 -6 -11 4 -18 16 -12 30 -66 17 -66 -4 0 -11 5
-14 10 -3 6 -13 10 -22 10 -12 0 -13 -3 -4 -13 6 -8 8 -16 5 -20 -3 -3 4 -10
15 -16 17 -10 20 -9 15 4 -4 8 -1 15 5 15 6 0 11 -7 11 -15 0 -9 9 -15 25 -15
14 0 25 5 25 10 0 6 -6 10 -14 10 -8 0 -18 5 -21 11 -5 7 3 10 21 8 37 -3 94
11 94 23 0 5 -9 6 -20 3 -20 -6 -28 9 -10 20 17 10 11 35 -7 35 -29 1 -54 25
-41 38 8 8 9 12 1 12 -6 0 -14 -8 -18 -17z m25 -72 c0 -6 -4 -13 -10 -16 -5
-3 -10 1 -10 9 0 9 5 16 10 16 6 0 10 -4 10 -9z"/>
<path d="M5625 3080 c-3 -5 1 -10 10 -10 9 0 13 5 10 10 -3 6 -8 10 -10 10 -2
0 -7 -4 -10 -10z"/>
<path d="M5674 3055 c6 -28 5 -29 -9 -11 -24 31 -17 -2 8 -39 18 -26 26 -32
35 -23 7 7 12 19 13 28 0 9 2 10 5 3 3 -7 12 -9 20 -6 18 7 18 23 0 23 -8 0
-21 9 -29 20 -8 11 -17 17 -21 13 -4 -4 -12 -1 -17 7 -8 11 -9 7 -5 -15z"/>
<path d="M5820 3026 c0 -9 5 -16 10 -16 6 0 10 4 10 9 0 6 -4 13 -10 16 -5 3
-10 -1 -10 -9z"/>
<path d="M3191 2989 c-12 -19 -21 -37 -21 -40 0 -20 34 -30 92 -27 57 3 63 5
66 26 4 25 -15 55 -29 46 -5 -3 -9 0 -9 5 0 6 -7 11 -15 11 -8 0 -15 -8 -15
-17 0 -14 -4 -13 -24 6 l-25 23 -20 -33z"/>
<path d="M5567 3013 c-4 -3 -7 -15 -7 -25 0 -10 -4 -18 -9 -18 -5 0 -13 -10
-16 -21 -8 -23 11 -42 32 -34 7 2 10 -2 6 -11 -3 -8 1 -14 11 -14 28 0 17 -18
-19 -30 -37 -12 -44 -24 -20 -34 8 -3 15 -10 15 -15 0 -6 -6 -8 -14 -5 -8 3
-17 1 -21 -5 -3 -6 1 -11 9 -11 9 0 16 -4 16 -10 0 -18 19 -10 25 11 5 15 10
18 15 9 4 -6 32 -13 63 -15 44 -3 57 0 62 12 3 9 2 19 -2 22 -4 3 -8 17 -8 30
0 30 -21 39 -28 11 -3 -11 -1 -18 4 -14 5 3 9 -7 9 -21 0 -39 -34 -30 -38 10
-2 17 -8 35 -13 41 -5 6 -1 16 11 24 11 8 20 20 20 27 0 7 5 13 10 13 6 0 10
5 10 12 0 9 -3 9 -12 0 -17 -17 -31 -15 -24 3 3 8 0 14 -6 12 -6 -1 -11 8 -13
20 -2 31 -15 42 -15 15 0 -28 -20 -29 -27 -2 -5 21 -15 25 -26 13z m-3 -68
c-4 -8 -10 -12 -15 -9 -11 6 -2 24 11 24 5 0 7 -7 4 -15z"/>
<path d="M3725 2990 c-3 -5 -1 -10 4 -10 6 0 11 5 11 10 0 6 -2 10 -4 10 -3 0
-8 -4 -11 -10z"/>
<path d="M1198 2983 c7 -3 16 -2 19 1 4 3 -2 6 -13 5 -11 0 -14 -3 -6 -6z"/>
<path d="M5825 2980 c3 -5 8 -10 11 -10 2 0 4 5 4 10 0 6 -5 10 -11 10 -5 0
-7 -4 -4 -10z"/>
<path d="M3687 2947 c-23 -23 -19 -27 10 -12 12 6 19 16 15 21 -4 6 -14 3 -25
-9z"/>
<path d="M3740 2960 c0 -5 7 -10 16 -10 8 0 12 5 9 10 -3 6 -10 10 -16 10 -5
0 -9 -4 -9 -10z"/>
<path d="M1190 2931 c0 -5 9 -7 20 -4 11 3 20 7 20 9 0 2 -9 4 -20 4 -11 0
-20 -4 -20 -9z"/>
<path d="M1258 2933 c7 -3 16 -2 19 1 4 3 -2 6 -13 5 -11 0 -14 -3 -6 -6z"/>
<path d="M3000 2930 c-12 -8 -9 -10 13 -10 15 0 27 5 27 10 0 13 -20 13 -40 0z"/>
<path d="M5526 2901 c-4 -7 -5 -15 -2 -18 9 -9 19 4 14 18 -4 11 -6 11 -12 0z"/>
<path d="M5837 2873 c-4 -3 -7 -11 -7 -17 0 -6 5 -5 12 2 6 6 9 14 7 17 -3 3
-9 2 -12 -2z"/>
<path d="M5442 2858 c6 -18 28 -21 28 -4 0 9 -7 16 -16 16 -9 0 -14 -5 -12
-12z"/>
<path d="M2493 2852 c-13 -2 -23 -7 -23 -11 0 -5 54 -9 120 -9 68 0 120 3 120
9 0 5 -6 9 -12 10 -56 3 -187 3 -205 1z"/>
<path d="M2720 2834 c0 -8 5 -14 10 -14 6 0 10 -9 10 -20 0 -21 -16 -24 -102
-21 -20 0 -39 -3 -43 -9 -3 -5 -12 -7 -20 -3 -10 3 -15 -1 -15 -14 0 -10 -5
-24 -12 -31 -9 -9 -6 -12 15 -12 17 0 27 -5 27 -14 0 -8 8 -17 18 -19 13 -4
12 -5 -5 -6 -30 -1 -40 -21 -11 -22 66 -4 257 -4 281 -1 22 4 27 9 27 31 0 27
0 27 -70 25 -38 -1 -73 2 -76 8 -11 17 30 44 65 44 19 -1 36 5 38 12 3 7 -4
12 -16 12 -15 0 -21 6 -21 24 0 16 5 23 16 22 9 0 19 4 21 10 3 8 -18 12 -67
12 -53 0 -70 -3 -70 -14z m50 -14 c0 -5 -4 -10 -10 -10 -5 0 -10 5 -10 10 0 6
5 10 10 10 6 0 10 -4 10 -10z m25 0 c3 -5 1 -10 -4 -10 -6 0 -11 5 -11 10 0 6
2 10 4 10 3 0 8 -4 11 -10z m-25 -30 c0 -5 -5 -10 -11 -10 -5 0 -7 5 -4 10 3
6 8 10 11 10 2 0 4 -4 4 -10z m-150 -40 c0 -5 -5 -10 -11 -10 -5 0 -7 5 -4 10
3 6 8 10 11 10 2 0 4 -4 4 -10z m30 0 c0 -5 -5 -10 -11 -10 -5 0 -7 5 -4 10 3
6 8 10 11 10 2 0 4 -4 4 -10z m35 0 c3 -5 2 -10 -4 -10 -5 0 -13 5 -16 10 -3
6 -2 10 4 10 5 0 13 -4 16 -10z m35 0 c0 -5 -4 -10 -10 -10 -5 0 -10 5 -10 10
0 6 5 10 10 10 6 0 10 -4 10 -10z m4 -29 c3 -5 -1 -11 -9 -15 -9 -3 -15 0 -15
9 0 16 16 20 24 6z m-74 -11 c0 -5 -2 -10 -4 -10 -3 0 -8 5 -11 10 -3 6 -1 10
4 10 6 0 11 -4 11 -10z m-3 -42 c-3 -8 -6 -5 -6 6 -1 11 2 17 5 13 3 -3 4 -12
1 -19z m41 11 c-2 -6 -8 -10 -13 -10 -5 0 -11 4 -13 10 -2 6 4 11 13 11 9 0
15 -5 13 -11z m32 1 c0 -5 -4 -10 -10 -10 -5 0 -10 5 -10 10 0 6 5 10 10 10 6
0 10 -4 10 -10z m75 0 c3 -6 -4 -10 -17 -10 -18 0 -20 2 -8 10 19 12 18 12 25
0z m35 1 c0 -6 -4 -13 -10 -16 -5 -3 -10 1 -10 9 0 9 5 16 10 16 6 0 10 -4 10
-9z m60 -5 c0 -2 -9 -6 -20 -9 -11 -3 -20 -1 -20 4 0 5 9 9 20 9 11 0 20 -2
20 -4z"/>
<path d="M2113 2833 c-12 -2 -24 -11 -27 -19 -8 -22 28 -17 49 6 10 11 14 19
9 19 -5 -1 -19 -4 -31 -6z"/>
<path d="M5774 2826 c-6 -7 -15 -23 -19 -36 l-7 -23 26 19 c14 11 26 27 26 37
0 20 -10 22 -26 3z"/>
<path d="M5859 2824 c-7 -9 -16 -50 -20 -93 -5 -68 -8 -66 -14 9 -1 23 -15 40
-31 40 -11 0 -14 -17 -14 -80 l0 -80 88 -2 c48 -1 121 -2 162 -4 87 -2 134 6
85 16 l-30 5 0 87 c0 52 -5 91 -12 98 -19 20 -31 -19 -29 -97 2 -40 -1 -73 -4
-73 -12 0 -18 33 -14 81 4 55 -12 99 -37 99 -26 0 -30 -11 -31 -100 -1 -75 -2
-79 -22 -76 -19 3 -21 10 -21 85 -1 60 -5 85 -16 92 -20 12 -25 11 -40 -7z"/>
<path d="M2843 2813 c-18 -7 -16 -23 2 -23 8 0 15 7 15 15 0 8 -1 15 -2 14 -2
0 -9 -3 -15 -6z"/>
<path d="M2080 2774 c0 -8 5 -12 10 -9 6 3 10 10 10 16 0 5 -4 9 -10 9 -5 0
-10 -7 -10 -16z"/>
<path d="M4905 2733 c-44 -19 -95 -41 -114 -50 -19 -8 -73 -18 -120 -20 -81
-5 -121 -20 -121 -45 0 -4 227 -8 505 -8 323 0 505 4 505 10 0 17 -40 19 -383
17 -185 -1 -337 1 -337 4 0 4 7 12 15 19 8 7 15 19 15 26 0 8 26 25 58 39 31
14 66 29 77 34 l20 10 -20 -1 c-11 0 -56 -15 -100 -35z"/>
<path d="M4424 2747 c-5 -9 -24 -18 -42 -20 -19 -2 -42 -13 -53 -23 -19 -19
-18 -20 112 -17 73 1 134 5 136 7 3 2 -9 11 -25 20 -16 8 -32 22 -35 30 -5 13
-10 13 -33 1 -24 -12 -29 -12 -39 2 -11 15 -13 15 -21 0z"/>
<path d="M6930 2697 c0 -9 -5 -17 -12 -17 -9 0 -9 -3 -1 -11 14 -14 6 -39 -14
-39 -8 0 -11 -4 -8 -10 7 -11 158 -11 275 0 64 6 51 7 -85 9 -88 1 -153 5
-145 9 18 8 19 47 2 64 -9 9 -12 8 -12 -5z"/>
<path d="M4210 2646 c0 -8 5 -18 10 -21 6 -3 10 3 10 14 0 12 -4 21 -10 21 -5
0 -10 -6 -10 -14z"/>
<path d="M7830 2630 c0 -11 5 -20 10 -20 6 0 10 9 10 20 0 11 -4 20 -10 20 -5
0 -10 -9 -10 -20z"/>
<path d="M2070 2629 c0 -5 5 -7 10 -4 6 3 10 8 10 11 0 2 -4 4 -10 4 -5 0 -10
-5 -10 -11z"/>
<path d="M6815 2630 c-3 -5 -1 -10 4 -10 6 0 11 5 11 10 0 6 -2 10 -4 10 -3 0
-8 -4 -11 -10z"/>
<path d="M3990 2620 c0 -5 5 -10 10 -10 6 0 10 5 10 10 0 6 -4 10 -10 10 -5 0
-10 -4 -10 -10z"/>
<path d="M3745 2600 c-10 -17 20 -22 101 -18 50 2 79 8 82 16 5 15 -173 17
-183 2z"/>
<path d="M7362 2580 c0 -14 2 -19 5 -12 2 6 2 18 0 25 -3 6 -5 1 -5 -13z"/>
<path d="M5853 2563 c9 -2 25 -2 35 0 9 3 1 5 -18 5 -19 0 -27 -2 -17 -5z"/>
<path d="M4230 2370 c0 -47 4 -80 10 -80 6 0 10 33 10 80 0 47 -4 80 -10 80
-6 0 -10 -33 -10 -80z"/>
<path d="M5003 2395 c0 -27 2 -38 4 -22 2 15 2 37 0 50 -2 12 -4 0 -4 -28z"/>
<path d="M5762 2018 c1 -233 4 -376 7 -318 12 213 12 740 2 740 -8 0 -10 -132
-9 -422z"/>
<path d="M4237 2063 c-12 -11 -8 -563 3 -563 6 0 10 102 10 285 0 157 -1 285
-3 285 -2 0 -7 -3 -10 -7z"/>
<path d="M5004 1885 c0 -104 2 -146 3 -92 2 54 2 139 0 190 -1 51 -3 7 -3 -98z"/>
<path d="M3892 2035 c0 -16 2 -22 5 -12 2 9 2 23 0 30 -3 6 -5 -1 -5 -18z"/>
<path d="M3882 1950 c0 -14 2 -19 5 -12 2 6 2 18 0 25 -3 6 -5 1 -5 -13z"/>
<path d="M3873 1810 c0 -25 2 -35 4 -22 2 12 2 32 0 45 -2 12 -4 2 -4 -23z"/>
<path d="M5761 1353 c0 -128 2 -233 7 -233 10 0 13 355 3 416 -6 33 -9 -26
-10 -183z"/>
<path d="M6540 1393 c0 -13 3 -14 8 -6 6 10 98 13 383 16 l374 2 -382 3 c-359
2 -383 1 -383 -15z"/>
<path d="M4375 1380 c-8 -13 5 -13 25 0 13 8 13 10 -2 10 -9 0 -20 -4 -23 -10z"/>
<path d="M4320 1350 c-9 -6 -10 -10 -3 -10 6 0 15 5 18 10 8 12 4 12 -15 0z"/>
<path d="M4997 1163 c-3 -16 -1 -35 4 -43 6 -10 8 -2 9 28 0 48 -5 55 -13 15z"/>
<path d="M4461 1064 c0 -11 3 -14 6 -6 3 7 2 16 -1 19 -3 4 -6 -2 -5 -13z"/>
<path d="M9070 729 c0 -16 7 -30 16 -33 24 -9 24 -5 3 29 l-19 30 0 -26z"/>
</g>
</svg>
