<?xml version="1.0" standalone="no"?>
<!DOCTYPE svg PUBLIC "-//W3C//DTD SVG 20010904//EN"
 "http://www.w3.org/TR/2001/REC-SVG-20010904/DTD/svg10.dtd">
<svg version="1.0" xmlns="http://www.w3.org/2000/svg"
 width="1000.000000pt" height="667.000000pt" viewBox="0 0 1000.000000 667.000000"
 preserveAspectRatio="xMidYMid meet">

<g transform="translate(0.000000,667.000000) scale(0.100000,-0.100000)"
fill="#000000" stroke="none">
<path d="M3290 2343 c0 -4 14 -54 32 -110 19 -64 36 -103 45 -103 7 0 13 7 13
16 0 8 -5 12 -11 8 -6 -4 -10 1 -8 12 1 11 -3 30 -8 44 -8 20 -7 26 6 32 9 4
11 7 3 7 -22 2 -32 44 -14 64 10 11 11 17 3 17 -7 0 -9 5 -6 10 4 6 -7 10 -24
10 -17 0 -31 -3 -31 -7z"/>
<path d="M6330 2219 c0 -5 5 -7 10 -4 6 3 10 8 10 11 0 2 -4 4 -10 4 -5 0 -10
-5 -10 -11z"/>
<path d="M4790 2104 c-81 -10 -137 -26 -173 -50 -22 -14 -36 -28 -34 -31 3 -3
15 4 27 15 46 43 187 57 530 54 376 -4 409 -15 484 -167 25 -52 33 -63 32 -43
0 16 -4 28 -8 28 -4 0 -12 19 -19 43 -15 56 -74 111 -142 133 -43 14 -105 17
-357 19 -168 2 -321 1 -340 -1z"/>
<path d="M3317 2013 c-9 -2 -15 -9 -12 -14 7 -11 112 -12 118 -1 3 4 -7 7 -21
7 -15 1 -36 3 -47 7 -11 3 -28 3 -38 1z"/>
<path d="M4560 1990 c-6 -11 -8 -20 -6 -20 3 0 10 9 16 20 6 11 8 20 6 20 -3
0 -10 -9 -16 -20z"/>
<path d="M5665 1849 c-4 -6 -5 -12 -2 -15 2 -3 7 2 10 11 7 17 1 20 -8 4z"/>
<path d="M5670 1808 c0 -7 4 -19 9 -26 7 -11 9 -10 14 3 5 11 3 14 -5 9 -8 -5
-9 -2 -5 9 3 10 2 17 -3 17 -6 0 -10 -6 -10 -12z"/>
<path d="M5771 1430 c0 -8 4 -22 9 -30 12 -18 12 -2 0 25 -6 13 -9 15 -9 5z"/>
<path d="M5821 1224 c0 -11 3 -14 6 -6 3 7 2 16 -1 19 -3 4 -6 -2 -5 -13z"/>
<path d="M5831 1187 c-1 -9 8 -57 18 -105 11 -48 19 -105 18 -127 -2 -36 0
-39 25 -41 l26 -3 -20 67 c-11 37 -31 103 -43 147 -13 44 -24 72 -24 62z"/>
<path d="M4282 994 c-19 -36 -32 -95 -19 -87 7 4 23 6 36 4 19 -2 22 1 18 14
-4 9 -3 14 3 10 15 -9 12 5 -9 44 -17 32 -19 33 -29 15z"/>
<path d="M4530 786 c0 -2 33 -17 73 -32 78 -30 102 -44 73 -44 -16 0 -18 -6
-13 -47 4 -33 3 -40 -3 -23 -4 14 -8 37 -9 53 -1 15 -5 27 -10 27 -8 0 -181
-681 -181 -711 0 -5 9 -9 20 -9 22 0 17 -18 100 325 59 246 78 309 79 273 1
-10 -24 -141 -54 -292 -30 -151 -55 -281 -55 -290 0 -25 39 -20 45 7 31 134
106 495 111 540 l7 57 52 -6 c34 -4 55 -3 59 5 5 8 13 8 26 1 21 -11 90 10 90
28 0 4 -39 14 -88 21 -48 6 -94 16 -102 21 -21 13 -10 12 115 -10 119 -21 306
-26 377 -10 146 33 182 39 186 35 11 -10 -9 -17 -102 -32 -53 -9 -96 -19 -96
-23 0 -22 84 -48 95 -30 4 7 13 6 25 0 12 -7 34 -7 60 -1 l40 9 0 -31 c0 -17
26 -158 57 -314 55 -273 58 -283 80 -283 13 0 23 4 23 10 0 5 -22 117 -49 249
-28 132 -53 267 -57 298 -6 58 7 137 26 148 5 3 7 -1 4 -9 -5 -12 71 -329 157
-658 7 -28 15 -38 29 -38 11 0 20 2 20 4 0 13 -173 702 -178 711 -8 11 -72 14
-72 3 0 -5 -5 -8 -11 -8 -5 0 -8 3 -5 8 6 9 -55 9 -70 0 -6 -4 -26 -8 -45 -9
-19 -2 -38 -5 -44 -8 -11 -6 -22 -8 -87 -15 -27 -3 -48 -2 -48 2 0 9 -108 8
-116 -1 -3 -3 -16 -2 -28 3 -12 4 -38 8 -57 9 -42 1 -60 4 -76 14 -8 5 -13 3
-13 -3 0 -7 -7 -7 -22 1 -13 7 -24 12 -25 11 -10 -7 -23 1 -23 13 0 18 -12 19
-28 3 -9 -9 -12 -9 -12 0 0 8 -17 10 -56 7 -43 -3 -71 2 -121 20 -69 26 -73
27 -73 21z m247 -132 c-3 -3 -12 -4 -19 -1 -8 3 -5 6 6 6 11 1 17 -2 13 -5z
m640 0 c-3 -3 -12 -4 -19 -1 -8 3 -5 6 6 6 11 1 17 -2 13 -5z"/>
</g>
</svg>
